G04 #@! TF.GenerationSoftware,KiCad,Pcbnew,(5.1.4)-1*
G04 #@! TF.CreationDate,2020-07-15T08:52:25-04:00*
G04 #@! TF.ProjectId,LoquatiousOfBored,4c6f7175-6174-4696-9f75-734f66426f72,rev?*
G04 #@! TF.SameCoordinates,Original*
G04 #@! TF.FileFunction,Copper,L1,Top*
G04 #@! TF.FilePolarity,Positive*
%FSLAX46Y46*%
G04 Gerber Fmt 4.6, Leading zero omitted, Abs format (unit mm)*
G04 Created by KiCad (PCBNEW (5.1.4)-1) date 2020-07-15 08:52:25*
%MOMM*%
%LPD*%
G04 APERTURE LIST*
%ADD10R,3.510000X2.540000*%
%ADD11C,0.100000*%
%ADD12C,0.600000*%
%ADD13C,0.950000*%
%ADD14C,1.500000*%
%ADD15C,0.250000*%
%ADD16C,1.000000*%
%ADD17C,0.500000*%
%ADD18C,0.254000*%
G04 APERTURE END LIST*
D10*
X63000000Y-67320000D03*
X63000000Y-96680000D03*
D11*
G36*
X60759703Y-56550722D02*
G01*
X60774264Y-56552882D01*
X60788543Y-56556459D01*
X60802403Y-56561418D01*
X60815710Y-56567712D01*
X60828336Y-56575280D01*
X60840159Y-56584048D01*
X60851066Y-56593934D01*
X60860952Y-56604841D01*
X60869720Y-56616664D01*
X60877288Y-56629290D01*
X60883582Y-56642597D01*
X60888541Y-56656457D01*
X60892118Y-56670736D01*
X60894278Y-56685297D01*
X60895000Y-56700000D01*
X60895000Y-58350000D01*
X60894278Y-58364703D01*
X60892118Y-58379264D01*
X60888541Y-58393543D01*
X60883582Y-58407403D01*
X60877288Y-58420710D01*
X60869720Y-58433336D01*
X60860952Y-58445159D01*
X60851066Y-58456066D01*
X60840159Y-58465952D01*
X60828336Y-58474720D01*
X60815710Y-58482288D01*
X60802403Y-58488582D01*
X60788543Y-58493541D01*
X60774264Y-58497118D01*
X60759703Y-58499278D01*
X60745000Y-58500000D01*
X60445000Y-58500000D01*
X60430297Y-58499278D01*
X60415736Y-58497118D01*
X60401457Y-58493541D01*
X60387597Y-58488582D01*
X60374290Y-58482288D01*
X60361664Y-58474720D01*
X60349841Y-58465952D01*
X60338934Y-58456066D01*
X60329048Y-58445159D01*
X60320280Y-58433336D01*
X60312712Y-58420710D01*
X60306418Y-58407403D01*
X60301459Y-58393543D01*
X60297882Y-58379264D01*
X60295722Y-58364703D01*
X60295000Y-58350000D01*
X60295000Y-56700000D01*
X60295722Y-56685297D01*
X60297882Y-56670736D01*
X60301459Y-56656457D01*
X60306418Y-56642597D01*
X60312712Y-56629290D01*
X60320280Y-56616664D01*
X60329048Y-56604841D01*
X60338934Y-56593934D01*
X60349841Y-56584048D01*
X60361664Y-56575280D01*
X60374290Y-56567712D01*
X60387597Y-56561418D01*
X60401457Y-56556459D01*
X60415736Y-56552882D01*
X60430297Y-56550722D01*
X60445000Y-56550000D01*
X60745000Y-56550000D01*
X60759703Y-56550722D01*
X60759703Y-56550722D01*
G37*
D12*
X60595000Y-57525000D03*
D11*
G36*
X62029703Y-56550722D02*
G01*
X62044264Y-56552882D01*
X62058543Y-56556459D01*
X62072403Y-56561418D01*
X62085710Y-56567712D01*
X62098336Y-56575280D01*
X62110159Y-56584048D01*
X62121066Y-56593934D01*
X62130952Y-56604841D01*
X62139720Y-56616664D01*
X62147288Y-56629290D01*
X62153582Y-56642597D01*
X62158541Y-56656457D01*
X62162118Y-56670736D01*
X62164278Y-56685297D01*
X62165000Y-56700000D01*
X62165000Y-58350000D01*
X62164278Y-58364703D01*
X62162118Y-58379264D01*
X62158541Y-58393543D01*
X62153582Y-58407403D01*
X62147288Y-58420710D01*
X62139720Y-58433336D01*
X62130952Y-58445159D01*
X62121066Y-58456066D01*
X62110159Y-58465952D01*
X62098336Y-58474720D01*
X62085710Y-58482288D01*
X62072403Y-58488582D01*
X62058543Y-58493541D01*
X62044264Y-58497118D01*
X62029703Y-58499278D01*
X62015000Y-58500000D01*
X61715000Y-58500000D01*
X61700297Y-58499278D01*
X61685736Y-58497118D01*
X61671457Y-58493541D01*
X61657597Y-58488582D01*
X61644290Y-58482288D01*
X61631664Y-58474720D01*
X61619841Y-58465952D01*
X61608934Y-58456066D01*
X61599048Y-58445159D01*
X61590280Y-58433336D01*
X61582712Y-58420710D01*
X61576418Y-58407403D01*
X61571459Y-58393543D01*
X61567882Y-58379264D01*
X61565722Y-58364703D01*
X61565000Y-58350000D01*
X61565000Y-56700000D01*
X61565722Y-56685297D01*
X61567882Y-56670736D01*
X61571459Y-56656457D01*
X61576418Y-56642597D01*
X61582712Y-56629290D01*
X61590280Y-56616664D01*
X61599048Y-56604841D01*
X61608934Y-56593934D01*
X61619841Y-56584048D01*
X61631664Y-56575280D01*
X61644290Y-56567712D01*
X61657597Y-56561418D01*
X61671457Y-56556459D01*
X61685736Y-56552882D01*
X61700297Y-56550722D01*
X61715000Y-56550000D01*
X62015000Y-56550000D01*
X62029703Y-56550722D01*
X62029703Y-56550722D01*
G37*
D12*
X61865000Y-57525000D03*
D11*
G36*
X63299703Y-56550722D02*
G01*
X63314264Y-56552882D01*
X63328543Y-56556459D01*
X63342403Y-56561418D01*
X63355710Y-56567712D01*
X63368336Y-56575280D01*
X63380159Y-56584048D01*
X63391066Y-56593934D01*
X63400952Y-56604841D01*
X63409720Y-56616664D01*
X63417288Y-56629290D01*
X63423582Y-56642597D01*
X63428541Y-56656457D01*
X63432118Y-56670736D01*
X63434278Y-56685297D01*
X63435000Y-56700000D01*
X63435000Y-58350000D01*
X63434278Y-58364703D01*
X63432118Y-58379264D01*
X63428541Y-58393543D01*
X63423582Y-58407403D01*
X63417288Y-58420710D01*
X63409720Y-58433336D01*
X63400952Y-58445159D01*
X63391066Y-58456066D01*
X63380159Y-58465952D01*
X63368336Y-58474720D01*
X63355710Y-58482288D01*
X63342403Y-58488582D01*
X63328543Y-58493541D01*
X63314264Y-58497118D01*
X63299703Y-58499278D01*
X63285000Y-58500000D01*
X62985000Y-58500000D01*
X62970297Y-58499278D01*
X62955736Y-58497118D01*
X62941457Y-58493541D01*
X62927597Y-58488582D01*
X62914290Y-58482288D01*
X62901664Y-58474720D01*
X62889841Y-58465952D01*
X62878934Y-58456066D01*
X62869048Y-58445159D01*
X62860280Y-58433336D01*
X62852712Y-58420710D01*
X62846418Y-58407403D01*
X62841459Y-58393543D01*
X62837882Y-58379264D01*
X62835722Y-58364703D01*
X62835000Y-58350000D01*
X62835000Y-56700000D01*
X62835722Y-56685297D01*
X62837882Y-56670736D01*
X62841459Y-56656457D01*
X62846418Y-56642597D01*
X62852712Y-56629290D01*
X62860280Y-56616664D01*
X62869048Y-56604841D01*
X62878934Y-56593934D01*
X62889841Y-56584048D01*
X62901664Y-56575280D01*
X62914290Y-56567712D01*
X62927597Y-56561418D01*
X62941457Y-56556459D01*
X62955736Y-56552882D01*
X62970297Y-56550722D01*
X62985000Y-56550000D01*
X63285000Y-56550000D01*
X63299703Y-56550722D01*
X63299703Y-56550722D01*
G37*
D12*
X63135000Y-57525000D03*
D11*
G36*
X64569703Y-56550722D02*
G01*
X64584264Y-56552882D01*
X64598543Y-56556459D01*
X64612403Y-56561418D01*
X64625710Y-56567712D01*
X64638336Y-56575280D01*
X64650159Y-56584048D01*
X64661066Y-56593934D01*
X64670952Y-56604841D01*
X64679720Y-56616664D01*
X64687288Y-56629290D01*
X64693582Y-56642597D01*
X64698541Y-56656457D01*
X64702118Y-56670736D01*
X64704278Y-56685297D01*
X64705000Y-56700000D01*
X64705000Y-58350000D01*
X64704278Y-58364703D01*
X64702118Y-58379264D01*
X64698541Y-58393543D01*
X64693582Y-58407403D01*
X64687288Y-58420710D01*
X64679720Y-58433336D01*
X64670952Y-58445159D01*
X64661066Y-58456066D01*
X64650159Y-58465952D01*
X64638336Y-58474720D01*
X64625710Y-58482288D01*
X64612403Y-58488582D01*
X64598543Y-58493541D01*
X64584264Y-58497118D01*
X64569703Y-58499278D01*
X64555000Y-58500000D01*
X64255000Y-58500000D01*
X64240297Y-58499278D01*
X64225736Y-58497118D01*
X64211457Y-58493541D01*
X64197597Y-58488582D01*
X64184290Y-58482288D01*
X64171664Y-58474720D01*
X64159841Y-58465952D01*
X64148934Y-58456066D01*
X64139048Y-58445159D01*
X64130280Y-58433336D01*
X64122712Y-58420710D01*
X64116418Y-58407403D01*
X64111459Y-58393543D01*
X64107882Y-58379264D01*
X64105722Y-58364703D01*
X64105000Y-58350000D01*
X64105000Y-56700000D01*
X64105722Y-56685297D01*
X64107882Y-56670736D01*
X64111459Y-56656457D01*
X64116418Y-56642597D01*
X64122712Y-56629290D01*
X64130280Y-56616664D01*
X64139048Y-56604841D01*
X64148934Y-56593934D01*
X64159841Y-56584048D01*
X64171664Y-56575280D01*
X64184290Y-56567712D01*
X64197597Y-56561418D01*
X64211457Y-56556459D01*
X64225736Y-56552882D01*
X64240297Y-56550722D01*
X64255000Y-56550000D01*
X64555000Y-56550000D01*
X64569703Y-56550722D01*
X64569703Y-56550722D01*
G37*
D12*
X64405000Y-57525000D03*
D11*
G36*
X64569703Y-61500722D02*
G01*
X64584264Y-61502882D01*
X64598543Y-61506459D01*
X64612403Y-61511418D01*
X64625710Y-61517712D01*
X64638336Y-61525280D01*
X64650159Y-61534048D01*
X64661066Y-61543934D01*
X64670952Y-61554841D01*
X64679720Y-61566664D01*
X64687288Y-61579290D01*
X64693582Y-61592597D01*
X64698541Y-61606457D01*
X64702118Y-61620736D01*
X64704278Y-61635297D01*
X64705000Y-61650000D01*
X64705000Y-63300000D01*
X64704278Y-63314703D01*
X64702118Y-63329264D01*
X64698541Y-63343543D01*
X64693582Y-63357403D01*
X64687288Y-63370710D01*
X64679720Y-63383336D01*
X64670952Y-63395159D01*
X64661066Y-63406066D01*
X64650159Y-63415952D01*
X64638336Y-63424720D01*
X64625710Y-63432288D01*
X64612403Y-63438582D01*
X64598543Y-63443541D01*
X64584264Y-63447118D01*
X64569703Y-63449278D01*
X64555000Y-63450000D01*
X64255000Y-63450000D01*
X64240297Y-63449278D01*
X64225736Y-63447118D01*
X64211457Y-63443541D01*
X64197597Y-63438582D01*
X64184290Y-63432288D01*
X64171664Y-63424720D01*
X64159841Y-63415952D01*
X64148934Y-63406066D01*
X64139048Y-63395159D01*
X64130280Y-63383336D01*
X64122712Y-63370710D01*
X64116418Y-63357403D01*
X64111459Y-63343543D01*
X64107882Y-63329264D01*
X64105722Y-63314703D01*
X64105000Y-63300000D01*
X64105000Y-61650000D01*
X64105722Y-61635297D01*
X64107882Y-61620736D01*
X64111459Y-61606457D01*
X64116418Y-61592597D01*
X64122712Y-61579290D01*
X64130280Y-61566664D01*
X64139048Y-61554841D01*
X64148934Y-61543934D01*
X64159841Y-61534048D01*
X64171664Y-61525280D01*
X64184290Y-61517712D01*
X64197597Y-61511418D01*
X64211457Y-61506459D01*
X64225736Y-61502882D01*
X64240297Y-61500722D01*
X64255000Y-61500000D01*
X64555000Y-61500000D01*
X64569703Y-61500722D01*
X64569703Y-61500722D01*
G37*
D12*
X64405000Y-62475000D03*
D11*
G36*
X63299703Y-61500722D02*
G01*
X63314264Y-61502882D01*
X63328543Y-61506459D01*
X63342403Y-61511418D01*
X63355710Y-61517712D01*
X63368336Y-61525280D01*
X63380159Y-61534048D01*
X63391066Y-61543934D01*
X63400952Y-61554841D01*
X63409720Y-61566664D01*
X63417288Y-61579290D01*
X63423582Y-61592597D01*
X63428541Y-61606457D01*
X63432118Y-61620736D01*
X63434278Y-61635297D01*
X63435000Y-61650000D01*
X63435000Y-63300000D01*
X63434278Y-63314703D01*
X63432118Y-63329264D01*
X63428541Y-63343543D01*
X63423582Y-63357403D01*
X63417288Y-63370710D01*
X63409720Y-63383336D01*
X63400952Y-63395159D01*
X63391066Y-63406066D01*
X63380159Y-63415952D01*
X63368336Y-63424720D01*
X63355710Y-63432288D01*
X63342403Y-63438582D01*
X63328543Y-63443541D01*
X63314264Y-63447118D01*
X63299703Y-63449278D01*
X63285000Y-63450000D01*
X62985000Y-63450000D01*
X62970297Y-63449278D01*
X62955736Y-63447118D01*
X62941457Y-63443541D01*
X62927597Y-63438582D01*
X62914290Y-63432288D01*
X62901664Y-63424720D01*
X62889841Y-63415952D01*
X62878934Y-63406066D01*
X62869048Y-63395159D01*
X62860280Y-63383336D01*
X62852712Y-63370710D01*
X62846418Y-63357403D01*
X62841459Y-63343543D01*
X62837882Y-63329264D01*
X62835722Y-63314703D01*
X62835000Y-63300000D01*
X62835000Y-61650000D01*
X62835722Y-61635297D01*
X62837882Y-61620736D01*
X62841459Y-61606457D01*
X62846418Y-61592597D01*
X62852712Y-61579290D01*
X62860280Y-61566664D01*
X62869048Y-61554841D01*
X62878934Y-61543934D01*
X62889841Y-61534048D01*
X62901664Y-61525280D01*
X62914290Y-61517712D01*
X62927597Y-61511418D01*
X62941457Y-61506459D01*
X62955736Y-61502882D01*
X62970297Y-61500722D01*
X62985000Y-61500000D01*
X63285000Y-61500000D01*
X63299703Y-61500722D01*
X63299703Y-61500722D01*
G37*
D12*
X63135000Y-62475000D03*
D11*
G36*
X62029703Y-61500722D02*
G01*
X62044264Y-61502882D01*
X62058543Y-61506459D01*
X62072403Y-61511418D01*
X62085710Y-61517712D01*
X62098336Y-61525280D01*
X62110159Y-61534048D01*
X62121066Y-61543934D01*
X62130952Y-61554841D01*
X62139720Y-61566664D01*
X62147288Y-61579290D01*
X62153582Y-61592597D01*
X62158541Y-61606457D01*
X62162118Y-61620736D01*
X62164278Y-61635297D01*
X62165000Y-61650000D01*
X62165000Y-63300000D01*
X62164278Y-63314703D01*
X62162118Y-63329264D01*
X62158541Y-63343543D01*
X62153582Y-63357403D01*
X62147288Y-63370710D01*
X62139720Y-63383336D01*
X62130952Y-63395159D01*
X62121066Y-63406066D01*
X62110159Y-63415952D01*
X62098336Y-63424720D01*
X62085710Y-63432288D01*
X62072403Y-63438582D01*
X62058543Y-63443541D01*
X62044264Y-63447118D01*
X62029703Y-63449278D01*
X62015000Y-63450000D01*
X61715000Y-63450000D01*
X61700297Y-63449278D01*
X61685736Y-63447118D01*
X61671457Y-63443541D01*
X61657597Y-63438582D01*
X61644290Y-63432288D01*
X61631664Y-63424720D01*
X61619841Y-63415952D01*
X61608934Y-63406066D01*
X61599048Y-63395159D01*
X61590280Y-63383336D01*
X61582712Y-63370710D01*
X61576418Y-63357403D01*
X61571459Y-63343543D01*
X61567882Y-63329264D01*
X61565722Y-63314703D01*
X61565000Y-63300000D01*
X61565000Y-61650000D01*
X61565722Y-61635297D01*
X61567882Y-61620736D01*
X61571459Y-61606457D01*
X61576418Y-61592597D01*
X61582712Y-61579290D01*
X61590280Y-61566664D01*
X61599048Y-61554841D01*
X61608934Y-61543934D01*
X61619841Y-61534048D01*
X61631664Y-61525280D01*
X61644290Y-61517712D01*
X61657597Y-61511418D01*
X61671457Y-61506459D01*
X61685736Y-61502882D01*
X61700297Y-61500722D01*
X61715000Y-61500000D01*
X62015000Y-61500000D01*
X62029703Y-61500722D01*
X62029703Y-61500722D01*
G37*
D12*
X61865000Y-62475000D03*
D11*
G36*
X60759703Y-61500722D02*
G01*
X60774264Y-61502882D01*
X60788543Y-61506459D01*
X60802403Y-61511418D01*
X60815710Y-61517712D01*
X60828336Y-61525280D01*
X60840159Y-61534048D01*
X60851066Y-61543934D01*
X60860952Y-61554841D01*
X60869720Y-61566664D01*
X60877288Y-61579290D01*
X60883582Y-61592597D01*
X60888541Y-61606457D01*
X60892118Y-61620736D01*
X60894278Y-61635297D01*
X60895000Y-61650000D01*
X60895000Y-63300000D01*
X60894278Y-63314703D01*
X60892118Y-63329264D01*
X60888541Y-63343543D01*
X60883582Y-63357403D01*
X60877288Y-63370710D01*
X60869720Y-63383336D01*
X60860952Y-63395159D01*
X60851066Y-63406066D01*
X60840159Y-63415952D01*
X60828336Y-63424720D01*
X60815710Y-63432288D01*
X60802403Y-63438582D01*
X60788543Y-63443541D01*
X60774264Y-63447118D01*
X60759703Y-63449278D01*
X60745000Y-63450000D01*
X60445000Y-63450000D01*
X60430297Y-63449278D01*
X60415736Y-63447118D01*
X60401457Y-63443541D01*
X60387597Y-63438582D01*
X60374290Y-63432288D01*
X60361664Y-63424720D01*
X60349841Y-63415952D01*
X60338934Y-63406066D01*
X60329048Y-63395159D01*
X60320280Y-63383336D01*
X60312712Y-63370710D01*
X60306418Y-63357403D01*
X60301459Y-63343543D01*
X60297882Y-63329264D01*
X60295722Y-63314703D01*
X60295000Y-63300000D01*
X60295000Y-61650000D01*
X60295722Y-61635297D01*
X60297882Y-61620736D01*
X60301459Y-61606457D01*
X60306418Y-61592597D01*
X60312712Y-61579290D01*
X60320280Y-61566664D01*
X60329048Y-61554841D01*
X60338934Y-61543934D01*
X60349841Y-61534048D01*
X60361664Y-61525280D01*
X60374290Y-61517712D01*
X60387597Y-61511418D01*
X60401457Y-61506459D01*
X60415736Y-61502882D01*
X60430297Y-61500722D01*
X60445000Y-61500000D01*
X60745000Y-61500000D01*
X60759703Y-61500722D01*
X60759703Y-61500722D01*
G37*
D12*
X60595000Y-62475000D03*
D11*
G36*
X57760779Y-58601144D02*
G01*
X57783834Y-58604563D01*
X57806443Y-58610227D01*
X57828387Y-58618079D01*
X57849457Y-58628044D01*
X57869448Y-58640026D01*
X57888168Y-58653910D01*
X57905438Y-58669562D01*
X57921090Y-58686832D01*
X57934974Y-58705552D01*
X57946956Y-58725543D01*
X57956921Y-58746613D01*
X57964773Y-58768557D01*
X57970437Y-58791166D01*
X57973856Y-58814221D01*
X57975000Y-58837500D01*
X57975000Y-59412500D01*
X57973856Y-59435779D01*
X57970437Y-59458834D01*
X57964773Y-59481443D01*
X57956921Y-59503387D01*
X57946956Y-59524457D01*
X57934974Y-59544448D01*
X57921090Y-59563168D01*
X57905438Y-59580438D01*
X57888168Y-59596090D01*
X57869448Y-59609974D01*
X57849457Y-59621956D01*
X57828387Y-59631921D01*
X57806443Y-59639773D01*
X57783834Y-59645437D01*
X57760779Y-59648856D01*
X57737500Y-59650000D01*
X57262500Y-59650000D01*
X57239221Y-59648856D01*
X57216166Y-59645437D01*
X57193557Y-59639773D01*
X57171613Y-59631921D01*
X57150543Y-59621956D01*
X57130552Y-59609974D01*
X57111832Y-59596090D01*
X57094562Y-59580438D01*
X57078910Y-59563168D01*
X57065026Y-59544448D01*
X57053044Y-59524457D01*
X57043079Y-59503387D01*
X57035227Y-59481443D01*
X57029563Y-59458834D01*
X57026144Y-59435779D01*
X57025000Y-59412500D01*
X57025000Y-58837500D01*
X57026144Y-58814221D01*
X57029563Y-58791166D01*
X57035227Y-58768557D01*
X57043079Y-58746613D01*
X57053044Y-58725543D01*
X57065026Y-58705552D01*
X57078910Y-58686832D01*
X57094562Y-58669562D01*
X57111832Y-58653910D01*
X57130552Y-58640026D01*
X57150543Y-58628044D01*
X57171613Y-58618079D01*
X57193557Y-58610227D01*
X57216166Y-58604563D01*
X57239221Y-58601144D01*
X57262500Y-58600000D01*
X57737500Y-58600000D01*
X57760779Y-58601144D01*
X57760779Y-58601144D01*
G37*
D13*
X57500000Y-59125000D03*
D11*
G36*
X57760779Y-60351144D02*
G01*
X57783834Y-60354563D01*
X57806443Y-60360227D01*
X57828387Y-60368079D01*
X57849457Y-60378044D01*
X57869448Y-60390026D01*
X57888168Y-60403910D01*
X57905438Y-60419562D01*
X57921090Y-60436832D01*
X57934974Y-60455552D01*
X57946956Y-60475543D01*
X57956921Y-60496613D01*
X57964773Y-60518557D01*
X57970437Y-60541166D01*
X57973856Y-60564221D01*
X57975000Y-60587500D01*
X57975000Y-61162500D01*
X57973856Y-61185779D01*
X57970437Y-61208834D01*
X57964773Y-61231443D01*
X57956921Y-61253387D01*
X57946956Y-61274457D01*
X57934974Y-61294448D01*
X57921090Y-61313168D01*
X57905438Y-61330438D01*
X57888168Y-61346090D01*
X57869448Y-61359974D01*
X57849457Y-61371956D01*
X57828387Y-61381921D01*
X57806443Y-61389773D01*
X57783834Y-61395437D01*
X57760779Y-61398856D01*
X57737500Y-61400000D01*
X57262500Y-61400000D01*
X57239221Y-61398856D01*
X57216166Y-61395437D01*
X57193557Y-61389773D01*
X57171613Y-61381921D01*
X57150543Y-61371956D01*
X57130552Y-61359974D01*
X57111832Y-61346090D01*
X57094562Y-61330438D01*
X57078910Y-61313168D01*
X57065026Y-61294448D01*
X57053044Y-61274457D01*
X57043079Y-61253387D01*
X57035227Y-61231443D01*
X57029563Y-61208834D01*
X57026144Y-61185779D01*
X57025000Y-61162500D01*
X57025000Y-60587500D01*
X57026144Y-60564221D01*
X57029563Y-60541166D01*
X57035227Y-60518557D01*
X57043079Y-60496613D01*
X57053044Y-60475543D01*
X57065026Y-60455552D01*
X57078910Y-60436832D01*
X57094562Y-60419562D01*
X57111832Y-60403910D01*
X57130552Y-60390026D01*
X57150543Y-60378044D01*
X57171613Y-60368079D01*
X57193557Y-60360227D01*
X57216166Y-60354563D01*
X57239221Y-60351144D01*
X57262500Y-60350000D01*
X57737500Y-60350000D01*
X57760779Y-60351144D01*
X57760779Y-60351144D01*
G37*
D13*
X57500000Y-60875000D03*
D11*
G36*
X79435779Y-84026144D02*
G01*
X79458834Y-84029563D01*
X79481443Y-84035227D01*
X79503387Y-84043079D01*
X79524457Y-84053044D01*
X79544448Y-84065026D01*
X79563168Y-84078910D01*
X79580438Y-84094562D01*
X79596090Y-84111832D01*
X79609974Y-84130552D01*
X79621956Y-84150543D01*
X79631921Y-84171613D01*
X79639773Y-84193557D01*
X79645437Y-84216166D01*
X79648856Y-84239221D01*
X79650000Y-84262500D01*
X79650000Y-84737500D01*
X79648856Y-84760779D01*
X79645437Y-84783834D01*
X79639773Y-84806443D01*
X79631921Y-84828387D01*
X79621956Y-84849457D01*
X79609974Y-84869448D01*
X79596090Y-84888168D01*
X79580438Y-84905438D01*
X79563168Y-84921090D01*
X79544448Y-84934974D01*
X79524457Y-84946956D01*
X79503387Y-84956921D01*
X79481443Y-84964773D01*
X79458834Y-84970437D01*
X79435779Y-84973856D01*
X79412500Y-84975000D01*
X78837500Y-84975000D01*
X78814221Y-84973856D01*
X78791166Y-84970437D01*
X78768557Y-84964773D01*
X78746613Y-84956921D01*
X78725543Y-84946956D01*
X78705552Y-84934974D01*
X78686832Y-84921090D01*
X78669562Y-84905438D01*
X78653910Y-84888168D01*
X78640026Y-84869448D01*
X78628044Y-84849457D01*
X78618079Y-84828387D01*
X78610227Y-84806443D01*
X78604563Y-84783834D01*
X78601144Y-84760779D01*
X78600000Y-84737500D01*
X78600000Y-84262500D01*
X78601144Y-84239221D01*
X78604563Y-84216166D01*
X78610227Y-84193557D01*
X78618079Y-84171613D01*
X78628044Y-84150543D01*
X78640026Y-84130552D01*
X78653910Y-84111832D01*
X78669562Y-84094562D01*
X78686832Y-84078910D01*
X78705552Y-84065026D01*
X78725543Y-84053044D01*
X78746613Y-84043079D01*
X78768557Y-84035227D01*
X78791166Y-84029563D01*
X78814221Y-84026144D01*
X78837500Y-84025000D01*
X79412500Y-84025000D01*
X79435779Y-84026144D01*
X79435779Y-84026144D01*
G37*
D13*
X79125000Y-84500000D03*
D11*
G36*
X81185779Y-84026144D02*
G01*
X81208834Y-84029563D01*
X81231443Y-84035227D01*
X81253387Y-84043079D01*
X81274457Y-84053044D01*
X81294448Y-84065026D01*
X81313168Y-84078910D01*
X81330438Y-84094562D01*
X81346090Y-84111832D01*
X81359974Y-84130552D01*
X81371956Y-84150543D01*
X81381921Y-84171613D01*
X81389773Y-84193557D01*
X81395437Y-84216166D01*
X81398856Y-84239221D01*
X81400000Y-84262500D01*
X81400000Y-84737500D01*
X81398856Y-84760779D01*
X81395437Y-84783834D01*
X81389773Y-84806443D01*
X81381921Y-84828387D01*
X81371956Y-84849457D01*
X81359974Y-84869448D01*
X81346090Y-84888168D01*
X81330438Y-84905438D01*
X81313168Y-84921090D01*
X81294448Y-84934974D01*
X81274457Y-84946956D01*
X81253387Y-84956921D01*
X81231443Y-84964773D01*
X81208834Y-84970437D01*
X81185779Y-84973856D01*
X81162500Y-84975000D01*
X80587500Y-84975000D01*
X80564221Y-84973856D01*
X80541166Y-84970437D01*
X80518557Y-84964773D01*
X80496613Y-84956921D01*
X80475543Y-84946956D01*
X80455552Y-84934974D01*
X80436832Y-84921090D01*
X80419562Y-84905438D01*
X80403910Y-84888168D01*
X80390026Y-84869448D01*
X80378044Y-84849457D01*
X80368079Y-84828387D01*
X80360227Y-84806443D01*
X80354563Y-84783834D01*
X80351144Y-84760779D01*
X80350000Y-84737500D01*
X80350000Y-84262500D01*
X80351144Y-84239221D01*
X80354563Y-84216166D01*
X80360227Y-84193557D01*
X80368079Y-84171613D01*
X80378044Y-84150543D01*
X80390026Y-84130552D01*
X80403910Y-84111832D01*
X80419562Y-84094562D01*
X80436832Y-84078910D01*
X80455552Y-84065026D01*
X80475543Y-84053044D01*
X80496613Y-84043079D01*
X80518557Y-84035227D01*
X80541166Y-84029563D01*
X80564221Y-84026144D01*
X80587500Y-84025000D01*
X81162500Y-84025000D01*
X81185779Y-84026144D01*
X81185779Y-84026144D01*
G37*
D13*
X80875000Y-84500000D03*
D11*
G36*
X79435779Y-91526144D02*
G01*
X79458834Y-91529563D01*
X79481443Y-91535227D01*
X79503387Y-91543079D01*
X79524457Y-91553044D01*
X79544448Y-91565026D01*
X79563168Y-91578910D01*
X79580438Y-91594562D01*
X79596090Y-91611832D01*
X79609974Y-91630552D01*
X79621956Y-91650543D01*
X79631921Y-91671613D01*
X79639773Y-91693557D01*
X79645437Y-91716166D01*
X79648856Y-91739221D01*
X79650000Y-91762500D01*
X79650000Y-92237500D01*
X79648856Y-92260779D01*
X79645437Y-92283834D01*
X79639773Y-92306443D01*
X79631921Y-92328387D01*
X79621956Y-92349457D01*
X79609974Y-92369448D01*
X79596090Y-92388168D01*
X79580438Y-92405438D01*
X79563168Y-92421090D01*
X79544448Y-92434974D01*
X79524457Y-92446956D01*
X79503387Y-92456921D01*
X79481443Y-92464773D01*
X79458834Y-92470437D01*
X79435779Y-92473856D01*
X79412500Y-92475000D01*
X78837500Y-92475000D01*
X78814221Y-92473856D01*
X78791166Y-92470437D01*
X78768557Y-92464773D01*
X78746613Y-92456921D01*
X78725543Y-92446956D01*
X78705552Y-92434974D01*
X78686832Y-92421090D01*
X78669562Y-92405438D01*
X78653910Y-92388168D01*
X78640026Y-92369448D01*
X78628044Y-92349457D01*
X78618079Y-92328387D01*
X78610227Y-92306443D01*
X78604563Y-92283834D01*
X78601144Y-92260779D01*
X78600000Y-92237500D01*
X78600000Y-91762500D01*
X78601144Y-91739221D01*
X78604563Y-91716166D01*
X78610227Y-91693557D01*
X78618079Y-91671613D01*
X78628044Y-91650543D01*
X78640026Y-91630552D01*
X78653910Y-91611832D01*
X78669562Y-91594562D01*
X78686832Y-91578910D01*
X78705552Y-91565026D01*
X78725543Y-91553044D01*
X78746613Y-91543079D01*
X78768557Y-91535227D01*
X78791166Y-91529563D01*
X78814221Y-91526144D01*
X78837500Y-91525000D01*
X79412500Y-91525000D01*
X79435779Y-91526144D01*
X79435779Y-91526144D01*
G37*
D13*
X79125000Y-92000000D03*
D11*
G36*
X81185779Y-91526144D02*
G01*
X81208834Y-91529563D01*
X81231443Y-91535227D01*
X81253387Y-91543079D01*
X81274457Y-91553044D01*
X81294448Y-91565026D01*
X81313168Y-91578910D01*
X81330438Y-91594562D01*
X81346090Y-91611832D01*
X81359974Y-91630552D01*
X81371956Y-91650543D01*
X81381921Y-91671613D01*
X81389773Y-91693557D01*
X81395437Y-91716166D01*
X81398856Y-91739221D01*
X81400000Y-91762500D01*
X81400000Y-92237500D01*
X81398856Y-92260779D01*
X81395437Y-92283834D01*
X81389773Y-92306443D01*
X81381921Y-92328387D01*
X81371956Y-92349457D01*
X81359974Y-92369448D01*
X81346090Y-92388168D01*
X81330438Y-92405438D01*
X81313168Y-92421090D01*
X81294448Y-92434974D01*
X81274457Y-92446956D01*
X81253387Y-92456921D01*
X81231443Y-92464773D01*
X81208834Y-92470437D01*
X81185779Y-92473856D01*
X81162500Y-92475000D01*
X80587500Y-92475000D01*
X80564221Y-92473856D01*
X80541166Y-92470437D01*
X80518557Y-92464773D01*
X80496613Y-92456921D01*
X80475543Y-92446956D01*
X80455552Y-92434974D01*
X80436832Y-92421090D01*
X80419562Y-92405438D01*
X80403910Y-92388168D01*
X80390026Y-92369448D01*
X80378044Y-92349457D01*
X80368079Y-92328387D01*
X80360227Y-92306443D01*
X80354563Y-92283834D01*
X80351144Y-92260779D01*
X80350000Y-92237500D01*
X80350000Y-91762500D01*
X80351144Y-91739221D01*
X80354563Y-91716166D01*
X80360227Y-91693557D01*
X80368079Y-91671613D01*
X80378044Y-91650543D01*
X80390026Y-91630552D01*
X80403910Y-91611832D01*
X80419562Y-91594562D01*
X80436832Y-91578910D01*
X80455552Y-91565026D01*
X80475543Y-91553044D01*
X80496613Y-91543079D01*
X80518557Y-91535227D01*
X80541166Y-91529563D01*
X80564221Y-91526144D01*
X80587500Y-91525000D01*
X81162500Y-91525000D01*
X81185779Y-91526144D01*
X81185779Y-91526144D01*
G37*
D13*
X80875000Y-92000000D03*
D11*
G36*
X79435779Y-61526144D02*
G01*
X79458834Y-61529563D01*
X79481443Y-61535227D01*
X79503387Y-61543079D01*
X79524457Y-61553044D01*
X79544448Y-61565026D01*
X79563168Y-61578910D01*
X79580438Y-61594562D01*
X79596090Y-61611832D01*
X79609974Y-61630552D01*
X79621956Y-61650543D01*
X79631921Y-61671613D01*
X79639773Y-61693557D01*
X79645437Y-61716166D01*
X79648856Y-61739221D01*
X79650000Y-61762500D01*
X79650000Y-62237500D01*
X79648856Y-62260779D01*
X79645437Y-62283834D01*
X79639773Y-62306443D01*
X79631921Y-62328387D01*
X79621956Y-62349457D01*
X79609974Y-62369448D01*
X79596090Y-62388168D01*
X79580438Y-62405438D01*
X79563168Y-62421090D01*
X79544448Y-62434974D01*
X79524457Y-62446956D01*
X79503387Y-62456921D01*
X79481443Y-62464773D01*
X79458834Y-62470437D01*
X79435779Y-62473856D01*
X79412500Y-62475000D01*
X78837500Y-62475000D01*
X78814221Y-62473856D01*
X78791166Y-62470437D01*
X78768557Y-62464773D01*
X78746613Y-62456921D01*
X78725543Y-62446956D01*
X78705552Y-62434974D01*
X78686832Y-62421090D01*
X78669562Y-62405438D01*
X78653910Y-62388168D01*
X78640026Y-62369448D01*
X78628044Y-62349457D01*
X78618079Y-62328387D01*
X78610227Y-62306443D01*
X78604563Y-62283834D01*
X78601144Y-62260779D01*
X78600000Y-62237500D01*
X78600000Y-61762500D01*
X78601144Y-61739221D01*
X78604563Y-61716166D01*
X78610227Y-61693557D01*
X78618079Y-61671613D01*
X78628044Y-61650543D01*
X78640026Y-61630552D01*
X78653910Y-61611832D01*
X78669562Y-61594562D01*
X78686832Y-61578910D01*
X78705552Y-61565026D01*
X78725543Y-61553044D01*
X78746613Y-61543079D01*
X78768557Y-61535227D01*
X78791166Y-61529563D01*
X78814221Y-61526144D01*
X78837500Y-61525000D01*
X79412500Y-61525000D01*
X79435779Y-61526144D01*
X79435779Y-61526144D01*
G37*
D13*
X79125000Y-62000000D03*
D11*
G36*
X81185779Y-61526144D02*
G01*
X81208834Y-61529563D01*
X81231443Y-61535227D01*
X81253387Y-61543079D01*
X81274457Y-61553044D01*
X81294448Y-61565026D01*
X81313168Y-61578910D01*
X81330438Y-61594562D01*
X81346090Y-61611832D01*
X81359974Y-61630552D01*
X81371956Y-61650543D01*
X81381921Y-61671613D01*
X81389773Y-61693557D01*
X81395437Y-61716166D01*
X81398856Y-61739221D01*
X81400000Y-61762500D01*
X81400000Y-62237500D01*
X81398856Y-62260779D01*
X81395437Y-62283834D01*
X81389773Y-62306443D01*
X81381921Y-62328387D01*
X81371956Y-62349457D01*
X81359974Y-62369448D01*
X81346090Y-62388168D01*
X81330438Y-62405438D01*
X81313168Y-62421090D01*
X81294448Y-62434974D01*
X81274457Y-62446956D01*
X81253387Y-62456921D01*
X81231443Y-62464773D01*
X81208834Y-62470437D01*
X81185779Y-62473856D01*
X81162500Y-62475000D01*
X80587500Y-62475000D01*
X80564221Y-62473856D01*
X80541166Y-62470437D01*
X80518557Y-62464773D01*
X80496613Y-62456921D01*
X80475543Y-62446956D01*
X80455552Y-62434974D01*
X80436832Y-62421090D01*
X80419562Y-62405438D01*
X80403910Y-62388168D01*
X80390026Y-62369448D01*
X80378044Y-62349457D01*
X80368079Y-62328387D01*
X80360227Y-62306443D01*
X80354563Y-62283834D01*
X80351144Y-62260779D01*
X80350000Y-62237500D01*
X80350000Y-61762500D01*
X80351144Y-61739221D01*
X80354563Y-61716166D01*
X80360227Y-61693557D01*
X80368079Y-61671613D01*
X80378044Y-61650543D01*
X80390026Y-61630552D01*
X80403910Y-61611832D01*
X80419562Y-61594562D01*
X80436832Y-61578910D01*
X80455552Y-61565026D01*
X80475543Y-61553044D01*
X80496613Y-61543079D01*
X80518557Y-61535227D01*
X80541166Y-61529563D01*
X80564221Y-61526144D01*
X80587500Y-61525000D01*
X81162500Y-61525000D01*
X81185779Y-61526144D01*
X81185779Y-61526144D01*
G37*
D13*
X80875000Y-62000000D03*
D11*
G36*
X79435779Y-69026144D02*
G01*
X79458834Y-69029563D01*
X79481443Y-69035227D01*
X79503387Y-69043079D01*
X79524457Y-69053044D01*
X79544448Y-69065026D01*
X79563168Y-69078910D01*
X79580438Y-69094562D01*
X79596090Y-69111832D01*
X79609974Y-69130552D01*
X79621956Y-69150543D01*
X79631921Y-69171613D01*
X79639773Y-69193557D01*
X79645437Y-69216166D01*
X79648856Y-69239221D01*
X79650000Y-69262500D01*
X79650000Y-69737500D01*
X79648856Y-69760779D01*
X79645437Y-69783834D01*
X79639773Y-69806443D01*
X79631921Y-69828387D01*
X79621956Y-69849457D01*
X79609974Y-69869448D01*
X79596090Y-69888168D01*
X79580438Y-69905438D01*
X79563168Y-69921090D01*
X79544448Y-69934974D01*
X79524457Y-69946956D01*
X79503387Y-69956921D01*
X79481443Y-69964773D01*
X79458834Y-69970437D01*
X79435779Y-69973856D01*
X79412500Y-69975000D01*
X78837500Y-69975000D01*
X78814221Y-69973856D01*
X78791166Y-69970437D01*
X78768557Y-69964773D01*
X78746613Y-69956921D01*
X78725543Y-69946956D01*
X78705552Y-69934974D01*
X78686832Y-69921090D01*
X78669562Y-69905438D01*
X78653910Y-69888168D01*
X78640026Y-69869448D01*
X78628044Y-69849457D01*
X78618079Y-69828387D01*
X78610227Y-69806443D01*
X78604563Y-69783834D01*
X78601144Y-69760779D01*
X78600000Y-69737500D01*
X78600000Y-69262500D01*
X78601144Y-69239221D01*
X78604563Y-69216166D01*
X78610227Y-69193557D01*
X78618079Y-69171613D01*
X78628044Y-69150543D01*
X78640026Y-69130552D01*
X78653910Y-69111832D01*
X78669562Y-69094562D01*
X78686832Y-69078910D01*
X78705552Y-69065026D01*
X78725543Y-69053044D01*
X78746613Y-69043079D01*
X78768557Y-69035227D01*
X78791166Y-69029563D01*
X78814221Y-69026144D01*
X78837500Y-69025000D01*
X79412500Y-69025000D01*
X79435779Y-69026144D01*
X79435779Y-69026144D01*
G37*
D13*
X79125000Y-69500000D03*
D11*
G36*
X81185779Y-69026144D02*
G01*
X81208834Y-69029563D01*
X81231443Y-69035227D01*
X81253387Y-69043079D01*
X81274457Y-69053044D01*
X81294448Y-69065026D01*
X81313168Y-69078910D01*
X81330438Y-69094562D01*
X81346090Y-69111832D01*
X81359974Y-69130552D01*
X81371956Y-69150543D01*
X81381921Y-69171613D01*
X81389773Y-69193557D01*
X81395437Y-69216166D01*
X81398856Y-69239221D01*
X81400000Y-69262500D01*
X81400000Y-69737500D01*
X81398856Y-69760779D01*
X81395437Y-69783834D01*
X81389773Y-69806443D01*
X81381921Y-69828387D01*
X81371956Y-69849457D01*
X81359974Y-69869448D01*
X81346090Y-69888168D01*
X81330438Y-69905438D01*
X81313168Y-69921090D01*
X81294448Y-69934974D01*
X81274457Y-69946956D01*
X81253387Y-69956921D01*
X81231443Y-69964773D01*
X81208834Y-69970437D01*
X81185779Y-69973856D01*
X81162500Y-69975000D01*
X80587500Y-69975000D01*
X80564221Y-69973856D01*
X80541166Y-69970437D01*
X80518557Y-69964773D01*
X80496613Y-69956921D01*
X80475543Y-69946956D01*
X80455552Y-69934974D01*
X80436832Y-69921090D01*
X80419562Y-69905438D01*
X80403910Y-69888168D01*
X80390026Y-69869448D01*
X80378044Y-69849457D01*
X80368079Y-69828387D01*
X80360227Y-69806443D01*
X80354563Y-69783834D01*
X80351144Y-69760779D01*
X80350000Y-69737500D01*
X80350000Y-69262500D01*
X80351144Y-69239221D01*
X80354563Y-69216166D01*
X80360227Y-69193557D01*
X80368079Y-69171613D01*
X80378044Y-69150543D01*
X80390026Y-69130552D01*
X80403910Y-69111832D01*
X80419562Y-69094562D01*
X80436832Y-69078910D01*
X80455552Y-69065026D01*
X80475543Y-69053044D01*
X80496613Y-69043079D01*
X80518557Y-69035227D01*
X80541166Y-69029563D01*
X80564221Y-69026144D01*
X80587500Y-69025000D01*
X81162500Y-69025000D01*
X81185779Y-69026144D01*
X81185779Y-69026144D01*
G37*
D13*
X80875000Y-69500000D03*
D11*
G36*
X79435779Y-76526144D02*
G01*
X79458834Y-76529563D01*
X79481443Y-76535227D01*
X79503387Y-76543079D01*
X79524457Y-76553044D01*
X79544448Y-76565026D01*
X79563168Y-76578910D01*
X79580438Y-76594562D01*
X79596090Y-76611832D01*
X79609974Y-76630552D01*
X79621956Y-76650543D01*
X79631921Y-76671613D01*
X79639773Y-76693557D01*
X79645437Y-76716166D01*
X79648856Y-76739221D01*
X79650000Y-76762500D01*
X79650000Y-77237500D01*
X79648856Y-77260779D01*
X79645437Y-77283834D01*
X79639773Y-77306443D01*
X79631921Y-77328387D01*
X79621956Y-77349457D01*
X79609974Y-77369448D01*
X79596090Y-77388168D01*
X79580438Y-77405438D01*
X79563168Y-77421090D01*
X79544448Y-77434974D01*
X79524457Y-77446956D01*
X79503387Y-77456921D01*
X79481443Y-77464773D01*
X79458834Y-77470437D01*
X79435779Y-77473856D01*
X79412500Y-77475000D01*
X78837500Y-77475000D01*
X78814221Y-77473856D01*
X78791166Y-77470437D01*
X78768557Y-77464773D01*
X78746613Y-77456921D01*
X78725543Y-77446956D01*
X78705552Y-77434974D01*
X78686832Y-77421090D01*
X78669562Y-77405438D01*
X78653910Y-77388168D01*
X78640026Y-77369448D01*
X78628044Y-77349457D01*
X78618079Y-77328387D01*
X78610227Y-77306443D01*
X78604563Y-77283834D01*
X78601144Y-77260779D01*
X78600000Y-77237500D01*
X78600000Y-76762500D01*
X78601144Y-76739221D01*
X78604563Y-76716166D01*
X78610227Y-76693557D01*
X78618079Y-76671613D01*
X78628044Y-76650543D01*
X78640026Y-76630552D01*
X78653910Y-76611832D01*
X78669562Y-76594562D01*
X78686832Y-76578910D01*
X78705552Y-76565026D01*
X78725543Y-76553044D01*
X78746613Y-76543079D01*
X78768557Y-76535227D01*
X78791166Y-76529563D01*
X78814221Y-76526144D01*
X78837500Y-76525000D01*
X79412500Y-76525000D01*
X79435779Y-76526144D01*
X79435779Y-76526144D01*
G37*
D13*
X79125000Y-77000000D03*
D11*
G36*
X81185779Y-76526144D02*
G01*
X81208834Y-76529563D01*
X81231443Y-76535227D01*
X81253387Y-76543079D01*
X81274457Y-76553044D01*
X81294448Y-76565026D01*
X81313168Y-76578910D01*
X81330438Y-76594562D01*
X81346090Y-76611832D01*
X81359974Y-76630552D01*
X81371956Y-76650543D01*
X81381921Y-76671613D01*
X81389773Y-76693557D01*
X81395437Y-76716166D01*
X81398856Y-76739221D01*
X81400000Y-76762500D01*
X81400000Y-77237500D01*
X81398856Y-77260779D01*
X81395437Y-77283834D01*
X81389773Y-77306443D01*
X81381921Y-77328387D01*
X81371956Y-77349457D01*
X81359974Y-77369448D01*
X81346090Y-77388168D01*
X81330438Y-77405438D01*
X81313168Y-77421090D01*
X81294448Y-77434974D01*
X81274457Y-77446956D01*
X81253387Y-77456921D01*
X81231443Y-77464773D01*
X81208834Y-77470437D01*
X81185779Y-77473856D01*
X81162500Y-77475000D01*
X80587500Y-77475000D01*
X80564221Y-77473856D01*
X80541166Y-77470437D01*
X80518557Y-77464773D01*
X80496613Y-77456921D01*
X80475543Y-77446956D01*
X80455552Y-77434974D01*
X80436832Y-77421090D01*
X80419562Y-77405438D01*
X80403910Y-77388168D01*
X80390026Y-77369448D01*
X80378044Y-77349457D01*
X80368079Y-77328387D01*
X80360227Y-77306443D01*
X80354563Y-77283834D01*
X80351144Y-77260779D01*
X80350000Y-77237500D01*
X80350000Y-76762500D01*
X80351144Y-76739221D01*
X80354563Y-76716166D01*
X80360227Y-76693557D01*
X80368079Y-76671613D01*
X80378044Y-76650543D01*
X80390026Y-76630552D01*
X80403910Y-76611832D01*
X80419562Y-76594562D01*
X80436832Y-76578910D01*
X80455552Y-76565026D01*
X80475543Y-76553044D01*
X80496613Y-76543079D01*
X80518557Y-76535227D01*
X80541166Y-76529563D01*
X80564221Y-76526144D01*
X80587500Y-76525000D01*
X81162500Y-76525000D01*
X81185779Y-76526144D01*
X81185779Y-76526144D01*
G37*
D13*
X80875000Y-77000000D03*
D14*
X52000000Y-68000000D03*
X52000000Y-62000000D03*
X52000000Y-65000000D03*
D11*
G36*
X81185779Y-86126144D02*
G01*
X81208834Y-86129563D01*
X81231443Y-86135227D01*
X81253387Y-86143079D01*
X81274457Y-86153044D01*
X81294448Y-86165026D01*
X81313168Y-86178910D01*
X81330438Y-86194562D01*
X81346090Y-86211832D01*
X81359974Y-86230552D01*
X81371956Y-86250543D01*
X81381921Y-86271613D01*
X81389773Y-86293557D01*
X81395437Y-86316166D01*
X81398856Y-86339221D01*
X81400000Y-86362500D01*
X81400000Y-86837500D01*
X81398856Y-86860779D01*
X81395437Y-86883834D01*
X81389773Y-86906443D01*
X81381921Y-86928387D01*
X81371956Y-86949457D01*
X81359974Y-86969448D01*
X81346090Y-86988168D01*
X81330438Y-87005438D01*
X81313168Y-87021090D01*
X81294448Y-87034974D01*
X81274457Y-87046956D01*
X81253387Y-87056921D01*
X81231443Y-87064773D01*
X81208834Y-87070437D01*
X81185779Y-87073856D01*
X81162500Y-87075000D01*
X80587500Y-87075000D01*
X80564221Y-87073856D01*
X80541166Y-87070437D01*
X80518557Y-87064773D01*
X80496613Y-87056921D01*
X80475543Y-87046956D01*
X80455552Y-87034974D01*
X80436832Y-87021090D01*
X80419562Y-87005438D01*
X80403910Y-86988168D01*
X80390026Y-86969448D01*
X80378044Y-86949457D01*
X80368079Y-86928387D01*
X80360227Y-86906443D01*
X80354563Y-86883834D01*
X80351144Y-86860779D01*
X80350000Y-86837500D01*
X80350000Y-86362500D01*
X80351144Y-86339221D01*
X80354563Y-86316166D01*
X80360227Y-86293557D01*
X80368079Y-86271613D01*
X80378044Y-86250543D01*
X80390026Y-86230552D01*
X80403910Y-86211832D01*
X80419562Y-86194562D01*
X80436832Y-86178910D01*
X80455552Y-86165026D01*
X80475543Y-86153044D01*
X80496613Y-86143079D01*
X80518557Y-86135227D01*
X80541166Y-86129563D01*
X80564221Y-86126144D01*
X80587500Y-86125000D01*
X81162500Y-86125000D01*
X81185779Y-86126144D01*
X81185779Y-86126144D01*
G37*
D13*
X80875000Y-86600000D03*
D11*
G36*
X79435779Y-86126144D02*
G01*
X79458834Y-86129563D01*
X79481443Y-86135227D01*
X79503387Y-86143079D01*
X79524457Y-86153044D01*
X79544448Y-86165026D01*
X79563168Y-86178910D01*
X79580438Y-86194562D01*
X79596090Y-86211832D01*
X79609974Y-86230552D01*
X79621956Y-86250543D01*
X79631921Y-86271613D01*
X79639773Y-86293557D01*
X79645437Y-86316166D01*
X79648856Y-86339221D01*
X79650000Y-86362500D01*
X79650000Y-86837500D01*
X79648856Y-86860779D01*
X79645437Y-86883834D01*
X79639773Y-86906443D01*
X79631921Y-86928387D01*
X79621956Y-86949457D01*
X79609974Y-86969448D01*
X79596090Y-86988168D01*
X79580438Y-87005438D01*
X79563168Y-87021090D01*
X79544448Y-87034974D01*
X79524457Y-87046956D01*
X79503387Y-87056921D01*
X79481443Y-87064773D01*
X79458834Y-87070437D01*
X79435779Y-87073856D01*
X79412500Y-87075000D01*
X78837500Y-87075000D01*
X78814221Y-87073856D01*
X78791166Y-87070437D01*
X78768557Y-87064773D01*
X78746613Y-87056921D01*
X78725543Y-87046956D01*
X78705552Y-87034974D01*
X78686832Y-87021090D01*
X78669562Y-87005438D01*
X78653910Y-86988168D01*
X78640026Y-86969448D01*
X78628044Y-86949457D01*
X78618079Y-86928387D01*
X78610227Y-86906443D01*
X78604563Y-86883834D01*
X78601144Y-86860779D01*
X78600000Y-86837500D01*
X78600000Y-86362500D01*
X78601144Y-86339221D01*
X78604563Y-86316166D01*
X78610227Y-86293557D01*
X78618079Y-86271613D01*
X78628044Y-86250543D01*
X78640026Y-86230552D01*
X78653910Y-86211832D01*
X78669562Y-86194562D01*
X78686832Y-86178910D01*
X78705552Y-86165026D01*
X78725543Y-86153044D01*
X78746613Y-86143079D01*
X78768557Y-86135227D01*
X78791166Y-86129563D01*
X78814221Y-86126144D01*
X78837500Y-86125000D01*
X79412500Y-86125000D01*
X79435779Y-86126144D01*
X79435779Y-86126144D01*
G37*
D13*
X79125000Y-86600000D03*
D11*
G36*
X81185779Y-93526144D02*
G01*
X81208834Y-93529563D01*
X81231443Y-93535227D01*
X81253387Y-93543079D01*
X81274457Y-93553044D01*
X81294448Y-93565026D01*
X81313168Y-93578910D01*
X81330438Y-93594562D01*
X81346090Y-93611832D01*
X81359974Y-93630552D01*
X81371956Y-93650543D01*
X81381921Y-93671613D01*
X81389773Y-93693557D01*
X81395437Y-93716166D01*
X81398856Y-93739221D01*
X81400000Y-93762500D01*
X81400000Y-94237500D01*
X81398856Y-94260779D01*
X81395437Y-94283834D01*
X81389773Y-94306443D01*
X81381921Y-94328387D01*
X81371956Y-94349457D01*
X81359974Y-94369448D01*
X81346090Y-94388168D01*
X81330438Y-94405438D01*
X81313168Y-94421090D01*
X81294448Y-94434974D01*
X81274457Y-94446956D01*
X81253387Y-94456921D01*
X81231443Y-94464773D01*
X81208834Y-94470437D01*
X81185779Y-94473856D01*
X81162500Y-94475000D01*
X80587500Y-94475000D01*
X80564221Y-94473856D01*
X80541166Y-94470437D01*
X80518557Y-94464773D01*
X80496613Y-94456921D01*
X80475543Y-94446956D01*
X80455552Y-94434974D01*
X80436832Y-94421090D01*
X80419562Y-94405438D01*
X80403910Y-94388168D01*
X80390026Y-94369448D01*
X80378044Y-94349457D01*
X80368079Y-94328387D01*
X80360227Y-94306443D01*
X80354563Y-94283834D01*
X80351144Y-94260779D01*
X80350000Y-94237500D01*
X80350000Y-93762500D01*
X80351144Y-93739221D01*
X80354563Y-93716166D01*
X80360227Y-93693557D01*
X80368079Y-93671613D01*
X80378044Y-93650543D01*
X80390026Y-93630552D01*
X80403910Y-93611832D01*
X80419562Y-93594562D01*
X80436832Y-93578910D01*
X80455552Y-93565026D01*
X80475543Y-93553044D01*
X80496613Y-93543079D01*
X80518557Y-93535227D01*
X80541166Y-93529563D01*
X80564221Y-93526144D01*
X80587500Y-93525000D01*
X81162500Y-93525000D01*
X81185779Y-93526144D01*
X81185779Y-93526144D01*
G37*
D13*
X80875000Y-94000000D03*
D11*
G36*
X79435779Y-93526144D02*
G01*
X79458834Y-93529563D01*
X79481443Y-93535227D01*
X79503387Y-93543079D01*
X79524457Y-93553044D01*
X79544448Y-93565026D01*
X79563168Y-93578910D01*
X79580438Y-93594562D01*
X79596090Y-93611832D01*
X79609974Y-93630552D01*
X79621956Y-93650543D01*
X79631921Y-93671613D01*
X79639773Y-93693557D01*
X79645437Y-93716166D01*
X79648856Y-93739221D01*
X79650000Y-93762500D01*
X79650000Y-94237500D01*
X79648856Y-94260779D01*
X79645437Y-94283834D01*
X79639773Y-94306443D01*
X79631921Y-94328387D01*
X79621956Y-94349457D01*
X79609974Y-94369448D01*
X79596090Y-94388168D01*
X79580438Y-94405438D01*
X79563168Y-94421090D01*
X79544448Y-94434974D01*
X79524457Y-94446956D01*
X79503387Y-94456921D01*
X79481443Y-94464773D01*
X79458834Y-94470437D01*
X79435779Y-94473856D01*
X79412500Y-94475000D01*
X78837500Y-94475000D01*
X78814221Y-94473856D01*
X78791166Y-94470437D01*
X78768557Y-94464773D01*
X78746613Y-94456921D01*
X78725543Y-94446956D01*
X78705552Y-94434974D01*
X78686832Y-94421090D01*
X78669562Y-94405438D01*
X78653910Y-94388168D01*
X78640026Y-94369448D01*
X78628044Y-94349457D01*
X78618079Y-94328387D01*
X78610227Y-94306443D01*
X78604563Y-94283834D01*
X78601144Y-94260779D01*
X78600000Y-94237500D01*
X78600000Y-93762500D01*
X78601144Y-93739221D01*
X78604563Y-93716166D01*
X78610227Y-93693557D01*
X78618079Y-93671613D01*
X78628044Y-93650543D01*
X78640026Y-93630552D01*
X78653910Y-93611832D01*
X78669562Y-93594562D01*
X78686832Y-93578910D01*
X78705552Y-93565026D01*
X78725543Y-93553044D01*
X78746613Y-93543079D01*
X78768557Y-93535227D01*
X78791166Y-93529563D01*
X78814221Y-93526144D01*
X78837500Y-93525000D01*
X79412500Y-93525000D01*
X79435779Y-93526144D01*
X79435779Y-93526144D01*
G37*
D13*
X79125000Y-94000000D03*
D11*
G36*
X81185779Y-63526144D02*
G01*
X81208834Y-63529563D01*
X81231443Y-63535227D01*
X81253387Y-63543079D01*
X81274457Y-63553044D01*
X81294448Y-63565026D01*
X81313168Y-63578910D01*
X81330438Y-63594562D01*
X81346090Y-63611832D01*
X81359974Y-63630552D01*
X81371956Y-63650543D01*
X81381921Y-63671613D01*
X81389773Y-63693557D01*
X81395437Y-63716166D01*
X81398856Y-63739221D01*
X81400000Y-63762500D01*
X81400000Y-64237500D01*
X81398856Y-64260779D01*
X81395437Y-64283834D01*
X81389773Y-64306443D01*
X81381921Y-64328387D01*
X81371956Y-64349457D01*
X81359974Y-64369448D01*
X81346090Y-64388168D01*
X81330438Y-64405438D01*
X81313168Y-64421090D01*
X81294448Y-64434974D01*
X81274457Y-64446956D01*
X81253387Y-64456921D01*
X81231443Y-64464773D01*
X81208834Y-64470437D01*
X81185779Y-64473856D01*
X81162500Y-64475000D01*
X80587500Y-64475000D01*
X80564221Y-64473856D01*
X80541166Y-64470437D01*
X80518557Y-64464773D01*
X80496613Y-64456921D01*
X80475543Y-64446956D01*
X80455552Y-64434974D01*
X80436832Y-64421090D01*
X80419562Y-64405438D01*
X80403910Y-64388168D01*
X80390026Y-64369448D01*
X80378044Y-64349457D01*
X80368079Y-64328387D01*
X80360227Y-64306443D01*
X80354563Y-64283834D01*
X80351144Y-64260779D01*
X80350000Y-64237500D01*
X80350000Y-63762500D01*
X80351144Y-63739221D01*
X80354563Y-63716166D01*
X80360227Y-63693557D01*
X80368079Y-63671613D01*
X80378044Y-63650543D01*
X80390026Y-63630552D01*
X80403910Y-63611832D01*
X80419562Y-63594562D01*
X80436832Y-63578910D01*
X80455552Y-63565026D01*
X80475543Y-63553044D01*
X80496613Y-63543079D01*
X80518557Y-63535227D01*
X80541166Y-63529563D01*
X80564221Y-63526144D01*
X80587500Y-63525000D01*
X81162500Y-63525000D01*
X81185779Y-63526144D01*
X81185779Y-63526144D01*
G37*
D13*
X80875000Y-64000000D03*
D11*
G36*
X79435779Y-63526144D02*
G01*
X79458834Y-63529563D01*
X79481443Y-63535227D01*
X79503387Y-63543079D01*
X79524457Y-63553044D01*
X79544448Y-63565026D01*
X79563168Y-63578910D01*
X79580438Y-63594562D01*
X79596090Y-63611832D01*
X79609974Y-63630552D01*
X79621956Y-63650543D01*
X79631921Y-63671613D01*
X79639773Y-63693557D01*
X79645437Y-63716166D01*
X79648856Y-63739221D01*
X79650000Y-63762500D01*
X79650000Y-64237500D01*
X79648856Y-64260779D01*
X79645437Y-64283834D01*
X79639773Y-64306443D01*
X79631921Y-64328387D01*
X79621956Y-64349457D01*
X79609974Y-64369448D01*
X79596090Y-64388168D01*
X79580438Y-64405438D01*
X79563168Y-64421090D01*
X79544448Y-64434974D01*
X79524457Y-64446956D01*
X79503387Y-64456921D01*
X79481443Y-64464773D01*
X79458834Y-64470437D01*
X79435779Y-64473856D01*
X79412500Y-64475000D01*
X78837500Y-64475000D01*
X78814221Y-64473856D01*
X78791166Y-64470437D01*
X78768557Y-64464773D01*
X78746613Y-64456921D01*
X78725543Y-64446956D01*
X78705552Y-64434974D01*
X78686832Y-64421090D01*
X78669562Y-64405438D01*
X78653910Y-64388168D01*
X78640026Y-64369448D01*
X78628044Y-64349457D01*
X78618079Y-64328387D01*
X78610227Y-64306443D01*
X78604563Y-64283834D01*
X78601144Y-64260779D01*
X78600000Y-64237500D01*
X78600000Y-63762500D01*
X78601144Y-63739221D01*
X78604563Y-63716166D01*
X78610227Y-63693557D01*
X78618079Y-63671613D01*
X78628044Y-63650543D01*
X78640026Y-63630552D01*
X78653910Y-63611832D01*
X78669562Y-63594562D01*
X78686832Y-63578910D01*
X78705552Y-63565026D01*
X78725543Y-63553044D01*
X78746613Y-63543079D01*
X78768557Y-63535227D01*
X78791166Y-63529563D01*
X78814221Y-63526144D01*
X78837500Y-63525000D01*
X79412500Y-63525000D01*
X79435779Y-63526144D01*
X79435779Y-63526144D01*
G37*
D13*
X79125000Y-64000000D03*
D11*
G36*
X81185779Y-71126144D02*
G01*
X81208834Y-71129563D01*
X81231443Y-71135227D01*
X81253387Y-71143079D01*
X81274457Y-71153044D01*
X81294448Y-71165026D01*
X81313168Y-71178910D01*
X81330438Y-71194562D01*
X81346090Y-71211832D01*
X81359974Y-71230552D01*
X81371956Y-71250543D01*
X81381921Y-71271613D01*
X81389773Y-71293557D01*
X81395437Y-71316166D01*
X81398856Y-71339221D01*
X81400000Y-71362500D01*
X81400000Y-71837500D01*
X81398856Y-71860779D01*
X81395437Y-71883834D01*
X81389773Y-71906443D01*
X81381921Y-71928387D01*
X81371956Y-71949457D01*
X81359974Y-71969448D01*
X81346090Y-71988168D01*
X81330438Y-72005438D01*
X81313168Y-72021090D01*
X81294448Y-72034974D01*
X81274457Y-72046956D01*
X81253387Y-72056921D01*
X81231443Y-72064773D01*
X81208834Y-72070437D01*
X81185779Y-72073856D01*
X81162500Y-72075000D01*
X80587500Y-72075000D01*
X80564221Y-72073856D01*
X80541166Y-72070437D01*
X80518557Y-72064773D01*
X80496613Y-72056921D01*
X80475543Y-72046956D01*
X80455552Y-72034974D01*
X80436832Y-72021090D01*
X80419562Y-72005438D01*
X80403910Y-71988168D01*
X80390026Y-71969448D01*
X80378044Y-71949457D01*
X80368079Y-71928387D01*
X80360227Y-71906443D01*
X80354563Y-71883834D01*
X80351144Y-71860779D01*
X80350000Y-71837500D01*
X80350000Y-71362500D01*
X80351144Y-71339221D01*
X80354563Y-71316166D01*
X80360227Y-71293557D01*
X80368079Y-71271613D01*
X80378044Y-71250543D01*
X80390026Y-71230552D01*
X80403910Y-71211832D01*
X80419562Y-71194562D01*
X80436832Y-71178910D01*
X80455552Y-71165026D01*
X80475543Y-71153044D01*
X80496613Y-71143079D01*
X80518557Y-71135227D01*
X80541166Y-71129563D01*
X80564221Y-71126144D01*
X80587500Y-71125000D01*
X81162500Y-71125000D01*
X81185779Y-71126144D01*
X81185779Y-71126144D01*
G37*
D13*
X80875000Y-71600000D03*
D11*
G36*
X79435779Y-71126144D02*
G01*
X79458834Y-71129563D01*
X79481443Y-71135227D01*
X79503387Y-71143079D01*
X79524457Y-71153044D01*
X79544448Y-71165026D01*
X79563168Y-71178910D01*
X79580438Y-71194562D01*
X79596090Y-71211832D01*
X79609974Y-71230552D01*
X79621956Y-71250543D01*
X79631921Y-71271613D01*
X79639773Y-71293557D01*
X79645437Y-71316166D01*
X79648856Y-71339221D01*
X79650000Y-71362500D01*
X79650000Y-71837500D01*
X79648856Y-71860779D01*
X79645437Y-71883834D01*
X79639773Y-71906443D01*
X79631921Y-71928387D01*
X79621956Y-71949457D01*
X79609974Y-71969448D01*
X79596090Y-71988168D01*
X79580438Y-72005438D01*
X79563168Y-72021090D01*
X79544448Y-72034974D01*
X79524457Y-72046956D01*
X79503387Y-72056921D01*
X79481443Y-72064773D01*
X79458834Y-72070437D01*
X79435779Y-72073856D01*
X79412500Y-72075000D01*
X78837500Y-72075000D01*
X78814221Y-72073856D01*
X78791166Y-72070437D01*
X78768557Y-72064773D01*
X78746613Y-72056921D01*
X78725543Y-72046956D01*
X78705552Y-72034974D01*
X78686832Y-72021090D01*
X78669562Y-72005438D01*
X78653910Y-71988168D01*
X78640026Y-71969448D01*
X78628044Y-71949457D01*
X78618079Y-71928387D01*
X78610227Y-71906443D01*
X78604563Y-71883834D01*
X78601144Y-71860779D01*
X78600000Y-71837500D01*
X78600000Y-71362500D01*
X78601144Y-71339221D01*
X78604563Y-71316166D01*
X78610227Y-71293557D01*
X78618079Y-71271613D01*
X78628044Y-71250543D01*
X78640026Y-71230552D01*
X78653910Y-71211832D01*
X78669562Y-71194562D01*
X78686832Y-71178910D01*
X78705552Y-71165026D01*
X78725543Y-71153044D01*
X78746613Y-71143079D01*
X78768557Y-71135227D01*
X78791166Y-71129563D01*
X78814221Y-71126144D01*
X78837500Y-71125000D01*
X79412500Y-71125000D01*
X79435779Y-71126144D01*
X79435779Y-71126144D01*
G37*
D13*
X79125000Y-71600000D03*
D11*
G36*
X81185779Y-78526144D02*
G01*
X81208834Y-78529563D01*
X81231443Y-78535227D01*
X81253387Y-78543079D01*
X81274457Y-78553044D01*
X81294448Y-78565026D01*
X81313168Y-78578910D01*
X81330438Y-78594562D01*
X81346090Y-78611832D01*
X81359974Y-78630552D01*
X81371956Y-78650543D01*
X81381921Y-78671613D01*
X81389773Y-78693557D01*
X81395437Y-78716166D01*
X81398856Y-78739221D01*
X81400000Y-78762500D01*
X81400000Y-79237500D01*
X81398856Y-79260779D01*
X81395437Y-79283834D01*
X81389773Y-79306443D01*
X81381921Y-79328387D01*
X81371956Y-79349457D01*
X81359974Y-79369448D01*
X81346090Y-79388168D01*
X81330438Y-79405438D01*
X81313168Y-79421090D01*
X81294448Y-79434974D01*
X81274457Y-79446956D01*
X81253387Y-79456921D01*
X81231443Y-79464773D01*
X81208834Y-79470437D01*
X81185779Y-79473856D01*
X81162500Y-79475000D01*
X80587500Y-79475000D01*
X80564221Y-79473856D01*
X80541166Y-79470437D01*
X80518557Y-79464773D01*
X80496613Y-79456921D01*
X80475543Y-79446956D01*
X80455552Y-79434974D01*
X80436832Y-79421090D01*
X80419562Y-79405438D01*
X80403910Y-79388168D01*
X80390026Y-79369448D01*
X80378044Y-79349457D01*
X80368079Y-79328387D01*
X80360227Y-79306443D01*
X80354563Y-79283834D01*
X80351144Y-79260779D01*
X80350000Y-79237500D01*
X80350000Y-78762500D01*
X80351144Y-78739221D01*
X80354563Y-78716166D01*
X80360227Y-78693557D01*
X80368079Y-78671613D01*
X80378044Y-78650543D01*
X80390026Y-78630552D01*
X80403910Y-78611832D01*
X80419562Y-78594562D01*
X80436832Y-78578910D01*
X80455552Y-78565026D01*
X80475543Y-78553044D01*
X80496613Y-78543079D01*
X80518557Y-78535227D01*
X80541166Y-78529563D01*
X80564221Y-78526144D01*
X80587500Y-78525000D01*
X81162500Y-78525000D01*
X81185779Y-78526144D01*
X81185779Y-78526144D01*
G37*
D13*
X80875000Y-79000000D03*
D11*
G36*
X79435779Y-78526144D02*
G01*
X79458834Y-78529563D01*
X79481443Y-78535227D01*
X79503387Y-78543079D01*
X79524457Y-78553044D01*
X79544448Y-78565026D01*
X79563168Y-78578910D01*
X79580438Y-78594562D01*
X79596090Y-78611832D01*
X79609974Y-78630552D01*
X79621956Y-78650543D01*
X79631921Y-78671613D01*
X79639773Y-78693557D01*
X79645437Y-78716166D01*
X79648856Y-78739221D01*
X79650000Y-78762500D01*
X79650000Y-79237500D01*
X79648856Y-79260779D01*
X79645437Y-79283834D01*
X79639773Y-79306443D01*
X79631921Y-79328387D01*
X79621956Y-79349457D01*
X79609974Y-79369448D01*
X79596090Y-79388168D01*
X79580438Y-79405438D01*
X79563168Y-79421090D01*
X79544448Y-79434974D01*
X79524457Y-79446956D01*
X79503387Y-79456921D01*
X79481443Y-79464773D01*
X79458834Y-79470437D01*
X79435779Y-79473856D01*
X79412500Y-79475000D01*
X78837500Y-79475000D01*
X78814221Y-79473856D01*
X78791166Y-79470437D01*
X78768557Y-79464773D01*
X78746613Y-79456921D01*
X78725543Y-79446956D01*
X78705552Y-79434974D01*
X78686832Y-79421090D01*
X78669562Y-79405438D01*
X78653910Y-79388168D01*
X78640026Y-79369448D01*
X78628044Y-79349457D01*
X78618079Y-79328387D01*
X78610227Y-79306443D01*
X78604563Y-79283834D01*
X78601144Y-79260779D01*
X78600000Y-79237500D01*
X78600000Y-78762500D01*
X78601144Y-78739221D01*
X78604563Y-78716166D01*
X78610227Y-78693557D01*
X78618079Y-78671613D01*
X78628044Y-78650543D01*
X78640026Y-78630552D01*
X78653910Y-78611832D01*
X78669562Y-78594562D01*
X78686832Y-78578910D01*
X78705552Y-78565026D01*
X78725543Y-78553044D01*
X78746613Y-78543079D01*
X78768557Y-78535227D01*
X78791166Y-78529563D01*
X78814221Y-78526144D01*
X78837500Y-78525000D01*
X79412500Y-78525000D01*
X79435779Y-78526144D01*
X79435779Y-78526144D01*
G37*
D13*
X79125000Y-79000000D03*
D15*
X60620000Y-57050000D02*
X60620000Y-58330000D01*
D16*
X59100000Y-57525000D02*
X57500000Y-59125000D01*
X60595000Y-57525000D02*
X59100000Y-57525000D01*
X59100000Y-62475000D02*
X57500000Y-60875000D01*
X60595000Y-62475000D02*
X59100000Y-62475000D01*
D17*
X57500000Y-60875000D02*
X53125000Y-60875000D01*
X53125000Y-60875000D02*
X52000000Y-62000000D01*
D16*
X57500000Y-62000000D02*
X57500000Y-60875000D01*
X57500000Y-88910000D02*
X57500000Y-62000000D01*
X63000000Y-94410000D02*
X57500000Y-88910000D01*
X63000000Y-96680000D02*
X63000000Y-94410000D01*
D15*
X63135000Y-59365000D02*
X63135000Y-57525000D01*
X50500000Y-63500000D02*
X50500000Y-61000000D01*
X52000000Y-65000000D02*
X50500000Y-63500000D01*
X50500000Y-61000000D02*
X51500000Y-60000000D01*
X51500000Y-60000000D02*
X51524990Y-60024990D01*
X51524990Y-60024990D02*
X62475010Y-60024990D01*
X62475010Y-60024990D02*
X63135000Y-59365000D01*
X64405000Y-62475000D02*
X66475000Y-62475000D01*
X79125000Y-75125000D02*
X79125000Y-77000000D01*
X66475000Y-62475000D02*
X79125000Y-75125000D01*
X79125000Y-69500000D02*
X79125000Y-68625000D01*
X68025000Y-57525000D02*
X64405000Y-57525000D01*
X79125000Y-68625000D02*
X68025000Y-57525000D01*
X79125000Y-59125000D02*
X79125000Y-62000000D01*
X61865000Y-57525000D02*
X61865000Y-56635000D01*
X61865000Y-56635000D02*
X62750000Y-55750000D01*
X75750000Y-55750000D02*
X79125000Y-59125000D01*
X62750000Y-55750000D02*
X75750000Y-55750000D01*
X61865000Y-62475000D02*
X61865000Y-63635000D01*
X60000000Y-82500000D02*
X68500000Y-91000000D01*
X60000000Y-65500000D02*
X60000000Y-82500000D01*
X61865000Y-63635000D02*
X60000000Y-65500000D01*
X79125000Y-92000000D02*
X69500000Y-92000000D01*
X69500000Y-92000000D02*
X68500000Y-91000000D01*
X63135000Y-64135000D02*
X63135000Y-62475000D01*
X63500000Y-64500000D02*
X63135000Y-64135000D01*
X64500000Y-64500000D02*
X63500000Y-64500000D01*
X67000000Y-67000000D02*
X64500000Y-64500000D01*
X79125000Y-84500000D02*
X79125000Y-83125000D01*
X67000000Y-71000000D02*
X67000000Y-67000000D01*
X79125000Y-83125000D02*
X67000000Y-71000000D01*
X80875000Y-79000000D02*
X80875000Y-77000000D01*
X80875000Y-71600000D02*
X80875000Y-69500000D01*
X80875000Y-64000000D02*
X80875000Y-62000000D01*
X80875000Y-94000000D02*
X80875000Y-92000000D01*
X80875000Y-86600000D02*
X80875000Y-84500000D01*
D18*
G36*
X148259659Y-50688625D02*
G01*
X148509429Y-50764035D01*
X148739792Y-50886522D01*
X148941980Y-51051422D01*
X149108286Y-51252450D01*
X149232378Y-51481954D01*
X149309531Y-51731195D01*
X149340000Y-52021088D01*
X149340001Y-97967711D01*
X149311375Y-98259660D01*
X149235965Y-98509429D01*
X149113477Y-98739794D01*
X148948579Y-98941979D01*
X148747546Y-99108288D01*
X148518046Y-99232378D01*
X148268805Y-99309531D01*
X147978911Y-99340000D01*
X52032279Y-99340000D01*
X51740340Y-99311375D01*
X51490571Y-99235965D01*
X51260206Y-99113477D01*
X51058021Y-98948579D01*
X50891712Y-98747546D01*
X50767622Y-98518046D01*
X50690469Y-98268805D01*
X50660000Y-97978911D01*
X50660000Y-68956993D01*
X51222612Y-68956993D01*
X51288137Y-69195860D01*
X51535116Y-69311760D01*
X51799960Y-69377250D01*
X52072492Y-69389812D01*
X52342238Y-69348965D01*
X52598832Y-69256277D01*
X52711863Y-69195860D01*
X52777388Y-68956993D01*
X52000000Y-68179605D01*
X51222612Y-68956993D01*
X50660000Y-68956993D01*
X50660000Y-68367056D01*
X50743723Y-68598832D01*
X50804140Y-68711863D01*
X51043007Y-68777388D01*
X51820395Y-68000000D01*
X52179605Y-68000000D01*
X52956993Y-68777388D01*
X53195860Y-68711863D01*
X53311760Y-68464884D01*
X53377250Y-68200040D01*
X53389812Y-67927508D01*
X53348965Y-67657762D01*
X53256277Y-67401168D01*
X53195860Y-67288137D01*
X52956993Y-67222612D01*
X52179605Y-68000000D01*
X51820395Y-68000000D01*
X51043007Y-67222612D01*
X50804140Y-67288137D01*
X50688240Y-67535116D01*
X50660000Y-67649320D01*
X50660000Y-67043007D01*
X51222612Y-67043007D01*
X52000000Y-67820395D01*
X52777388Y-67043007D01*
X52711863Y-66804140D01*
X52464884Y-66688240D01*
X52200040Y-66622750D01*
X51927508Y-66610188D01*
X51657762Y-66651035D01*
X51401168Y-66743723D01*
X51288137Y-66804140D01*
X51222612Y-67043007D01*
X50660000Y-67043007D01*
X50660000Y-65362639D01*
X50668225Y-65403989D01*
X50772629Y-65656043D01*
X50924201Y-65882886D01*
X51117114Y-66075799D01*
X51343957Y-66227371D01*
X51596011Y-66331775D01*
X51863589Y-66385000D01*
X52136411Y-66385000D01*
X52403989Y-66331775D01*
X52656043Y-66227371D01*
X52882886Y-66075799D01*
X53075799Y-65882886D01*
X53227371Y-65656043D01*
X53331775Y-65403989D01*
X53385000Y-65136411D01*
X53385000Y-64863589D01*
X53331775Y-64596011D01*
X53227371Y-64343957D01*
X53075799Y-64117114D01*
X52882886Y-63924201D01*
X52656043Y-63772629D01*
X52403989Y-63668225D01*
X52136411Y-63615000D01*
X51863589Y-63615000D01*
X51718635Y-63643833D01*
X51260000Y-63185199D01*
X51260000Y-63171273D01*
X51343957Y-63227371D01*
X51596011Y-63331775D01*
X51863589Y-63385000D01*
X52136411Y-63385000D01*
X52403989Y-63331775D01*
X52656043Y-63227371D01*
X52882886Y-63075799D01*
X53075799Y-62882886D01*
X53227371Y-62656043D01*
X53331775Y-62403989D01*
X53385000Y-62136411D01*
X53385000Y-61866579D01*
X53491579Y-61760000D01*
X56365000Y-61760000D01*
X56365000Y-62055751D01*
X56365001Y-62055761D01*
X56365000Y-88854249D01*
X56359509Y-88910000D01*
X56365000Y-88965751D01*
X56381423Y-89132498D01*
X56446324Y-89346446D01*
X56551716Y-89543623D01*
X56693551Y-89716449D01*
X56736865Y-89751996D01*
X61756795Y-94771928D01*
X61245000Y-94771928D01*
X61120518Y-94784188D01*
X61000820Y-94820498D01*
X60890506Y-94879463D01*
X60793815Y-94958815D01*
X60714463Y-95055506D01*
X60655498Y-95165820D01*
X60619188Y-95285518D01*
X60606928Y-95410000D01*
X60606928Y-97950000D01*
X60619188Y-98074482D01*
X60655498Y-98194180D01*
X60714463Y-98304494D01*
X60793815Y-98401185D01*
X60890506Y-98480537D01*
X61000820Y-98539502D01*
X61120518Y-98575812D01*
X61245000Y-98588072D01*
X64755000Y-98588072D01*
X64879482Y-98575812D01*
X64999180Y-98539502D01*
X65109494Y-98480537D01*
X65206185Y-98401185D01*
X65285537Y-98304494D01*
X65344502Y-98194180D01*
X65380812Y-98074482D01*
X65393072Y-97950000D01*
X65393072Y-95410000D01*
X65380812Y-95285518D01*
X65344502Y-95165820D01*
X65285537Y-95055506D01*
X65206185Y-94958815D01*
X65109494Y-94879463D01*
X64999180Y-94820498D01*
X64879482Y-94784188D01*
X64755000Y-94771928D01*
X64135000Y-94771928D01*
X64135000Y-94475000D01*
X77961928Y-94475000D01*
X77974188Y-94599482D01*
X78010498Y-94719180D01*
X78069463Y-94829494D01*
X78148815Y-94926185D01*
X78245506Y-95005537D01*
X78355820Y-95064502D01*
X78475518Y-95100812D01*
X78600000Y-95113072D01*
X78839250Y-95110000D01*
X78998000Y-94951250D01*
X78998000Y-94127000D01*
X78123750Y-94127000D01*
X77965000Y-94285750D01*
X77961928Y-94475000D01*
X64135000Y-94475000D01*
X64135000Y-94465752D01*
X64140491Y-94410000D01*
X64118577Y-94187501D01*
X64053676Y-93973553D01*
X63948284Y-93776377D01*
X63841989Y-93646856D01*
X63841987Y-93646854D01*
X63806449Y-93603551D01*
X63763146Y-93568013D01*
X58635000Y-88439869D01*
X58635000Y-63513414D01*
X58663553Y-63528676D01*
X58877501Y-63593577D01*
X59100000Y-63615491D01*
X59155752Y-63610000D01*
X59721416Y-63610000D01*
X59789742Y-63737829D01*
X59887749Y-63857251D01*
X60007171Y-63955258D01*
X60143418Y-64028084D01*
X60291255Y-64072929D01*
X60346799Y-64078400D01*
X59489003Y-64936196D01*
X59459999Y-64959999D01*
X59404871Y-65027174D01*
X59365026Y-65075724D01*
X59346705Y-65110000D01*
X59294454Y-65207754D01*
X59250997Y-65351015D01*
X59240000Y-65462668D01*
X59240000Y-65462678D01*
X59236324Y-65500000D01*
X59240000Y-65537322D01*
X59240001Y-82462667D01*
X59236324Y-82500000D01*
X59250998Y-82648985D01*
X59294454Y-82792246D01*
X59365026Y-82924276D01*
X59407486Y-82976013D01*
X59460000Y-83040001D01*
X59488998Y-83063799D01*
X67988997Y-91563799D01*
X67989002Y-91563803D01*
X68936201Y-92511003D01*
X68959999Y-92540001D01*
X68988997Y-92563799D01*
X69075724Y-92634974D01*
X69207753Y-92705546D01*
X69351014Y-92749003D01*
X69500000Y-92763677D01*
X69537333Y-92760000D01*
X78139080Y-92760000D01*
X78218377Y-92856623D01*
X78330789Y-92948878D01*
X78245506Y-92994463D01*
X78148815Y-93073815D01*
X78069463Y-93170506D01*
X78010498Y-93280820D01*
X77974188Y-93400518D01*
X77961928Y-93525000D01*
X77965000Y-93714250D01*
X78123750Y-93873000D01*
X78998000Y-93873000D01*
X78998000Y-93853000D01*
X79252000Y-93853000D01*
X79252000Y-93873000D01*
X79272000Y-93873000D01*
X79272000Y-94127000D01*
X79252000Y-94127000D01*
X79252000Y-94951250D01*
X79410750Y-95110000D01*
X79650000Y-95113072D01*
X79774482Y-95100812D01*
X79894180Y-95064502D01*
X80004494Y-95005537D01*
X80077161Y-94945901D01*
X80101058Y-94965512D01*
X80252433Y-95046423D01*
X80416684Y-95096248D01*
X80587500Y-95113072D01*
X81162500Y-95113072D01*
X81333316Y-95096248D01*
X81497567Y-95046423D01*
X81648942Y-94965512D01*
X81781623Y-94856623D01*
X81890512Y-94723942D01*
X81971423Y-94572567D01*
X82021248Y-94408316D01*
X82038072Y-94237500D01*
X82038072Y-93762500D01*
X82021248Y-93591684D01*
X81971423Y-93427433D01*
X81890512Y-93276058D01*
X81781623Y-93143377D01*
X81648942Y-93034488D01*
X81635000Y-93027036D01*
X81635000Y-92972964D01*
X81648942Y-92965512D01*
X81781623Y-92856623D01*
X81890512Y-92723942D01*
X81971423Y-92572567D01*
X82021248Y-92408316D01*
X82038072Y-92237500D01*
X82038072Y-91762500D01*
X82021248Y-91591684D01*
X81971423Y-91427433D01*
X81890512Y-91276058D01*
X81781623Y-91143377D01*
X81722821Y-91095119D01*
X143065000Y-91095119D01*
X143065001Y-95304882D01*
X143095893Y-95618533D01*
X143217975Y-96020982D01*
X143416224Y-96391881D01*
X143683024Y-96716977D01*
X144008120Y-96983777D01*
X144379019Y-97182026D01*
X144781468Y-97304108D01*
X145200000Y-97345330D01*
X145618533Y-97304108D01*
X146020982Y-97182026D01*
X146391881Y-96983777D01*
X146716977Y-96716977D01*
X146983777Y-96391881D01*
X147182026Y-96020982D01*
X147304108Y-95618533D01*
X147335000Y-95304882D01*
X147335000Y-91095118D01*
X147304108Y-90781467D01*
X147182026Y-90379018D01*
X146983777Y-90008119D01*
X146716977Y-89683023D01*
X146391881Y-89416223D01*
X146020981Y-89217974D01*
X145618532Y-89095892D01*
X145200000Y-89054670D01*
X144781467Y-89095892D01*
X144379018Y-89217974D01*
X144008119Y-89416223D01*
X143683023Y-89683023D01*
X143416223Y-90008119D01*
X143217974Y-90379019D01*
X143095892Y-90781468D01*
X143065000Y-91095119D01*
X81722821Y-91095119D01*
X81648942Y-91034488D01*
X81497567Y-90953577D01*
X81333316Y-90903752D01*
X81162500Y-90886928D01*
X80587500Y-90886928D01*
X80416684Y-90903752D01*
X80252433Y-90953577D01*
X80101058Y-91034488D01*
X80000000Y-91117425D01*
X79898942Y-91034488D01*
X79747567Y-90953577D01*
X79583316Y-90903752D01*
X79412500Y-90886928D01*
X78837500Y-90886928D01*
X78666684Y-90903752D01*
X78502433Y-90953577D01*
X78351058Y-91034488D01*
X78218377Y-91143377D01*
X78139080Y-91240000D01*
X69814802Y-91240000D01*
X69063803Y-90489002D01*
X69063799Y-90488997D01*
X65649802Y-87075000D01*
X77961928Y-87075000D01*
X77974188Y-87199482D01*
X78010498Y-87319180D01*
X78069463Y-87429494D01*
X78148815Y-87526185D01*
X78245506Y-87605537D01*
X78355820Y-87664502D01*
X78475518Y-87700812D01*
X78600000Y-87713072D01*
X78839250Y-87710000D01*
X78998000Y-87551250D01*
X78998000Y-86727000D01*
X78123750Y-86727000D01*
X77965000Y-86885750D01*
X77961928Y-87075000D01*
X65649802Y-87075000D01*
X60760000Y-82185199D01*
X60760000Y-68999981D01*
X60793815Y-69041185D01*
X60890506Y-69120537D01*
X61000820Y-69179502D01*
X61120518Y-69215812D01*
X61245000Y-69228072D01*
X62714250Y-69225000D01*
X62873000Y-69066250D01*
X62873000Y-67447000D01*
X63127000Y-67447000D01*
X63127000Y-69066250D01*
X63285750Y-69225000D01*
X64755000Y-69228072D01*
X64879482Y-69215812D01*
X64999180Y-69179502D01*
X65109494Y-69120537D01*
X65206185Y-69041185D01*
X65285537Y-68944494D01*
X65344502Y-68834180D01*
X65380812Y-68714482D01*
X65393072Y-68590000D01*
X65390000Y-67605750D01*
X65231250Y-67447000D01*
X63127000Y-67447000D01*
X62873000Y-67447000D01*
X62853000Y-67447000D01*
X62853000Y-67193000D01*
X62873000Y-67193000D01*
X62873000Y-65573750D01*
X62714250Y-65415000D01*
X61245000Y-65411928D01*
X61153901Y-65420900D01*
X62376003Y-64198799D01*
X62377487Y-64197581D01*
X62385997Y-64283985D01*
X62416337Y-64384003D01*
X62429454Y-64427246D01*
X62500026Y-64559276D01*
X62510934Y-64572567D01*
X62594999Y-64675001D01*
X62624003Y-64698804D01*
X62936196Y-65010997D01*
X62959999Y-65040001D01*
X63075724Y-65134974D01*
X63207753Y-65205546D01*
X63351014Y-65249003D01*
X63462667Y-65260000D01*
X63462677Y-65260000D01*
X63500000Y-65263676D01*
X63537323Y-65260000D01*
X64185199Y-65260000D01*
X64337999Y-65412800D01*
X63285750Y-65415000D01*
X63127000Y-65573750D01*
X63127000Y-67193000D01*
X65231250Y-67193000D01*
X65390000Y-67034250D01*
X65391772Y-66466573D01*
X66240001Y-67314803D01*
X66240000Y-70962677D01*
X66236324Y-71000000D01*
X66240000Y-71037322D01*
X66240000Y-71037332D01*
X66250997Y-71148985D01*
X66294454Y-71292246D01*
X66365026Y-71424276D01*
X66404871Y-71472826D01*
X66459999Y-71540001D01*
X66489003Y-71563804D01*
X78365001Y-83439804D01*
X78365001Y-83527036D01*
X78351058Y-83534488D01*
X78218377Y-83643377D01*
X78109488Y-83776058D01*
X78028577Y-83927433D01*
X77978752Y-84091684D01*
X77961928Y-84262500D01*
X77961928Y-84737500D01*
X77978752Y-84908316D01*
X78028577Y-85072567D01*
X78109488Y-85223942D01*
X78218377Y-85356623D01*
X78351058Y-85465512D01*
X78436312Y-85511081D01*
X78355820Y-85535498D01*
X78245506Y-85594463D01*
X78148815Y-85673815D01*
X78069463Y-85770506D01*
X78010498Y-85880820D01*
X77974188Y-86000518D01*
X77961928Y-86125000D01*
X77965000Y-86314250D01*
X78123750Y-86473000D01*
X78998000Y-86473000D01*
X78998000Y-86453000D01*
X79252000Y-86453000D01*
X79252000Y-86473000D01*
X79272000Y-86473000D01*
X79272000Y-86727000D01*
X79252000Y-86727000D01*
X79252000Y-87551250D01*
X79410750Y-87710000D01*
X79650000Y-87713072D01*
X79774482Y-87700812D01*
X79894180Y-87664502D01*
X80004494Y-87605537D01*
X80077161Y-87545901D01*
X80101058Y-87565512D01*
X80252433Y-87646423D01*
X80416684Y-87696248D01*
X80587500Y-87713072D01*
X81162500Y-87713072D01*
X81333316Y-87696248D01*
X81497567Y-87646423D01*
X81648942Y-87565512D01*
X81781623Y-87456623D01*
X81890512Y-87323942D01*
X81971423Y-87172567D01*
X82021248Y-87008316D01*
X82038072Y-86837500D01*
X82038072Y-86362500D01*
X82021248Y-86191684D01*
X81971423Y-86027433D01*
X81890512Y-85876058D01*
X81781623Y-85743377D01*
X81648942Y-85634488D01*
X81635000Y-85627036D01*
X81635000Y-85472964D01*
X81648942Y-85465512D01*
X81781623Y-85356623D01*
X81890512Y-85223942D01*
X81971423Y-85072567D01*
X82021248Y-84908316D01*
X82038072Y-84737500D01*
X82038072Y-84262500D01*
X82021248Y-84091684D01*
X81971423Y-83927433D01*
X81890512Y-83776058D01*
X81781623Y-83643377D01*
X81648942Y-83534488D01*
X81497567Y-83453577D01*
X81333316Y-83403752D01*
X81162500Y-83386928D01*
X80587500Y-83386928D01*
X80416684Y-83403752D01*
X80252433Y-83453577D01*
X80101058Y-83534488D01*
X80000000Y-83617425D01*
X79898942Y-83534488D01*
X79885000Y-83527036D01*
X79885000Y-83162322D01*
X79888676Y-83124999D01*
X79885000Y-83087676D01*
X79885000Y-83087667D01*
X79874003Y-82976014D01*
X79830546Y-82832753D01*
X79759974Y-82700724D01*
X79717513Y-82648985D01*
X79688799Y-82613996D01*
X79688795Y-82613992D01*
X79665001Y-82584999D01*
X79636008Y-82561205D01*
X76549803Y-79475000D01*
X77961928Y-79475000D01*
X77974188Y-79599482D01*
X78010498Y-79719180D01*
X78069463Y-79829494D01*
X78148815Y-79926185D01*
X78245506Y-80005537D01*
X78355820Y-80064502D01*
X78475518Y-80100812D01*
X78600000Y-80113072D01*
X78839250Y-80110000D01*
X78998000Y-79951250D01*
X78998000Y-79127000D01*
X78123750Y-79127000D01*
X77965000Y-79285750D01*
X77961928Y-79475000D01*
X76549803Y-79475000D01*
X67760000Y-70685199D01*
X67760000Y-67037323D01*
X67763676Y-67000000D01*
X67760000Y-66962677D01*
X67760000Y-66962667D01*
X67749003Y-66851014D01*
X67705546Y-66707753D01*
X67675229Y-66651035D01*
X67634974Y-66575723D01*
X67563799Y-66488997D01*
X67540001Y-66459999D01*
X67511003Y-66436201D01*
X65063804Y-63989003D01*
X65040001Y-63959999D01*
X65013527Y-63938272D01*
X65112251Y-63857251D01*
X65210258Y-63737829D01*
X65283084Y-63601582D01*
X65327929Y-63453745D01*
X65343072Y-63300000D01*
X65343072Y-63235000D01*
X66160199Y-63235000D01*
X78365000Y-75439802D01*
X78365000Y-76027036D01*
X78351058Y-76034488D01*
X78218377Y-76143377D01*
X78109488Y-76276058D01*
X78028577Y-76427433D01*
X77978752Y-76591684D01*
X77961928Y-76762500D01*
X77961928Y-77237500D01*
X77978752Y-77408316D01*
X78028577Y-77572567D01*
X78109488Y-77723942D01*
X78218377Y-77856623D01*
X78330789Y-77948878D01*
X78245506Y-77994463D01*
X78148815Y-78073815D01*
X78069463Y-78170506D01*
X78010498Y-78280820D01*
X77974188Y-78400518D01*
X77961928Y-78525000D01*
X77965000Y-78714250D01*
X78123750Y-78873000D01*
X78998000Y-78873000D01*
X78998000Y-78853000D01*
X79252000Y-78853000D01*
X79252000Y-78873000D01*
X79272000Y-78873000D01*
X79272000Y-79127000D01*
X79252000Y-79127000D01*
X79252000Y-79951250D01*
X79410750Y-80110000D01*
X79650000Y-80113072D01*
X79774482Y-80100812D01*
X79894180Y-80064502D01*
X80004494Y-80005537D01*
X80077161Y-79945901D01*
X80101058Y-79965512D01*
X80252433Y-80046423D01*
X80416684Y-80096248D01*
X80587500Y-80113072D01*
X81162500Y-80113072D01*
X81333316Y-80096248D01*
X81497567Y-80046423D01*
X81648942Y-79965512D01*
X81781623Y-79856623D01*
X81890512Y-79723942D01*
X81971423Y-79572567D01*
X82021248Y-79408316D01*
X82038072Y-79237500D01*
X82038072Y-78762500D01*
X82021248Y-78591684D01*
X81971423Y-78427433D01*
X81890512Y-78276058D01*
X81781623Y-78143377D01*
X81648942Y-78034488D01*
X81635000Y-78027036D01*
X81635000Y-77972964D01*
X81648942Y-77965512D01*
X81781623Y-77856623D01*
X81890512Y-77723942D01*
X81971423Y-77572567D01*
X82021248Y-77408316D01*
X82038072Y-77237500D01*
X82038072Y-76762500D01*
X82021248Y-76591684D01*
X81971423Y-76427433D01*
X81890512Y-76276058D01*
X81781623Y-76143377D01*
X81648942Y-76034488D01*
X81497567Y-75953577D01*
X81333316Y-75903752D01*
X81162500Y-75886928D01*
X80587500Y-75886928D01*
X80416684Y-75903752D01*
X80252433Y-75953577D01*
X80101058Y-76034488D01*
X80000000Y-76117425D01*
X79898942Y-76034488D01*
X79885000Y-76027036D01*
X79885000Y-75162333D01*
X79888677Y-75125000D01*
X79874003Y-74976014D01*
X79830546Y-74832753D01*
X79759974Y-74700724D01*
X79688799Y-74613997D01*
X79665001Y-74584999D01*
X79636004Y-74561202D01*
X77149802Y-72075000D01*
X77961928Y-72075000D01*
X77974188Y-72199482D01*
X78010498Y-72319180D01*
X78069463Y-72429494D01*
X78148815Y-72526185D01*
X78245506Y-72605537D01*
X78355820Y-72664502D01*
X78475518Y-72700812D01*
X78600000Y-72713072D01*
X78839250Y-72710000D01*
X78998000Y-72551250D01*
X78998000Y-71727000D01*
X78123750Y-71727000D01*
X77965000Y-71885750D01*
X77961928Y-72075000D01*
X77149802Y-72075000D01*
X67038804Y-61964003D01*
X67015001Y-61934999D01*
X66899276Y-61840026D01*
X66767247Y-61769454D01*
X66623986Y-61725997D01*
X66512333Y-61715000D01*
X66512322Y-61715000D01*
X66475000Y-61711324D01*
X66437678Y-61715000D01*
X65343072Y-61715000D01*
X65343072Y-61650000D01*
X65327929Y-61496255D01*
X65283084Y-61348418D01*
X65210258Y-61212171D01*
X65112251Y-61092749D01*
X64992829Y-60994742D01*
X64856582Y-60921916D01*
X64708745Y-60877071D01*
X64555000Y-60861928D01*
X64255000Y-60861928D01*
X64101255Y-60877071D01*
X63953418Y-60921916D01*
X63817171Y-60994742D01*
X63770000Y-61033454D01*
X63722829Y-60994742D01*
X63586582Y-60921916D01*
X63438745Y-60877071D01*
X63285000Y-60861928D01*
X62985000Y-60861928D01*
X62831255Y-60877071D01*
X62683418Y-60921916D01*
X62547171Y-60994742D01*
X62500000Y-61033454D01*
X62452829Y-60994742D01*
X62316582Y-60921916D01*
X62168745Y-60877071D01*
X62015000Y-60861928D01*
X61715000Y-60861928D01*
X61561255Y-60877071D01*
X61413418Y-60921916D01*
X61277171Y-60994742D01*
X61230000Y-61033454D01*
X61182829Y-60994742D01*
X61046582Y-60921916D01*
X60898745Y-60877071D01*
X60745000Y-60861928D01*
X60445000Y-60861928D01*
X60291255Y-60877071D01*
X60143418Y-60921916D01*
X60007171Y-60994742D01*
X59887749Y-61092749D01*
X59789742Y-61212171D01*
X59721416Y-61340000D01*
X59570133Y-61340000D01*
X59015122Y-60784990D01*
X62437688Y-60784990D01*
X62475010Y-60788666D01*
X62512332Y-60784990D01*
X62512343Y-60784990D01*
X62623996Y-60773993D01*
X62767257Y-60730536D01*
X62899286Y-60659964D01*
X63015011Y-60564991D01*
X63038813Y-60535988D01*
X63646004Y-59928798D01*
X63675001Y-59905001D01*
X63769974Y-59789276D01*
X63840546Y-59657247D01*
X63884003Y-59513986D01*
X63895000Y-59402333D01*
X63895000Y-59402323D01*
X63898676Y-59365000D01*
X63895000Y-59327677D01*
X63895000Y-59046859D01*
X63953418Y-59078084D01*
X64101255Y-59122929D01*
X64255000Y-59138072D01*
X64555000Y-59138072D01*
X64708745Y-59122929D01*
X64856582Y-59078084D01*
X64992829Y-59005258D01*
X65112251Y-58907251D01*
X65210258Y-58787829D01*
X65283084Y-58651582D01*
X65327929Y-58503745D01*
X65343072Y-58350000D01*
X65343072Y-58285000D01*
X67710199Y-58285000D01*
X78150853Y-68725655D01*
X78109488Y-68776058D01*
X78028577Y-68927433D01*
X77978752Y-69091684D01*
X77961928Y-69262500D01*
X77961928Y-69737500D01*
X77978752Y-69908316D01*
X78028577Y-70072567D01*
X78109488Y-70223942D01*
X78218377Y-70356623D01*
X78351058Y-70465512D01*
X78436312Y-70511081D01*
X78355820Y-70535498D01*
X78245506Y-70594463D01*
X78148815Y-70673815D01*
X78069463Y-70770506D01*
X78010498Y-70880820D01*
X77974188Y-71000518D01*
X77961928Y-71125000D01*
X77965000Y-71314250D01*
X78123750Y-71473000D01*
X78998000Y-71473000D01*
X78998000Y-71453000D01*
X79252000Y-71453000D01*
X79252000Y-71473000D01*
X79272000Y-71473000D01*
X79272000Y-71727000D01*
X79252000Y-71727000D01*
X79252000Y-72551250D01*
X79410750Y-72710000D01*
X79650000Y-72713072D01*
X79774482Y-72700812D01*
X79894180Y-72664502D01*
X80004494Y-72605537D01*
X80077161Y-72545901D01*
X80101058Y-72565512D01*
X80252433Y-72646423D01*
X80416684Y-72696248D01*
X80587500Y-72713072D01*
X81162500Y-72713072D01*
X81333316Y-72696248D01*
X81497567Y-72646423D01*
X81648942Y-72565512D01*
X81781623Y-72456623D01*
X81890512Y-72323942D01*
X81971423Y-72172567D01*
X82021248Y-72008316D01*
X82038072Y-71837500D01*
X82038072Y-71362500D01*
X82021248Y-71191684D01*
X81971423Y-71027433D01*
X81890512Y-70876058D01*
X81781623Y-70743377D01*
X81648942Y-70634488D01*
X81635000Y-70627036D01*
X81635000Y-70472964D01*
X81648942Y-70465512D01*
X81781623Y-70356623D01*
X81890512Y-70223942D01*
X81971423Y-70072567D01*
X82021248Y-69908316D01*
X82038072Y-69737500D01*
X82038072Y-69262500D01*
X82021248Y-69091684D01*
X81971423Y-68927433D01*
X81890512Y-68776058D01*
X81781623Y-68643377D01*
X81648942Y-68534488D01*
X81497567Y-68453577D01*
X81333316Y-68403752D01*
X81162500Y-68386928D01*
X80587500Y-68386928D01*
X80416684Y-68403752D01*
X80252433Y-68453577D01*
X80101058Y-68534488D01*
X80000000Y-68617425D01*
X79898942Y-68534488D01*
X79878696Y-68523667D01*
X79874003Y-68476014D01*
X79830546Y-68332753D01*
X79759974Y-68200724D01*
X79688799Y-68113997D01*
X79665001Y-68084999D01*
X79636003Y-68061201D01*
X76049802Y-64475000D01*
X77961928Y-64475000D01*
X77974188Y-64599482D01*
X78010498Y-64719180D01*
X78069463Y-64829494D01*
X78148815Y-64926185D01*
X78245506Y-65005537D01*
X78355820Y-65064502D01*
X78475518Y-65100812D01*
X78600000Y-65113072D01*
X78839250Y-65110000D01*
X78998000Y-64951250D01*
X78998000Y-64127000D01*
X78123750Y-64127000D01*
X77965000Y-64285750D01*
X77961928Y-64475000D01*
X76049802Y-64475000D01*
X68588804Y-57014003D01*
X68565001Y-56984999D01*
X68449276Y-56890026D01*
X68317247Y-56819454D01*
X68173986Y-56775997D01*
X68062333Y-56765000D01*
X68062322Y-56765000D01*
X68025000Y-56761324D01*
X67987678Y-56765000D01*
X65343072Y-56765000D01*
X65343072Y-56700000D01*
X65327929Y-56546255D01*
X65316931Y-56510000D01*
X75435199Y-56510000D01*
X78365000Y-59439802D01*
X78365001Y-61027036D01*
X78351058Y-61034488D01*
X78218377Y-61143377D01*
X78109488Y-61276058D01*
X78028577Y-61427433D01*
X77978752Y-61591684D01*
X77961928Y-61762500D01*
X77961928Y-62237500D01*
X77978752Y-62408316D01*
X78028577Y-62572567D01*
X78109488Y-62723942D01*
X78218377Y-62856623D01*
X78330789Y-62948878D01*
X78245506Y-62994463D01*
X78148815Y-63073815D01*
X78069463Y-63170506D01*
X78010498Y-63280820D01*
X77974188Y-63400518D01*
X77961928Y-63525000D01*
X77965000Y-63714250D01*
X78123750Y-63873000D01*
X78998000Y-63873000D01*
X78998000Y-63853000D01*
X79252000Y-63853000D01*
X79252000Y-63873000D01*
X79272000Y-63873000D01*
X79272000Y-64127000D01*
X79252000Y-64127000D01*
X79252000Y-64951250D01*
X79410750Y-65110000D01*
X79650000Y-65113072D01*
X79774482Y-65100812D01*
X79894180Y-65064502D01*
X80004494Y-65005537D01*
X80077161Y-64945901D01*
X80101058Y-64965512D01*
X80252433Y-65046423D01*
X80416684Y-65096248D01*
X80587500Y-65113072D01*
X81162500Y-65113072D01*
X81333316Y-65096248D01*
X81497567Y-65046423D01*
X81648942Y-64965512D01*
X81781623Y-64856623D01*
X81890512Y-64723942D01*
X81971423Y-64572567D01*
X82021248Y-64408316D01*
X82038072Y-64237500D01*
X82038072Y-63762500D01*
X82021248Y-63591684D01*
X81971423Y-63427433D01*
X81890512Y-63276058D01*
X81781623Y-63143377D01*
X81648942Y-63034488D01*
X81635000Y-63027036D01*
X81635000Y-62972964D01*
X81648942Y-62965512D01*
X81781623Y-62856623D01*
X81890512Y-62723942D01*
X81971423Y-62572567D01*
X82021248Y-62408316D01*
X82038072Y-62237500D01*
X82038072Y-61762500D01*
X82021248Y-61591684D01*
X81971423Y-61427433D01*
X81890512Y-61276058D01*
X81781623Y-61143377D01*
X81648942Y-61034488D01*
X81497567Y-60953577D01*
X81333316Y-60903752D01*
X81162500Y-60886928D01*
X80587500Y-60886928D01*
X80416684Y-60903752D01*
X80252433Y-60953577D01*
X80101058Y-61034488D01*
X80000000Y-61117425D01*
X79898942Y-61034488D01*
X79885000Y-61027036D01*
X79885000Y-59162325D01*
X79888676Y-59125000D01*
X79885000Y-59087675D01*
X79885000Y-59087667D01*
X79874003Y-58976014D01*
X79830546Y-58832753D01*
X79759974Y-58700724D01*
X79665001Y-58584999D01*
X79636004Y-58561202D01*
X76313804Y-55239003D01*
X76290001Y-55209999D01*
X76174276Y-55115026D01*
X76042247Y-55044454D01*
X75898986Y-55000997D01*
X75787333Y-54990000D01*
X75787322Y-54990000D01*
X75750000Y-54986324D01*
X75712678Y-54990000D01*
X62787322Y-54990000D01*
X62749999Y-54986324D01*
X62712677Y-54990000D01*
X62712667Y-54990000D01*
X62601014Y-55000997D01*
X62457753Y-55044454D01*
X62325723Y-55115026D01*
X62242083Y-55183668D01*
X62209999Y-55209999D01*
X62186201Y-55238997D01*
X61470641Y-55954558D01*
X61413418Y-55971916D01*
X61279064Y-56043730D01*
X61249494Y-56019463D01*
X61139180Y-55960498D01*
X61019482Y-55924188D01*
X60895000Y-55911928D01*
X60880750Y-55915000D01*
X60722000Y-56073750D01*
X60722000Y-57398000D01*
X60742000Y-57398000D01*
X60742000Y-57652000D01*
X60722000Y-57652000D01*
X60722000Y-58976250D01*
X60880750Y-59135000D01*
X60895000Y-59138072D01*
X61019482Y-59125812D01*
X61139180Y-59089502D01*
X61249494Y-59030537D01*
X61279064Y-59006270D01*
X61413418Y-59078084D01*
X61561255Y-59122929D01*
X61715000Y-59138072D01*
X62015000Y-59138072D01*
X62168745Y-59122929D01*
X62316582Y-59078084D01*
X62375000Y-59046859D01*
X62375000Y-59050198D01*
X62160209Y-59264990D01*
X58464240Y-59264990D01*
X58451250Y-59252000D01*
X57627000Y-59252000D01*
X57627000Y-59264990D01*
X57373000Y-59264990D01*
X57373000Y-59252000D01*
X56548750Y-59252000D01*
X56535760Y-59264990D01*
X51695115Y-59264990D01*
X51648986Y-59250997D01*
X51500000Y-59236323D01*
X51351014Y-59250997D01*
X51207753Y-59294454D01*
X51161001Y-59319444D01*
X51075724Y-59365026D01*
X50959999Y-59459999D01*
X50936201Y-59488997D01*
X50660000Y-59765198D01*
X50660000Y-58600000D01*
X56386928Y-58600000D01*
X56390000Y-58839250D01*
X56548750Y-58998000D01*
X57373000Y-58998000D01*
X57373000Y-58123750D01*
X57627000Y-58123750D01*
X57627000Y-58998000D01*
X58451250Y-58998000D01*
X58610000Y-58839250D01*
X58613072Y-58600000D01*
X58603224Y-58500000D01*
X59656928Y-58500000D01*
X59669188Y-58624482D01*
X59705498Y-58744180D01*
X59764463Y-58854494D01*
X59843815Y-58951185D01*
X59940506Y-59030537D01*
X60050820Y-59089502D01*
X60170518Y-59125812D01*
X60295000Y-59138072D01*
X60309250Y-59135000D01*
X60468000Y-58976250D01*
X60468000Y-57652000D01*
X59818750Y-57652000D01*
X59660000Y-57810750D01*
X59656928Y-58500000D01*
X58603224Y-58500000D01*
X58600812Y-58475518D01*
X58564502Y-58355820D01*
X58505537Y-58245506D01*
X58426185Y-58148815D01*
X58329494Y-58069463D01*
X58219180Y-58010498D01*
X58099482Y-57974188D01*
X57975000Y-57961928D01*
X57785750Y-57965000D01*
X57627000Y-58123750D01*
X57373000Y-58123750D01*
X57214250Y-57965000D01*
X57025000Y-57961928D01*
X56900518Y-57974188D01*
X56780820Y-58010498D01*
X56670506Y-58069463D01*
X56573815Y-58148815D01*
X56494463Y-58245506D01*
X56435498Y-58355820D01*
X56399188Y-58475518D01*
X56386928Y-58600000D01*
X50660000Y-58600000D01*
X50660000Y-56550000D01*
X59656928Y-56550000D01*
X59660000Y-57239250D01*
X59818750Y-57398000D01*
X60468000Y-57398000D01*
X60468000Y-56073750D01*
X60309250Y-55915000D01*
X60295000Y-55911928D01*
X60170518Y-55924188D01*
X60050820Y-55960498D01*
X59940506Y-56019463D01*
X59843815Y-56098815D01*
X59764463Y-56195506D01*
X59705498Y-56305820D01*
X59669188Y-56425518D01*
X59656928Y-56550000D01*
X50660000Y-56550000D01*
X50660000Y-54800000D01*
X85854670Y-54800000D01*
X85895892Y-55218533D01*
X86017974Y-55620982D01*
X86216223Y-55991881D01*
X86483023Y-56316977D01*
X86808119Y-56583777D01*
X87179018Y-56782026D01*
X87581467Y-56904108D01*
X87895118Y-56935000D01*
X92104882Y-56935000D01*
X92418533Y-56904108D01*
X92820982Y-56782026D01*
X93191881Y-56583777D01*
X93516977Y-56316977D01*
X93783777Y-55991881D01*
X93982026Y-55620982D01*
X94104108Y-55218533D01*
X94145330Y-54800000D01*
X94135001Y-54695119D01*
X143065000Y-54695119D01*
X143065001Y-58904882D01*
X143095893Y-59218533D01*
X143217975Y-59620982D01*
X143416224Y-59991881D01*
X143683024Y-60316977D01*
X144008120Y-60583777D01*
X144379019Y-60782026D01*
X144781468Y-60904108D01*
X145200000Y-60945330D01*
X145618533Y-60904108D01*
X146020982Y-60782026D01*
X146391881Y-60583777D01*
X146716977Y-60316977D01*
X146983777Y-59991881D01*
X147182026Y-59620982D01*
X147304108Y-59218533D01*
X147335000Y-58904882D01*
X147335000Y-54695118D01*
X147304108Y-54381467D01*
X147182026Y-53979018D01*
X146983777Y-53608119D01*
X146716977Y-53283023D01*
X146391881Y-53016223D01*
X146020981Y-52817974D01*
X145618532Y-52695892D01*
X145200000Y-52654670D01*
X144781467Y-52695892D01*
X144379018Y-52817974D01*
X144008119Y-53016223D01*
X143683023Y-53283023D01*
X143416223Y-53608119D01*
X143217974Y-53979019D01*
X143095892Y-54381468D01*
X143065000Y-54695119D01*
X94135001Y-54695119D01*
X94104108Y-54381467D01*
X93982026Y-53979018D01*
X93783777Y-53608119D01*
X93516977Y-53283023D01*
X93191881Y-53016223D01*
X92820982Y-52817974D01*
X92418533Y-52695892D01*
X92104882Y-52665000D01*
X87895118Y-52665000D01*
X87581467Y-52695892D01*
X87179018Y-52817974D01*
X86808119Y-53016223D01*
X86483023Y-53283023D01*
X86216223Y-53608119D01*
X86017974Y-53979018D01*
X85895892Y-54381467D01*
X85854670Y-54800000D01*
X50660000Y-54800000D01*
X50660000Y-52032279D01*
X50688625Y-51740341D01*
X50764035Y-51490571D01*
X50886522Y-51260208D01*
X51051422Y-51058020D01*
X51252450Y-50891714D01*
X51481954Y-50767622D01*
X51731195Y-50690469D01*
X52021088Y-50660000D01*
X147967721Y-50660000D01*
X148259659Y-50688625D01*
X148259659Y-50688625D01*
G37*
X148259659Y-50688625D02*
X148509429Y-50764035D01*
X148739792Y-50886522D01*
X148941980Y-51051422D01*
X149108286Y-51252450D01*
X149232378Y-51481954D01*
X149309531Y-51731195D01*
X149340000Y-52021088D01*
X149340001Y-97967711D01*
X149311375Y-98259660D01*
X149235965Y-98509429D01*
X149113477Y-98739794D01*
X148948579Y-98941979D01*
X148747546Y-99108288D01*
X148518046Y-99232378D01*
X148268805Y-99309531D01*
X147978911Y-99340000D01*
X52032279Y-99340000D01*
X51740340Y-99311375D01*
X51490571Y-99235965D01*
X51260206Y-99113477D01*
X51058021Y-98948579D01*
X50891712Y-98747546D01*
X50767622Y-98518046D01*
X50690469Y-98268805D01*
X50660000Y-97978911D01*
X50660000Y-68956993D01*
X51222612Y-68956993D01*
X51288137Y-69195860D01*
X51535116Y-69311760D01*
X51799960Y-69377250D01*
X52072492Y-69389812D01*
X52342238Y-69348965D01*
X52598832Y-69256277D01*
X52711863Y-69195860D01*
X52777388Y-68956993D01*
X52000000Y-68179605D01*
X51222612Y-68956993D01*
X50660000Y-68956993D01*
X50660000Y-68367056D01*
X50743723Y-68598832D01*
X50804140Y-68711863D01*
X51043007Y-68777388D01*
X51820395Y-68000000D01*
X52179605Y-68000000D01*
X52956993Y-68777388D01*
X53195860Y-68711863D01*
X53311760Y-68464884D01*
X53377250Y-68200040D01*
X53389812Y-67927508D01*
X53348965Y-67657762D01*
X53256277Y-67401168D01*
X53195860Y-67288137D01*
X52956993Y-67222612D01*
X52179605Y-68000000D01*
X51820395Y-68000000D01*
X51043007Y-67222612D01*
X50804140Y-67288137D01*
X50688240Y-67535116D01*
X50660000Y-67649320D01*
X50660000Y-67043007D01*
X51222612Y-67043007D01*
X52000000Y-67820395D01*
X52777388Y-67043007D01*
X52711863Y-66804140D01*
X52464884Y-66688240D01*
X52200040Y-66622750D01*
X51927508Y-66610188D01*
X51657762Y-66651035D01*
X51401168Y-66743723D01*
X51288137Y-66804140D01*
X51222612Y-67043007D01*
X50660000Y-67043007D01*
X50660000Y-65362639D01*
X50668225Y-65403989D01*
X50772629Y-65656043D01*
X50924201Y-65882886D01*
X51117114Y-66075799D01*
X51343957Y-66227371D01*
X51596011Y-66331775D01*
X51863589Y-66385000D01*
X52136411Y-66385000D01*
X52403989Y-66331775D01*
X52656043Y-66227371D01*
X52882886Y-66075799D01*
X53075799Y-65882886D01*
X53227371Y-65656043D01*
X53331775Y-65403989D01*
X53385000Y-65136411D01*
X53385000Y-64863589D01*
X53331775Y-64596011D01*
X53227371Y-64343957D01*
X53075799Y-64117114D01*
X52882886Y-63924201D01*
X52656043Y-63772629D01*
X52403989Y-63668225D01*
X52136411Y-63615000D01*
X51863589Y-63615000D01*
X51718635Y-63643833D01*
X51260000Y-63185199D01*
X51260000Y-63171273D01*
X51343957Y-63227371D01*
X51596011Y-63331775D01*
X51863589Y-63385000D01*
X52136411Y-63385000D01*
X52403989Y-63331775D01*
X52656043Y-63227371D01*
X52882886Y-63075799D01*
X53075799Y-62882886D01*
X53227371Y-62656043D01*
X53331775Y-62403989D01*
X53385000Y-62136411D01*
X53385000Y-61866579D01*
X53491579Y-61760000D01*
X56365000Y-61760000D01*
X56365000Y-62055751D01*
X56365001Y-62055761D01*
X56365000Y-88854249D01*
X56359509Y-88910000D01*
X56365000Y-88965751D01*
X56381423Y-89132498D01*
X56446324Y-89346446D01*
X56551716Y-89543623D01*
X56693551Y-89716449D01*
X56736865Y-89751996D01*
X61756795Y-94771928D01*
X61245000Y-94771928D01*
X61120518Y-94784188D01*
X61000820Y-94820498D01*
X60890506Y-94879463D01*
X60793815Y-94958815D01*
X60714463Y-95055506D01*
X60655498Y-95165820D01*
X60619188Y-95285518D01*
X60606928Y-95410000D01*
X60606928Y-97950000D01*
X60619188Y-98074482D01*
X60655498Y-98194180D01*
X60714463Y-98304494D01*
X60793815Y-98401185D01*
X60890506Y-98480537D01*
X61000820Y-98539502D01*
X61120518Y-98575812D01*
X61245000Y-98588072D01*
X64755000Y-98588072D01*
X64879482Y-98575812D01*
X64999180Y-98539502D01*
X65109494Y-98480537D01*
X65206185Y-98401185D01*
X65285537Y-98304494D01*
X65344502Y-98194180D01*
X65380812Y-98074482D01*
X65393072Y-97950000D01*
X65393072Y-95410000D01*
X65380812Y-95285518D01*
X65344502Y-95165820D01*
X65285537Y-95055506D01*
X65206185Y-94958815D01*
X65109494Y-94879463D01*
X64999180Y-94820498D01*
X64879482Y-94784188D01*
X64755000Y-94771928D01*
X64135000Y-94771928D01*
X64135000Y-94475000D01*
X77961928Y-94475000D01*
X77974188Y-94599482D01*
X78010498Y-94719180D01*
X78069463Y-94829494D01*
X78148815Y-94926185D01*
X78245506Y-95005537D01*
X78355820Y-95064502D01*
X78475518Y-95100812D01*
X78600000Y-95113072D01*
X78839250Y-95110000D01*
X78998000Y-94951250D01*
X78998000Y-94127000D01*
X78123750Y-94127000D01*
X77965000Y-94285750D01*
X77961928Y-94475000D01*
X64135000Y-94475000D01*
X64135000Y-94465752D01*
X64140491Y-94410000D01*
X64118577Y-94187501D01*
X64053676Y-93973553D01*
X63948284Y-93776377D01*
X63841989Y-93646856D01*
X63841987Y-93646854D01*
X63806449Y-93603551D01*
X63763146Y-93568013D01*
X58635000Y-88439869D01*
X58635000Y-63513414D01*
X58663553Y-63528676D01*
X58877501Y-63593577D01*
X59100000Y-63615491D01*
X59155752Y-63610000D01*
X59721416Y-63610000D01*
X59789742Y-63737829D01*
X59887749Y-63857251D01*
X60007171Y-63955258D01*
X60143418Y-64028084D01*
X60291255Y-64072929D01*
X60346799Y-64078400D01*
X59489003Y-64936196D01*
X59459999Y-64959999D01*
X59404871Y-65027174D01*
X59365026Y-65075724D01*
X59346705Y-65110000D01*
X59294454Y-65207754D01*
X59250997Y-65351015D01*
X59240000Y-65462668D01*
X59240000Y-65462678D01*
X59236324Y-65500000D01*
X59240000Y-65537322D01*
X59240001Y-82462667D01*
X59236324Y-82500000D01*
X59250998Y-82648985D01*
X59294454Y-82792246D01*
X59365026Y-82924276D01*
X59407486Y-82976013D01*
X59460000Y-83040001D01*
X59488998Y-83063799D01*
X67988997Y-91563799D01*
X67989002Y-91563803D01*
X68936201Y-92511003D01*
X68959999Y-92540001D01*
X68988997Y-92563799D01*
X69075724Y-92634974D01*
X69207753Y-92705546D01*
X69351014Y-92749003D01*
X69500000Y-92763677D01*
X69537333Y-92760000D01*
X78139080Y-92760000D01*
X78218377Y-92856623D01*
X78330789Y-92948878D01*
X78245506Y-92994463D01*
X78148815Y-93073815D01*
X78069463Y-93170506D01*
X78010498Y-93280820D01*
X77974188Y-93400518D01*
X77961928Y-93525000D01*
X77965000Y-93714250D01*
X78123750Y-93873000D01*
X78998000Y-93873000D01*
X78998000Y-93853000D01*
X79252000Y-93853000D01*
X79252000Y-93873000D01*
X79272000Y-93873000D01*
X79272000Y-94127000D01*
X79252000Y-94127000D01*
X79252000Y-94951250D01*
X79410750Y-95110000D01*
X79650000Y-95113072D01*
X79774482Y-95100812D01*
X79894180Y-95064502D01*
X80004494Y-95005537D01*
X80077161Y-94945901D01*
X80101058Y-94965512D01*
X80252433Y-95046423D01*
X80416684Y-95096248D01*
X80587500Y-95113072D01*
X81162500Y-95113072D01*
X81333316Y-95096248D01*
X81497567Y-95046423D01*
X81648942Y-94965512D01*
X81781623Y-94856623D01*
X81890512Y-94723942D01*
X81971423Y-94572567D01*
X82021248Y-94408316D01*
X82038072Y-94237500D01*
X82038072Y-93762500D01*
X82021248Y-93591684D01*
X81971423Y-93427433D01*
X81890512Y-93276058D01*
X81781623Y-93143377D01*
X81648942Y-93034488D01*
X81635000Y-93027036D01*
X81635000Y-92972964D01*
X81648942Y-92965512D01*
X81781623Y-92856623D01*
X81890512Y-92723942D01*
X81971423Y-92572567D01*
X82021248Y-92408316D01*
X82038072Y-92237500D01*
X82038072Y-91762500D01*
X82021248Y-91591684D01*
X81971423Y-91427433D01*
X81890512Y-91276058D01*
X81781623Y-91143377D01*
X81722821Y-91095119D01*
X143065000Y-91095119D01*
X143065001Y-95304882D01*
X143095893Y-95618533D01*
X143217975Y-96020982D01*
X143416224Y-96391881D01*
X143683024Y-96716977D01*
X144008120Y-96983777D01*
X144379019Y-97182026D01*
X144781468Y-97304108D01*
X145200000Y-97345330D01*
X145618533Y-97304108D01*
X146020982Y-97182026D01*
X146391881Y-96983777D01*
X146716977Y-96716977D01*
X146983777Y-96391881D01*
X147182026Y-96020982D01*
X147304108Y-95618533D01*
X147335000Y-95304882D01*
X147335000Y-91095118D01*
X147304108Y-90781467D01*
X147182026Y-90379018D01*
X146983777Y-90008119D01*
X146716977Y-89683023D01*
X146391881Y-89416223D01*
X146020981Y-89217974D01*
X145618532Y-89095892D01*
X145200000Y-89054670D01*
X144781467Y-89095892D01*
X144379018Y-89217974D01*
X144008119Y-89416223D01*
X143683023Y-89683023D01*
X143416223Y-90008119D01*
X143217974Y-90379019D01*
X143095892Y-90781468D01*
X143065000Y-91095119D01*
X81722821Y-91095119D01*
X81648942Y-91034488D01*
X81497567Y-90953577D01*
X81333316Y-90903752D01*
X81162500Y-90886928D01*
X80587500Y-90886928D01*
X80416684Y-90903752D01*
X80252433Y-90953577D01*
X80101058Y-91034488D01*
X80000000Y-91117425D01*
X79898942Y-91034488D01*
X79747567Y-90953577D01*
X79583316Y-90903752D01*
X79412500Y-90886928D01*
X78837500Y-90886928D01*
X78666684Y-90903752D01*
X78502433Y-90953577D01*
X78351058Y-91034488D01*
X78218377Y-91143377D01*
X78139080Y-91240000D01*
X69814802Y-91240000D01*
X69063803Y-90489002D01*
X69063799Y-90488997D01*
X65649802Y-87075000D01*
X77961928Y-87075000D01*
X77974188Y-87199482D01*
X78010498Y-87319180D01*
X78069463Y-87429494D01*
X78148815Y-87526185D01*
X78245506Y-87605537D01*
X78355820Y-87664502D01*
X78475518Y-87700812D01*
X78600000Y-87713072D01*
X78839250Y-87710000D01*
X78998000Y-87551250D01*
X78998000Y-86727000D01*
X78123750Y-86727000D01*
X77965000Y-86885750D01*
X77961928Y-87075000D01*
X65649802Y-87075000D01*
X60760000Y-82185199D01*
X60760000Y-68999981D01*
X60793815Y-69041185D01*
X60890506Y-69120537D01*
X61000820Y-69179502D01*
X61120518Y-69215812D01*
X61245000Y-69228072D01*
X62714250Y-69225000D01*
X62873000Y-69066250D01*
X62873000Y-67447000D01*
X63127000Y-67447000D01*
X63127000Y-69066250D01*
X63285750Y-69225000D01*
X64755000Y-69228072D01*
X64879482Y-69215812D01*
X64999180Y-69179502D01*
X65109494Y-69120537D01*
X65206185Y-69041185D01*
X65285537Y-68944494D01*
X65344502Y-68834180D01*
X65380812Y-68714482D01*
X65393072Y-68590000D01*
X65390000Y-67605750D01*
X65231250Y-67447000D01*
X63127000Y-67447000D01*
X62873000Y-67447000D01*
X62853000Y-67447000D01*
X62853000Y-67193000D01*
X62873000Y-67193000D01*
X62873000Y-65573750D01*
X62714250Y-65415000D01*
X61245000Y-65411928D01*
X61153901Y-65420900D01*
X62376003Y-64198799D01*
X62377487Y-64197581D01*
X62385997Y-64283985D01*
X62416337Y-64384003D01*
X62429454Y-64427246D01*
X62500026Y-64559276D01*
X62510934Y-64572567D01*
X62594999Y-64675001D01*
X62624003Y-64698804D01*
X62936196Y-65010997D01*
X62959999Y-65040001D01*
X63075724Y-65134974D01*
X63207753Y-65205546D01*
X63351014Y-65249003D01*
X63462667Y-65260000D01*
X63462677Y-65260000D01*
X63500000Y-65263676D01*
X63537323Y-65260000D01*
X64185199Y-65260000D01*
X64337999Y-65412800D01*
X63285750Y-65415000D01*
X63127000Y-65573750D01*
X63127000Y-67193000D01*
X65231250Y-67193000D01*
X65390000Y-67034250D01*
X65391772Y-66466573D01*
X66240001Y-67314803D01*
X66240000Y-70962677D01*
X66236324Y-71000000D01*
X66240000Y-71037322D01*
X66240000Y-71037332D01*
X66250997Y-71148985D01*
X66294454Y-71292246D01*
X66365026Y-71424276D01*
X66404871Y-71472826D01*
X66459999Y-71540001D01*
X66489003Y-71563804D01*
X78365001Y-83439804D01*
X78365001Y-83527036D01*
X78351058Y-83534488D01*
X78218377Y-83643377D01*
X78109488Y-83776058D01*
X78028577Y-83927433D01*
X77978752Y-84091684D01*
X77961928Y-84262500D01*
X77961928Y-84737500D01*
X77978752Y-84908316D01*
X78028577Y-85072567D01*
X78109488Y-85223942D01*
X78218377Y-85356623D01*
X78351058Y-85465512D01*
X78436312Y-85511081D01*
X78355820Y-85535498D01*
X78245506Y-85594463D01*
X78148815Y-85673815D01*
X78069463Y-85770506D01*
X78010498Y-85880820D01*
X77974188Y-86000518D01*
X77961928Y-86125000D01*
X77965000Y-86314250D01*
X78123750Y-86473000D01*
X78998000Y-86473000D01*
X78998000Y-86453000D01*
X79252000Y-86453000D01*
X79252000Y-86473000D01*
X79272000Y-86473000D01*
X79272000Y-86727000D01*
X79252000Y-86727000D01*
X79252000Y-87551250D01*
X79410750Y-87710000D01*
X79650000Y-87713072D01*
X79774482Y-87700812D01*
X79894180Y-87664502D01*
X80004494Y-87605537D01*
X80077161Y-87545901D01*
X80101058Y-87565512D01*
X80252433Y-87646423D01*
X80416684Y-87696248D01*
X80587500Y-87713072D01*
X81162500Y-87713072D01*
X81333316Y-87696248D01*
X81497567Y-87646423D01*
X81648942Y-87565512D01*
X81781623Y-87456623D01*
X81890512Y-87323942D01*
X81971423Y-87172567D01*
X82021248Y-87008316D01*
X82038072Y-86837500D01*
X82038072Y-86362500D01*
X82021248Y-86191684D01*
X81971423Y-86027433D01*
X81890512Y-85876058D01*
X81781623Y-85743377D01*
X81648942Y-85634488D01*
X81635000Y-85627036D01*
X81635000Y-85472964D01*
X81648942Y-85465512D01*
X81781623Y-85356623D01*
X81890512Y-85223942D01*
X81971423Y-85072567D01*
X82021248Y-84908316D01*
X82038072Y-84737500D01*
X82038072Y-84262500D01*
X82021248Y-84091684D01*
X81971423Y-83927433D01*
X81890512Y-83776058D01*
X81781623Y-83643377D01*
X81648942Y-83534488D01*
X81497567Y-83453577D01*
X81333316Y-83403752D01*
X81162500Y-83386928D01*
X80587500Y-83386928D01*
X80416684Y-83403752D01*
X80252433Y-83453577D01*
X80101058Y-83534488D01*
X80000000Y-83617425D01*
X79898942Y-83534488D01*
X79885000Y-83527036D01*
X79885000Y-83162322D01*
X79888676Y-83124999D01*
X79885000Y-83087676D01*
X79885000Y-83087667D01*
X79874003Y-82976014D01*
X79830546Y-82832753D01*
X79759974Y-82700724D01*
X79717513Y-82648985D01*
X79688799Y-82613996D01*
X79688795Y-82613992D01*
X79665001Y-82584999D01*
X79636008Y-82561205D01*
X76549803Y-79475000D01*
X77961928Y-79475000D01*
X77974188Y-79599482D01*
X78010498Y-79719180D01*
X78069463Y-79829494D01*
X78148815Y-79926185D01*
X78245506Y-80005537D01*
X78355820Y-80064502D01*
X78475518Y-80100812D01*
X78600000Y-80113072D01*
X78839250Y-80110000D01*
X78998000Y-79951250D01*
X78998000Y-79127000D01*
X78123750Y-79127000D01*
X77965000Y-79285750D01*
X77961928Y-79475000D01*
X76549803Y-79475000D01*
X67760000Y-70685199D01*
X67760000Y-67037323D01*
X67763676Y-67000000D01*
X67760000Y-66962677D01*
X67760000Y-66962667D01*
X67749003Y-66851014D01*
X67705546Y-66707753D01*
X67675229Y-66651035D01*
X67634974Y-66575723D01*
X67563799Y-66488997D01*
X67540001Y-66459999D01*
X67511003Y-66436201D01*
X65063804Y-63989003D01*
X65040001Y-63959999D01*
X65013527Y-63938272D01*
X65112251Y-63857251D01*
X65210258Y-63737829D01*
X65283084Y-63601582D01*
X65327929Y-63453745D01*
X65343072Y-63300000D01*
X65343072Y-63235000D01*
X66160199Y-63235000D01*
X78365000Y-75439802D01*
X78365000Y-76027036D01*
X78351058Y-76034488D01*
X78218377Y-76143377D01*
X78109488Y-76276058D01*
X78028577Y-76427433D01*
X77978752Y-76591684D01*
X77961928Y-76762500D01*
X77961928Y-77237500D01*
X77978752Y-77408316D01*
X78028577Y-77572567D01*
X78109488Y-77723942D01*
X78218377Y-77856623D01*
X78330789Y-77948878D01*
X78245506Y-77994463D01*
X78148815Y-78073815D01*
X78069463Y-78170506D01*
X78010498Y-78280820D01*
X77974188Y-78400518D01*
X77961928Y-78525000D01*
X77965000Y-78714250D01*
X78123750Y-78873000D01*
X78998000Y-78873000D01*
X78998000Y-78853000D01*
X79252000Y-78853000D01*
X79252000Y-78873000D01*
X79272000Y-78873000D01*
X79272000Y-79127000D01*
X79252000Y-79127000D01*
X79252000Y-79951250D01*
X79410750Y-80110000D01*
X79650000Y-80113072D01*
X79774482Y-80100812D01*
X79894180Y-80064502D01*
X80004494Y-80005537D01*
X80077161Y-79945901D01*
X80101058Y-79965512D01*
X80252433Y-80046423D01*
X80416684Y-80096248D01*
X80587500Y-80113072D01*
X81162500Y-80113072D01*
X81333316Y-80096248D01*
X81497567Y-80046423D01*
X81648942Y-79965512D01*
X81781623Y-79856623D01*
X81890512Y-79723942D01*
X81971423Y-79572567D01*
X82021248Y-79408316D01*
X82038072Y-79237500D01*
X82038072Y-78762500D01*
X82021248Y-78591684D01*
X81971423Y-78427433D01*
X81890512Y-78276058D01*
X81781623Y-78143377D01*
X81648942Y-78034488D01*
X81635000Y-78027036D01*
X81635000Y-77972964D01*
X81648942Y-77965512D01*
X81781623Y-77856623D01*
X81890512Y-77723942D01*
X81971423Y-77572567D01*
X82021248Y-77408316D01*
X82038072Y-77237500D01*
X82038072Y-76762500D01*
X82021248Y-76591684D01*
X81971423Y-76427433D01*
X81890512Y-76276058D01*
X81781623Y-76143377D01*
X81648942Y-76034488D01*
X81497567Y-75953577D01*
X81333316Y-75903752D01*
X81162500Y-75886928D01*
X80587500Y-75886928D01*
X80416684Y-75903752D01*
X80252433Y-75953577D01*
X80101058Y-76034488D01*
X80000000Y-76117425D01*
X79898942Y-76034488D01*
X79885000Y-76027036D01*
X79885000Y-75162333D01*
X79888677Y-75125000D01*
X79874003Y-74976014D01*
X79830546Y-74832753D01*
X79759974Y-74700724D01*
X79688799Y-74613997D01*
X79665001Y-74584999D01*
X79636004Y-74561202D01*
X77149802Y-72075000D01*
X77961928Y-72075000D01*
X77974188Y-72199482D01*
X78010498Y-72319180D01*
X78069463Y-72429494D01*
X78148815Y-72526185D01*
X78245506Y-72605537D01*
X78355820Y-72664502D01*
X78475518Y-72700812D01*
X78600000Y-72713072D01*
X78839250Y-72710000D01*
X78998000Y-72551250D01*
X78998000Y-71727000D01*
X78123750Y-71727000D01*
X77965000Y-71885750D01*
X77961928Y-72075000D01*
X77149802Y-72075000D01*
X67038804Y-61964003D01*
X67015001Y-61934999D01*
X66899276Y-61840026D01*
X66767247Y-61769454D01*
X66623986Y-61725997D01*
X66512333Y-61715000D01*
X66512322Y-61715000D01*
X66475000Y-61711324D01*
X66437678Y-61715000D01*
X65343072Y-61715000D01*
X65343072Y-61650000D01*
X65327929Y-61496255D01*
X65283084Y-61348418D01*
X65210258Y-61212171D01*
X65112251Y-61092749D01*
X64992829Y-60994742D01*
X64856582Y-60921916D01*
X64708745Y-60877071D01*
X64555000Y-60861928D01*
X64255000Y-60861928D01*
X64101255Y-60877071D01*
X63953418Y-60921916D01*
X63817171Y-60994742D01*
X63770000Y-61033454D01*
X63722829Y-60994742D01*
X63586582Y-60921916D01*
X63438745Y-60877071D01*
X63285000Y-60861928D01*
X62985000Y-60861928D01*
X62831255Y-60877071D01*
X62683418Y-60921916D01*
X62547171Y-60994742D01*
X62500000Y-61033454D01*
X62452829Y-60994742D01*
X62316582Y-60921916D01*
X62168745Y-60877071D01*
X62015000Y-60861928D01*
X61715000Y-60861928D01*
X61561255Y-60877071D01*
X61413418Y-60921916D01*
X61277171Y-60994742D01*
X61230000Y-61033454D01*
X61182829Y-60994742D01*
X61046582Y-60921916D01*
X60898745Y-60877071D01*
X60745000Y-60861928D01*
X60445000Y-60861928D01*
X60291255Y-60877071D01*
X60143418Y-60921916D01*
X60007171Y-60994742D01*
X59887749Y-61092749D01*
X59789742Y-61212171D01*
X59721416Y-61340000D01*
X59570133Y-61340000D01*
X59015122Y-60784990D01*
X62437688Y-60784990D01*
X62475010Y-60788666D01*
X62512332Y-60784990D01*
X62512343Y-60784990D01*
X62623996Y-60773993D01*
X62767257Y-60730536D01*
X62899286Y-60659964D01*
X63015011Y-60564991D01*
X63038813Y-60535988D01*
X63646004Y-59928798D01*
X63675001Y-59905001D01*
X63769974Y-59789276D01*
X63840546Y-59657247D01*
X63884003Y-59513986D01*
X63895000Y-59402333D01*
X63895000Y-59402323D01*
X63898676Y-59365000D01*
X63895000Y-59327677D01*
X63895000Y-59046859D01*
X63953418Y-59078084D01*
X64101255Y-59122929D01*
X64255000Y-59138072D01*
X64555000Y-59138072D01*
X64708745Y-59122929D01*
X64856582Y-59078084D01*
X64992829Y-59005258D01*
X65112251Y-58907251D01*
X65210258Y-58787829D01*
X65283084Y-58651582D01*
X65327929Y-58503745D01*
X65343072Y-58350000D01*
X65343072Y-58285000D01*
X67710199Y-58285000D01*
X78150853Y-68725655D01*
X78109488Y-68776058D01*
X78028577Y-68927433D01*
X77978752Y-69091684D01*
X77961928Y-69262500D01*
X77961928Y-69737500D01*
X77978752Y-69908316D01*
X78028577Y-70072567D01*
X78109488Y-70223942D01*
X78218377Y-70356623D01*
X78351058Y-70465512D01*
X78436312Y-70511081D01*
X78355820Y-70535498D01*
X78245506Y-70594463D01*
X78148815Y-70673815D01*
X78069463Y-70770506D01*
X78010498Y-70880820D01*
X77974188Y-71000518D01*
X77961928Y-71125000D01*
X77965000Y-71314250D01*
X78123750Y-71473000D01*
X78998000Y-71473000D01*
X78998000Y-71453000D01*
X79252000Y-71453000D01*
X79252000Y-71473000D01*
X79272000Y-71473000D01*
X79272000Y-71727000D01*
X79252000Y-71727000D01*
X79252000Y-72551250D01*
X79410750Y-72710000D01*
X79650000Y-72713072D01*
X79774482Y-72700812D01*
X79894180Y-72664502D01*
X80004494Y-72605537D01*
X80077161Y-72545901D01*
X80101058Y-72565512D01*
X80252433Y-72646423D01*
X80416684Y-72696248D01*
X80587500Y-72713072D01*
X81162500Y-72713072D01*
X81333316Y-72696248D01*
X81497567Y-72646423D01*
X81648942Y-72565512D01*
X81781623Y-72456623D01*
X81890512Y-72323942D01*
X81971423Y-72172567D01*
X82021248Y-72008316D01*
X82038072Y-71837500D01*
X82038072Y-71362500D01*
X82021248Y-71191684D01*
X81971423Y-71027433D01*
X81890512Y-70876058D01*
X81781623Y-70743377D01*
X81648942Y-70634488D01*
X81635000Y-70627036D01*
X81635000Y-70472964D01*
X81648942Y-70465512D01*
X81781623Y-70356623D01*
X81890512Y-70223942D01*
X81971423Y-70072567D01*
X82021248Y-69908316D01*
X82038072Y-69737500D01*
X82038072Y-69262500D01*
X82021248Y-69091684D01*
X81971423Y-68927433D01*
X81890512Y-68776058D01*
X81781623Y-68643377D01*
X81648942Y-68534488D01*
X81497567Y-68453577D01*
X81333316Y-68403752D01*
X81162500Y-68386928D01*
X80587500Y-68386928D01*
X80416684Y-68403752D01*
X80252433Y-68453577D01*
X80101058Y-68534488D01*
X80000000Y-68617425D01*
X79898942Y-68534488D01*
X79878696Y-68523667D01*
X79874003Y-68476014D01*
X79830546Y-68332753D01*
X79759974Y-68200724D01*
X79688799Y-68113997D01*
X79665001Y-68084999D01*
X79636003Y-68061201D01*
X76049802Y-64475000D01*
X77961928Y-64475000D01*
X77974188Y-64599482D01*
X78010498Y-64719180D01*
X78069463Y-64829494D01*
X78148815Y-64926185D01*
X78245506Y-65005537D01*
X78355820Y-65064502D01*
X78475518Y-65100812D01*
X78600000Y-65113072D01*
X78839250Y-65110000D01*
X78998000Y-64951250D01*
X78998000Y-64127000D01*
X78123750Y-64127000D01*
X77965000Y-64285750D01*
X77961928Y-64475000D01*
X76049802Y-64475000D01*
X68588804Y-57014003D01*
X68565001Y-56984999D01*
X68449276Y-56890026D01*
X68317247Y-56819454D01*
X68173986Y-56775997D01*
X68062333Y-56765000D01*
X68062322Y-56765000D01*
X68025000Y-56761324D01*
X67987678Y-56765000D01*
X65343072Y-56765000D01*
X65343072Y-56700000D01*
X65327929Y-56546255D01*
X65316931Y-56510000D01*
X75435199Y-56510000D01*
X78365000Y-59439802D01*
X78365001Y-61027036D01*
X78351058Y-61034488D01*
X78218377Y-61143377D01*
X78109488Y-61276058D01*
X78028577Y-61427433D01*
X77978752Y-61591684D01*
X77961928Y-61762500D01*
X77961928Y-62237500D01*
X77978752Y-62408316D01*
X78028577Y-62572567D01*
X78109488Y-62723942D01*
X78218377Y-62856623D01*
X78330789Y-62948878D01*
X78245506Y-62994463D01*
X78148815Y-63073815D01*
X78069463Y-63170506D01*
X78010498Y-63280820D01*
X77974188Y-63400518D01*
X77961928Y-63525000D01*
X77965000Y-63714250D01*
X78123750Y-63873000D01*
X78998000Y-63873000D01*
X78998000Y-63853000D01*
X79252000Y-63853000D01*
X79252000Y-63873000D01*
X79272000Y-63873000D01*
X79272000Y-64127000D01*
X79252000Y-64127000D01*
X79252000Y-64951250D01*
X79410750Y-65110000D01*
X79650000Y-65113072D01*
X79774482Y-65100812D01*
X79894180Y-65064502D01*
X80004494Y-65005537D01*
X80077161Y-64945901D01*
X80101058Y-64965512D01*
X80252433Y-65046423D01*
X80416684Y-65096248D01*
X80587500Y-65113072D01*
X81162500Y-65113072D01*
X81333316Y-65096248D01*
X81497567Y-65046423D01*
X81648942Y-64965512D01*
X81781623Y-64856623D01*
X81890512Y-64723942D01*
X81971423Y-64572567D01*
X82021248Y-64408316D01*
X82038072Y-64237500D01*
X82038072Y-63762500D01*
X82021248Y-63591684D01*
X81971423Y-63427433D01*
X81890512Y-63276058D01*
X81781623Y-63143377D01*
X81648942Y-63034488D01*
X81635000Y-63027036D01*
X81635000Y-62972964D01*
X81648942Y-62965512D01*
X81781623Y-62856623D01*
X81890512Y-62723942D01*
X81971423Y-62572567D01*
X82021248Y-62408316D01*
X82038072Y-62237500D01*
X82038072Y-61762500D01*
X82021248Y-61591684D01*
X81971423Y-61427433D01*
X81890512Y-61276058D01*
X81781623Y-61143377D01*
X81648942Y-61034488D01*
X81497567Y-60953577D01*
X81333316Y-60903752D01*
X81162500Y-60886928D01*
X80587500Y-60886928D01*
X80416684Y-60903752D01*
X80252433Y-60953577D01*
X80101058Y-61034488D01*
X80000000Y-61117425D01*
X79898942Y-61034488D01*
X79885000Y-61027036D01*
X79885000Y-59162325D01*
X79888676Y-59125000D01*
X79885000Y-59087675D01*
X79885000Y-59087667D01*
X79874003Y-58976014D01*
X79830546Y-58832753D01*
X79759974Y-58700724D01*
X79665001Y-58584999D01*
X79636004Y-58561202D01*
X76313804Y-55239003D01*
X76290001Y-55209999D01*
X76174276Y-55115026D01*
X76042247Y-55044454D01*
X75898986Y-55000997D01*
X75787333Y-54990000D01*
X75787322Y-54990000D01*
X75750000Y-54986324D01*
X75712678Y-54990000D01*
X62787322Y-54990000D01*
X62749999Y-54986324D01*
X62712677Y-54990000D01*
X62712667Y-54990000D01*
X62601014Y-55000997D01*
X62457753Y-55044454D01*
X62325723Y-55115026D01*
X62242083Y-55183668D01*
X62209999Y-55209999D01*
X62186201Y-55238997D01*
X61470641Y-55954558D01*
X61413418Y-55971916D01*
X61279064Y-56043730D01*
X61249494Y-56019463D01*
X61139180Y-55960498D01*
X61019482Y-55924188D01*
X60895000Y-55911928D01*
X60880750Y-55915000D01*
X60722000Y-56073750D01*
X60722000Y-57398000D01*
X60742000Y-57398000D01*
X60742000Y-57652000D01*
X60722000Y-57652000D01*
X60722000Y-58976250D01*
X60880750Y-59135000D01*
X60895000Y-59138072D01*
X61019482Y-59125812D01*
X61139180Y-59089502D01*
X61249494Y-59030537D01*
X61279064Y-59006270D01*
X61413418Y-59078084D01*
X61561255Y-59122929D01*
X61715000Y-59138072D01*
X62015000Y-59138072D01*
X62168745Y-59122929D01*
X62316582Y-59078084D01*
X62375000Y-59046859D01*
X62375000Y-59050198D01*
X62160209Y-59264990D01*
X58464240Y-59264990D01*
X58451250Y-59252000D01*
X57627000Y-59252000D01*
X57627000Y-59264990D01*
X57373000Y-59264990D01*
X57373000Y-59252000D01*
X56548750Y-59252000D01*
X56535760Y-59264990D01*
X51695115Y-59264990D01*
X51648986Y-59250997D01*
X51500000Y-59236323D01*
X51351014Y-59250997D01*
X51207753Y-59294454D01*
X51161001Y-59319444D01*
X51075724Y-59365026D01*
X50959999Y-59459999D01*
X50936201Y-59488997D01*
X50660000Y-59765198D01*
X50660000Y-58600000D01*
X56386928Y-58600000D01*
X56390000Y-58839250D01*
X56548750Y-58998000D01*
X57373000Y-58998000D01*
X57373000Y-58123750D01*
X57627000Y-58123750D01*
X57627000Y-58998000D01*
X58451250Y-58998000D01*
X58610000Y-58839250D01*
X58613072Y-58600000D01*
X58603224Y-58500000D01*
X59656928Y-58500000D01*
X59669188Y-58624482D01*
X59705498Y-58744180D01*
X59764463Y-58854494D01*
X59843815Y-58951185D01*
X59940506Y-59030537D01*
X60050820Y-59089502D01*
X60170518Y-59125812D01*
X60295000Y-59138072D01*
X60309250Y-59135000D01*
X60468000Y-58976250D01*
X60468000Y-57652000D01*
X59818750Y-57652000D01*
X59660000Y-57810750D01*
X59656928Y-58500000D01*
X58603224Y-58500000D01*
X58600812Y-58475518D01*
X58564502Y-58355820D01*
X58505537Y-58245506D01*
X58426185Y-58148815D01*
X58329494Y-58069463D01*
X58219180Y-58010498D01*
X58099482Y-57974188D01*
X57975000Y-57961928D01*
X57785750Y-57965000D01*
X57627000Y-58123750D01*
X57373000Y-58123750D01*
X57214250Y-57965000D01*
X57025000Y-57961928D01*
X56900518Y-57974188D01*
X56780820Y-58010498D01*
X56670506Y-58069463D01*
X56573815Y-58148815D01*
X56494463Y-58245506D01*
X56435498Y-58355820D01*
X56399188Y-58475518D01*
X56386928Y-58600000D01*
X50660000Y-58600000D01*
X50660000Y-56550000D01*
X59656928Y-56550000D01*
X59660000Y-57239250D01*
X59818750Y-57398000D01*
X60468000Y-57398000D01*
X60468000Y-56073750D01*
X60309250Y-55915000D01*
X60295000Y-55911928D01*
X60170518Y-55924188D01*
X60050820Y-55960498D01*
X59940506Y-56019463D01*
X59843815Y-56098815D01*
X59764463Y-56195506D01*
X59705498Y-56305820D01*
X59669188Y-56425518D01*
X59656928Y-56550000D01*
X50660000Y-56550000D01*
X50660000Y-54800000D01*
X85854670Y-54800000D01*
X85895892Y-55218533D01*
X86017974Y-55620982D01*
X86216223Y-55991881D01*
X86483023Y-56316977D01*
X86808119Y-56583777D01*
X87179018Y-56782026D01*
X87581467Y-56904108D01*
X87895118Y-56935000D01*
X92104882Y-56935000D01*
X92418533Y-56904108D01*
X92820982Y-56782026D01*
X93191881Y-56583777D01*
X93516977Y-56316977D01*
X93783777Y-55991881D01*
X93982026Y-55620982D01*
X94104108Y-55218533D01*
X94145330Y-54800000D01*
X94135001Y-54695119D01*
X143065000Y-54695119D01*
X143065001Y-58904882D01*
X143095893Y-59218533D01*
X143217975Y-59620982D01*
X143416224Y-59991881D01*
X143683024Y-60316977D01*
X144008120Y-60583777D01*
X144379019Y-60782026D01*
X144781468Y-60904108D01*
X145200000Y-60945330D01*
X145618533Y-60904108D01*
X146020982Y-60782026D01*
X146391881Y-60583777D01*
X146716977Y-60316977D01*
X146983777Y-59991881D01*
X147182026Y-59620982D01*
X147304108Y-59218533D01*
X147335000Y-58904882D01*
X147335000Y-54695118D01*
X147304108Y-54381467D01*
X147182026Y-53979018D01*
X146983777Y-53608119D01*
X146716977Y-53283023D01*
X146391881Y-53016223D01*
X146020981Y-52817974D01*
X145618532Y-52695892D01*
X145200000Y-52654670D01*
X144781467Y-52695892D01*
X144379018Y-52817974D01*
X144008119Y-53016223D01*
X143683023Y-53283023D01*
X143416223Y-53608119D01*
X143217974Y-53979019D01*
X143095892Y-54381468D01*
X143065000Y-54695119D01*
X94135001Y-54695119D01*
X94104108Y-54381467D01*
X93982026Y-53979018D01*
X93783777Y-53608119D01*
X93516977Y-53283023D01*
X93191881Y-53016223D01*
X92820982Y-52817974D01*
X92418533Y-52695892D01*
X92104882Y-52665000D01*
X87895118Y-52665000D01*
X87581467Y-52695892D01*
X87179018Y-52817974D01*
X86808119Y-53016223D01*
X86483023Y-53283023D01*
X86216223Y-53608119D01*
X86017974Y-53979018D01*
X85895892Y-54381467D01*
X85854670Y-54800000D01*
X50660000Y-54800000D01*
X50660000Y-52032279D01*
X50688625Y-51740341D01*
X50764035Y-51490571D01*
X50886522Y-51260208D01*
X51051422Y-51058020D01*
X51252450Y-50891714D01*
X51481954Y-50767622D01*
X51731195Y-50690469D01*
X52021088Y-50660000D01*
X147967721Y-50660000D01*
X148259659Y-50688625D01*
M02*
