G04 #@! TF.GenerationSoftware,KiCad,Pcbnew,(5.1.4)-1*
G04 #@! TF.CreationDate,2020-07-15T08:52:25-04:00*
G04 #@! TF.ProjectId,LoquatiousOfBored,4c6f7175-6174-4696-9f75-734f66426f72,rev?*
G04 #@! TF.SameCoordinates,Original*
G04 #@! TF.FileFunction,Legend,Top*
G04 #@! TF.FilePolarity,Positive*
%FSLAX46Y46*%
G04 Gerber Fmt 4.6, Leading zero omitted, Abs format (unit mm)*
G04 Created by KiCad (PCBNEW (5.1.4)-1) date 2020-07-15 08:52:25*
%MOMM*%
%LPD*%
G04 APERTURE LIST*
%ADD10C,0.150000*%
%ADD11C,0.100000*%
%ADD12C,0.010000*%
%ADD13C,0.120000*%
G04 APERTURE END LIST*
D10*
X53428571Y-52250000D02*
X53285714Y-52178571D01*
X53071428Y-52178571D01*
X52857142Y-52250000D01*
X52714285Y-52392857D01*
X52642857Y-52535714D01*
X52571428Y-52821428D01*
X52571428Y-53035714D01*
X52642857Y-53321428D01*
X52714285Y-53464285D01*
X52857142Y-53607142D01*
X53071428Y-53678571D01*
X53214285Y-53678571D01*
X53428571Y-53607142D01*
X53500000Y-53535714D01*
X53500000Y-53035714D01*
X53214285Y-53035714D01*
X54785714Y-53678571D02*
X54785714Y-52892857D01*
X54714285Y-52750000D01*
X54571428Y-52678571D01*
X54285714Y-52678571D01*
X54142857Y-52750000D01*
X54785714Y-53607142D02*
X54642857Y-53678571D01*
X54285714Y-53678571D01*
X54142857Y-53607142D01*
X54071428Y-53464285D01*
X54071428Y-53321428D01*
X54142857Y-53178571D01*
X54285714Y-53107142D01*
X54642857Y-53107142D01*
X54785714Y-53035714D01*
X55500000Y-53678571D02*
X55500000Y-52678571D01*
X55500000Y-52178571D02*
X55428571Y-52250000D01*
X55500000Y-52321428D01*
X55571428Y-52250000D01*
X55500000Y-52178571D01*
X55500000Y-52321428D01*
X56214285Y-52678571D02*
X56214285Y-53678571D01*
X56214285Y-52821428D02*
X56285714Y-52750000D01*
X56428571Y-52678571D01*
X56642857Y-52678571D01*
X56785714Y-52750000D01*
X56857142Y-52892857D01*
X56857142Y-53678571D01*
X58142857Y-53607142D02*
X58000000Y-53678571D01*
X57714285Y-53678571D01*
X57571428Y-53607142D01*
X57500000Y-53464285D01*
X57500000Y-52892857D01*
X57571428Y-52750000D01*
X57714285Y-52678571D01*
X58000000Y-52678571D01*
X58142857Y-52750000D01*
X58214285Y-52892857D01*
X58214285Y-53035714D01*
X57500000Y-53178571D01*
X58785714Y-53607142D02*
X58928571Y-53678571D01*
X59214285Y-53678571D01*
X59357142Y-53607142D01*
X59428571Y-53464285D01*
X59428571Y-53392857D01*
X59357142Y-53250000D01*
X59214285Y-53178571D01*
X59000000Y-53178571D01*
X58857142Y-53107142D01*
X58785714Y-52964285D01*
X58785714Y-52892857D01*
X58857142Y-52750000D01*
X59000000Y-52678571D01*
X59214285Y-52678571D01*
X59357142Y-52750000D01*
X59928571Y-52678571D02*
X60285714Y-53678571D01*
X60642857Y-52678571D01*
X61214285Y-53678571D02*
X61214285Y-52678571D01*
X61214285Y-52178571D02*
X61142857Y-52250000D01*
X61214285Y-52321428D01*
X61285714Y-52250000D01*
X61214285Y-52178571D01*
X61214285Y-52321428D01*
X62142857Y-53678571D02*
X62000000Y-53607142D01*
X61928571Y-53464285D01*
X61928571Y-52178571D01*
X62928571Y-53678571D02*
X62785714Y-53607142D01*
X62714285Y-53464285D01*
X62714285Y-52178571D01*
X64071428Y-53607142D02*
X63928571Y-53678571D01*
X63642857Y-53678571D01*
X63500000Y-53607142D01*
X63428571Y-53464285D01*
X63428571Y-52892857D01*
X63500000Y-52750000D01*
X63642857Y-52678571D01*
X63928571Y-52678571D01*
X64071428Y-52750000D01*
X64142857Y-52892857D01*
X64142857Y-53035714D01*
X63428571Y-53178571D01*
X65928571Y-53678571D02*
X65928571Y-52178571D01*
X65928571Y-52892857D02*
X66785714Y-52892857D01*
X66785714Y-53678571D02*
X66785714Y-52178571D01*
X68142857Y-53678571D02*
X68142857Y-52892857D01*
X68071428Y-52750000D01*
X67928571Y-52678571D01*
X67642857Y-52678571D01*
X67500000Y-52750000D01*
X68142857Y-53607142D02*
X68000000Y-53678571D01*
X67642857Y-53678571D01*
X67500000Y-53607142D01*
X67428571Y-53464285D01*
X67428571Y-53321428D01*
X67500000Y-53178571D01*
X67642857Y-53107142D01*
X68000000Y-53107142D01*
X68142857Y-53035714D01*
X69500000Y-53607142D02*
X69357142Y-53678571D01*
X69071428Y-53678571D01*
X68928571Y-53607142D01*
X68857142Y-53535714D01*
X68785714Y-53392857D01*
X68785714Y-52964285D01*
X68857142Y-52821428D01*
X68928571Y-52750000D01*
X69071428Y-52678571D01*
X69357142Y-52678571D01*
X69500000Y-52750000D01*
X70142857Y-53678571D02*
X70142857Y-52178571D01*
X70285714Y-53107142D02*
X70714285Y-53678571D01*
X70714285Y-52678571D02*
X70142857Y-53250000D01*
X71928571Y-53607142D02*
X71785714Y-53678571D01*
X71500000Y-53678571D01*
X71357142Y-53607142D01*
X71285714Y-53464285D01*
X71285714Y-52892857D01*
X71357142Y-52750000D01*
X71500000Y-52678571D01*
X71785714Y-52678571D01*
X71928571Y-52750000D01*
X72000000Y-52892857D01*
X72000000Y-53035714D01*
X71285714Y-53178571D01*
X72642857Y-53678571D02*
X72642857Y-52678571D01*
X72642857Y-52964285D02*
X72714285Y-52821428D01*
X72785714Y-52750000D01*
X72928571Y-52678571D01*
X73071428Y-52678571D01*
X73500000Y-53607142D02*
X73642857Y-53678571D01*
X73928571Y-53678571D01*
X74071428Y-53607142D01*
X74142857Y-53464285D01*
X74142857Y-53392857D01*
X74071428Y-53250000D01*
X73928571Y-53178571D01*
X73714285Y-53178571D01*
X73571428Y-53107142D01*
X73500000Y-52964285D01*
X73500000Y-52892857D01*
X73571428Y-52750000D01*
X73714285Y-52678571D01*
X73928571Y-52678571D01*
X74071428Y-52750000D01*
X74785714Y-52678571D02*
X74785714Y-54178571D01*
X74785714Y-52750000D02*
X74928571Y-52678571D01*
X75214285Y-52678571D01*
X75357142Y-52750000D01*
X75428571Y-52821428D01*
X75500000Y-52964285D01*
X75500000Y-53392857D01*
X75428571Y-53535714D01*
X75357142Y-53607142D01*
X75214285Y-53678571D01*
X74928571Y-53678571D01*
X74785714Y-53607142D01*
X76785714Y-53678571D02*
X76785714Y-52892857D01*
X76714285Y-52750000D01*
X76571428Y-52678571D01*
X76285714Y-52678571D01*
X76142857Y-52750000D01*
X76785714Y-53607142D02*
X76642857Y-53678571D01*
X76285714Y-53678571D01*
X76142857Y-53607142D01*
X76071428Y-53464285D01*
X76071428Y-53321428D01*
X76142857Y-53178571D01*
X76285714Y-53107142D01*
X76642857Y-53107142D01*
X76785714Y-53035714D01*
X78142857Y-53607142D02*
X78000000Y-53678571D01*
X77714285Y-53678571D01*
X77571428Y-53607142D01*
X77500000Y-53535714D01*
X77428571Y-53392857D01*
X77428571Y-52964285D01*
X77500000Y-52821428D01*
X77571428Y-52750000D01*
X77714285Y-52678571D01*
X78000000Y-52678571D01*
X78142857Y-52750000D01*
X79357142Y-53607142D02*
X79214285Y-53678571D01*
X78928571Y-53678571D01*
X78785714Y-53607142D01*
X78714285Y-53464285D01*
X78714285Y-52892857D01*
X78785714Y-52750000D01*
X78928571Y-52678571D01*
X79214285Y-52678571D01*
X79357142Y-52750000D01*
X79428571Y-52892857D01*
X79428571Y-53035714D01*
X78714285Y-53178571D01*
D11*
X53285714Y-81676190D02*
X53323809Y-81714285D01*
X53361904Y-81828571D01*
X53361904Y-81904761D01*
X53323809Y-82019047D01*
X53247619Y-82095238D01*
X53171428Y-82133333D01*
X53019047Y-82171428D01*
X52904761Y-82171428D01*
X52752380Y-82133333D01*
X52676190Y-82095238D01*
X52600000Y-82019047D01*
X52561904Y-81904761D01*
X52561904Y-81828571D01*
X52600000Y-81714285D01*
X52638095Y-81676190D01*
X53361904Y-80876190D02*
X52980952Y-81142857D01*
X53361904Y-81333333D02*
X52561904Y-81333333D01*
X52561904Y-81028571D01*
X52600000Y-80952380D01*
X52638095Y-80914285D01*
X52714285Y-80876190D01*
X52828571Y-80876190D01*
X52904761Y-80914285D01*
X52942857Y-80952380D01*
X52980952Y-81028571D01*
X52980952Y-81333333D01*
X52638095Y-80571428D02*
X52600000Y-80533333D01*
X52561904Y-80457142D01*
X52561904Y-80266666D01*
X52600000Y-80190476D01*
X52638095Y-80152380D01*
X52714285Y-80114285D01*
X52790476Y-80114285D01*
X52904761Y-80152380D01*
X53361904Y-80609523D01*
X53361904Y-80114285D01*
X52561904Y-79619047D02*
X52561904Y-79542857D01*
X52600000Y-79466666D01*
X52638095Y-79428571D01*
X52714285Y-79390476D01*
X52866666Y-79352380D01*
X53057142Y-79352380D01*
X53209523Y-79390476D01*
X53285714Y-79428571D01*
X53323809Y-79466666D01*
X53361904Y-79542857D01*
X53361904Y-79619047D01*
X53323809Y-79695238D01*
X53285714Y-79733333D01*
X53209523Y-79771428D01*
X53057142Y-79809523D01*
X52866666Y-79809523D01*
X52714285Y-79771428D01*
X52638095Y-79733333D01*
X52600000Y-79695238D01*
X52561904Y-79619047D01*
X52561904Y-79085714D02*
X52561904Y-78590476D01*
X52866666Y-78857142D01*
X52866666Y-78742857D01*
X52904761Y-78666666D01*
X52942857Y-78628571D01*
X53019047Y-78590476D01*
X53209523Y-78590476D01*
X53285714Y-78628571D01*
X53323809Y-78666666D01*
X53361904Y-78742857D01*
X53361904Y-78971428D01*
X53323809Y-79047619D01*
X53285714Y-79085714D01*
X52638095Y-78285714D02*
X52600000Y-78247619D01*
X52561904Y-78171428D01*
X52561904Y-77980952D01*
X52600000Y-77904761D01*
X52638095Y-77866666D01*
X52714285Y-77828571D01*
X52790476Y-77828571D01*
X52904761Y-77866666D01*
X53361904Y-78323809D01*
X53361904Y-77828571D01*
X51600000Y-98450000D02*
X51566666Y-98483333D01*
X51466666Y-98516666D01*
X51400000Y-98516666D01*
X51300000Y-98483333D01*
X51233333Y-98416666D01*
X51200000Y-98350000D01*
X51166666Y-98216666D01*
X51166666Y-98116666D01*
X51200000Y-97983333D01*
X51233333Y-97916666D01*
X51300000Y-97850000D01*
X51400000Y-97816666D01*
X51466666Y-97816666D01*
X51566666Y-97850000D01*
X51600000Y-97883333D01*
X51900000Y-98516666D02*
X51900000Y-97816666D01*
X52200000Y-98483333D02*
X52300000Y-98516666D01*
X52466666Y-98516666D01*
X52533333Y-98483333D01*
X52566666Y-98450000D01*
X52600000Y-98383333D01*
X52600000Y-98316666D01*
X52566666Y-98250000D01*
X52533333Y-98216666D01*
X52466666Y-98183333D01*
X52333333Y-98150000D01*
X52266666Y-98116666D01*
X52233333Y-98083333D01*
X52200000Y-98016666D01*
X52200000Y-97950000D01*
X52233333Y-97883333D01*
X52266666Y-97850000D01*
X52333333Y-97816666D01*
X52500000Y-97816666D01*
X52600000Y-97850000D01*
X52933333Y-98483333D02*
X52933333Y-98516666D01*
X52900000Y-98583333D01*
X52866666Y-98616666D01*
X53766666Y-98516666D02*
X53766666Y-97816666D01*
X54100000Y-98050000D02*
X54100000Y-98516666D01*
X54100000Y-98116666D02*
X54133333Y-98083333D01*
X54200000Y-98050000D01*
X54300000Y-98050000D01*
X54366666Y-98083333D01*
X54400000Y-98150000D01*
X54400000Y-98516666D01*
X55033333Y-98483333D02*
X54966666Y-98516666D01*
X54833333Y-98516666D01*
X54766666Y-98483333D01*
X54733333Y-98450000D01*
X54700000Y-98383333D01*
X54700000Y-98183333D01*
X54733333Y-98116666D01*
X54766666Y-98083333D01*
X54833333Y-98050000D01*
X54966666Y-98050000D01*
X55033333Y-98083333D01*
X55333333Y-98450000D02*
X55366666Y-98483333D01*
X55333333Y-98516666D01*
X55300000Y-98483333D01*
X55333333Y-98450000D01*
X55333333Y-98516666D01*
X56766666Y-97983333D02*
X56700000Y-97950000D01*
X56566666Y-97950000D01*
X56500000Y-97983333D01*
X56433333Y-98050000D01*
X56400000Y-98116666D01*
X56400000Y-98250000D01*
X56433333Y-98316666D01*
X56500000Y-98383333D01*
X56566666Y-98416666D01*
X56700000Y-98416666D01*
X56766666Y-98383333D01*
X56633333Y-97716666D02*
X56466666Y-97750000D01*
X56300000Y-97850000D01*
X56200000Y-98016666D01*
X56166666Y-98183333D01*
X56200000Y-98350000D01*
X56300000Y-98516666D01*
X56466666Y-98616666D01*
X56633333Y-98650000D01*
X56800000Y-98616666D01*
X56966666Y-98516666D01*
X57066666Y-98350000D01*
X57100000Y-98183333D01*
X57066666Y-98016666D01*
X56966666Y-97850000D01*
X56800000Y-97750000D01*
X56633333Y-97716666D01*
X57400000Y-98516666D02*
X57400000Y-97816666D01*
X57633333Y-98316666D01*
X57866666Y-97816666D01*
X57866666Y-98516666D01*
X58200000Y-98516666D02*
X58200000Y-97816666D01*
X58433333Y-98316666D01*
X58666666Y-97816666D01*
X58666666Y-98516666D01*
X58933333Y-97816666D02*
X59400000Y-98516666D01*
X59400000Y-97816666D02*
X58933333Y-98516666D01*
X59600000Y-97816666D02*
X60066666Y-98516666D01*
X60066666Y-97816666D02*
X59600000Y-98516666D01*
X54209523Y-67600000D02*
X54133333Y-67561904D01*
X54019047Y-67561904D01*
X53904761Y-67600000D01*
X53828571Y-67676190D01*
X53790476Y-67752380D01*
X53752380Y-67904761D01*
X53752380Y-68019047D01*
X53790476Y-68171428D01*
X53828571Y-68247619D01*
X53904761Y-68323809D01*
X54019047Y-68361904D01*
X54095238Y-68361904D01*
X54209523Y-68323809D01*
X54247619Y-68285714D01*
X54247619Y-68019047D01*
X54095238Y-68019047D01*
X53771428Y-64561904D02*
X53771428Y-65209523D01*
X53809523Y-65285714D01*
X53847619Y-65323809D01*
X53923809Y-65361904D01*
X54076190Y-65361904D01*
X54152380Y-65323809D01*
X54190476Y-65285714D01*
X54228571Y-65209523D01*
X54228571Y-64561904D01*
X53733333Y-61561904D02*
X54000000Y-62361904D01*
X54266666Y-61561904D01*
D12*
G36*
X60399570Y-57008012D02*
G01*
X60793885Y-57085144D01*
X61012510Y-57241191D01*
X61081450Y-57486185D01*
X61081481Y-57492778D01*
X60996665Y-57739362D01*
X60905093Y-57845556D01*
X60754149Y-58077732D01*
X60728704Y-58212732D01*
X60676600Y-58395856D01*
X60611111Y-58433518D01*
X60515569Y-58335029D01*
X60493518Y-58198333D01*
X60464214Y-58060006D01*
X60338450Y-57989626D01*
X60059454Y-57965672D01*
X59876157Y-57964289D01*
X59583691Y-57970701D01*
X59367339Y-58010616D01*
X59172654Y-58116986D01*
X58945188Y-58322761D01*
X58630494Y-58660894D01*
X58516027Y-58787437D01*
X58091280Y-59230673D01*
X57769817Y-59494754D01*
X57522628Y-59594973D01*
X57320701Y-59546624D01*
X57224444Y-59468333D01*
X57117907Y-59313339D01*
X57114101Y-59132041D01*
X57229584Y-58892816D01*
X57480914Y-58564043D01*
X57884650Y-58114099D01*
X57995527Y-57995755D01*
X58906018Y-57028825D01*
X59803558Y-56999762D01*
X60399570Y-57008012D01*
X60399570Y-57008012D01*
G37*
X60399570Y-57008012D02*
X60793885Y-57085144D01*
X61012510Y-57241191D01*
X61081450Y-57486185D01*
X61081481Y-57492778D01*
X60996665Y-57739362D01*
X60905093Y-57845556D01*
X60754149Y-58077732D01*
X60728704Y-58212732D01*
X60676600Y-58395856D01*
X60611111Y-58433518D01*
X60515569Y-58335029D01*
X60493518Y-58198333D01*
X60464214Y-58060006D01*
X60338450Y-57989626D01*
X60059454Y-57965672D01*
X59876157Y-57964289D01*
X59583691Y-57970701D01*
X59367339Y-58010616D01*
X59172654Y-58116986D01*
X58945188Y-58322761D01*
X58630494Y-58660894D01*
X58516027Y-58787437D01*
X58091280Y-59230673D01*
X57769817Y-59494754D01*
X57522628Y-59594973D01*
X57320701Y-59546624D01*
X57224444Y-59468333D01*
X57117907Y-59313339D01*
X57114101Y-59132041D01*
X57229584Y-58892816D01*
X57480914Y-58564043D01*
X57884650Y-58114099D01*
X57995527Y-57995755D01*
X58906018Y-57028825D01*
X59803558Y-56999762D01*
X60399570Y-57008012D01*
G36*
X77523301Y-57365213D02*
G01*
X79190741Y-59119131D01*
X79190741Y-60599010D01*
X79181742Y-61238689D01*
X79156085Y-61714793D01*
X79115780Y-62002029D01*
X79073148Y-62078889D01*
X79021790Y-61965859D01*
X78983152Y-61644556D01*
X78959462Y-61141655D01*
X78952791Y-60638380D01*
X78950026Y-59197870D01*
X77335892Y-57517215D01*
X75721759Y-55836559D01*
X69234650Y-55841520D01*
X62747540Y-55846481D01*
X62384881Y-56304376D01*
X62107020Y-56757851D01*
X62022222Y-57186320D01*
X61993495Y-57463274D01*
X61922598Y-57605393D01*
X61904630Y-57610370D01*
X61831602Y-57505910D01*
X61790408Y-57244365D01*
X61787037Y-57130392D01*
X61828033Y-56775093D01*
X61978224Y-56447532D01*
X62212776Y-56130855D01*
X62638516Y-55611296D01*
X75855860Y-55611296D01*
X77523301Y-57365213D01*
X77523301Y-57365213D01*
G37*
X77523301Y-57365213D02*
X79190741Y-59119131D01*
X79190741Y-60599010D01*
X79181742Y-61238689D01*
X79156085Y-61714793D01*
X79115780Y-62002029D01*
X79073148Y-62078889D01*
X79021790Y-61965859D01*
X78983152Y-61644556D01*
X78959462Y-61141655D01*
X78952791Y-60638380D01*
X78950026Y-59197870D01*
X77335892Y-57517215D01*
X75721759Y-55836559D01*
X69234650Y-55841520D01*
X62747540Y-55846481D01*
X62384881Y-56304376D01*
X62107020Y-56757851D01*
X62022222Y-57186320D01*
X61993495Y-57463274D01*
X61922598Y-57605393D01*
X61904630Y-57610370D01*
X61831602Y-57505910D01*
X61790408Y-57244365D01*
X61787037Y-57130392D01*
X61828033Y-56775093D01*
X61978224Y-56447532D01*
X62212776Y-56130855D01*
X62638516Y-55611296D01*
X75855860Y-55611296D01*
X77523301Y-57365213D01*
G36*
X80892504Y-61955128D02*
G01*
X80932344Y-62265325D01*
X80952756Y-62738180D01*
X80954630Y-62960833D01*
X80942901Y-63487767D01*
X80910248Y-63866248D01*
X80860474Y-64060161D01*
X80837037Y-64077963D01*
X80781570Y-63966538D01*
X80741730Y-63656341D01*
X80721318Y-63183487D01*
X80719444Y-62960833D01*
X80731173Y-62433899D01*
X80763826Y-62055418D01*
X80813600Y-61861505D01*
X80837037Y-61843704D01*
X80892504Y-61955128D01*
X80892504Y-61955128D01*
G37*
X80892504Y-61955128D02*
X80932344Y-62265325D01*
X80952756Y-62738180D01*
X80954630Y-62960833D01*
X80942901Y-63487767D01*
X80910248Y-63866248D01*
X80860474Y-64060161D01*
X80837037Y-64077963D01*
X80781570Y-63966538D01*
X80741730Y-63656341D01*
X80721318Y-63183487D01*
X80719444Y-62960833D01*
X80731173Y-62433899D01*
X80763826Y-62055418D01*
X80813600Y-61861505D01*
X80837037Y-61843704D01*
X80892504Y-61955128D01*
G36*
X63254708Y-57486088D02*
G01*
X63294986Y-57792639D01*
X63314564Y-58255599D01*
X63315741Y-58419562D01*
X63315741Y-59463938D01*
X62912013Y-59771876D01*
X62508285Y-60079815D01*
X51605449Y-60079815D01*
X51110595Y-60584034D01*
X50615741Y-61088254D01*
X50615741Y-63437998D01*
X51380093Y-64195556D01*
X51790575Y-64613609D01*
X52037850Y-64896084D01*
X52135712Y-65062263D01*
X52097956Y-65131430D01*
X52053096Y-65136296D01*
X51935904Y-65057901D01*
X51696049Y-64847296D01*
X51374347Y-64541350D01*
X51171152Y-64339595D01*
X50380555Y-63542894D01*
X50380555Y-60952918D01*
X50943159Y-60398774D01*
X51505764Y-59844630D01*
X56951627Y-59844630D01*
X58310907Y-59845682D01*
X59453714Y-59845837D01*
X60398736Y-59840588D01*
X61164656Y-59825430D01*
X61770160Y-59795856D01*
X62233934Y-59747361D01*
X62574664Y-59675439D01*
X62811034Y-59575584D01*
X62961731Y-59443291D01*
X63045439Y-59274054D01*
X63080845Y-59063367D01*
X63086633Y-58806724D01*
X63081490Y-58499619D01*
X63080555Y-58366715D01*
X63093658Y-57882756D01*
X63129659Y-57540389D01*
X63183603Y-57381414D01*
X63198148Y-57375185D01*
X63254708Y-57486088D01*
X63254708Y-57486088D01*
G37*
X63254708Y-57486088D02*
X63294986Y-57792639D01*
X63314564Y-58255599D01*
X63315741Y-58419562D01*
X63315741Y-59463938D01*
X62912013Y-59771876D01*
X62508285Y-60079815D01*
X51605449Y-60079815D01*
X51110595Y-60584034D01*
X50615741Y-61088254D01*
X50615741Y-63437998D01*
X51380093Y-64195556D01*
X51790575Y-64613609D01*
X52037850Y-64896084D01*
X52135712Y-65062263D01*
X52097956Y-65131430D01*
X52053096Y-65136296D01*
X51935904Y-65057901D01*
X51696049Y-64847296D01*
X51374347Y-64541350D01*
X51171152Y-64339595D01*
X50380555Y-63542894D01*
X50380555Y-60952918D01*
X50943159Y-60398774D01*
X51505764Y-59844630D01*
X56951627Y-59844630D01*
X58310907Y-59845682D01*
X59453714Y-59845837D01*
X60398736Y-59840588D01*
X61164656Y-59825430D01*
X61770160Y-59795856D01*
X62233934Y-59747361D01*
X62574664Y-59675439D01*
X62811034Y-59575584D01*
X62961731Y-59443291D01*
X63045439Y-59274054D01*
X63080845Y-59063367D01*
X63086633Y-58806724D01*
X63081490Y-58499619D01*
X63080555Y-58366715D01*
X63093658Y-57882756D01*
X63129659Y-57540389D01*
X63183603Y-57381414D01*
X63198148Y-57375185D01*
X63254708Y-57486088D01*
G36*
X73634955Y-62931895D02*
G01*
X79190741Y-68488604D01*
X79190741Y-69046709D01*
X79168525Y-69372185D01*
X79112011Y-69573307D01*
X79073148Y-69604815D01*
X79001357Y-69500078D01*
X78959741Y-69236652D01*
X78955555Y-69104577D01*
X78955555Y-68604339D01*
X73457638Y-63107355D01*
X67959720Y-57610370D01*
X66108101Y-57610370D01*
X65366115Y-57603108D01*
X64798512Y-57582121D01*
X64424141Y-57548604D01*
X64261854Y-57503757D01*
X64256481Y-57492778D01*
X64370962Y-57446178D01*
X64702357Y-57410394D01*
X65232596Y-57386539D01*
X65943608Y-57375725D01*
X66167825Y-57375185D01*
X68079169Y-57375185D01*
X73634955Y-62931895D01*
X73634955Y-62931895D01*
G37*
X73634955Y-62931895D02*
X79190741Y-68488604D01*
X79190741Y-69046709D01*
X79168525Y-69372185D01*
X79112011Y-69573307D01*
X79073148Y-69604815D01*
X79001357Y-69500078D01*
X78959741Y-69236652D01*
X78955555Y-69104577D01*
X78955555Y-68604339D01*
X73457638Y-63107355D01*
X67959720Y-57610370D01*
X66108101Y-57610370D01*
X65366115Y-57603108D01*
X64798512Y-57582121D01*
X64424141Y-57548604D01*
X64261854Y-57503757D01*
X64256481Y-57492778D01*
X64370962Y-57446178D01*
X64702357Y-57410394D01*
X65232596Y-57386539D01*
X65943608Y-57375725D01*
X66167825Y-57375185D01*
X68079169Y-57375185D01*
X73634955Y-62931895D01*
G36*
X80892504Y-69481054D02*
G01*
X80932344Y-69791251D01*
X80952756Y-70264106D01*
X80954630Y-70486759D01*
X80942901Y-71013693D01*
X80910248Y-71392174D01*
X80860474Y-71586087D01*
X80837037Y-71603889D01*
X80781570Y-71492464D01*
X80741730Y-71182267D01*
X80721318Y-70709412D01*
X80719444Y-70486759D01*
X80731173Y-69959825D01*
X80763826Y-69581344D01*
X80813600Y-69387431D01*
X80837037Y-69369630D01*
X80892504Y-69481054D01*
X80892504Y-69481054D01*
G37*
X80892504Y-69481054D02*
X80932344Y-69791251D01*
X80952756Y-70264106D01*
X80954630Y-70486759D01*
X80942901Y-71013693D01*
X80910248Y-71392174D01*
X80860474Y-71586087D01*
X80837037Y-71603889D01*
X80781570Y-71492464D01*
X80741730Y-71182267D01*
X80721318Y-70709412D01*
X80719444Y-70486759D01*
X80731173Y-69959825D01*
X80763826Y-69581344D01*
X80813600Y-69387431D01*
X80837037Y-69369630D01*
X80892504Y-69481054D01*
G36*
X72870547Y-68635080D02*
G01*
X79190741Y-74956087D01*
X79190741Y-75984617D01*
X79178075Y-76481484D01*
X79143126Y-76834627D01*
X79090463Y-77004069D01*
X79073148Y-77013148D01*
X79015410Y-76902853D01*
X78974675Y-76600567D01*
X78956141Y-76149187D01*
X78955555Y-76042597D01*
X78955555Y-75072046D01*
X72693342Y-68810653D01*
X66431128Y-62549259D01*
X65343805Y-62549259D01*
X64826858Y-62537231D01*
X64456830Y-62503839D01*
X64271062Y-62453121D01*
X64256481Y-62431667D01*
X64368101Y-62376630D01*
X64679656Y-62336966D01*
X65156193Y-62316258D01*
X65403417Y-62314074D01*
X66550354Y-62314074D01*
X72870547Y-68635080D01*
X72870547Y-68635080D01*
G37*
X72870547Y-68635080D02*
X79190741Y-74956087D01*
X79190741Y-75984617D01*
X79178075Y-76481484D01*
X79143126Y-76834627D01*
X79090463Y-77004069D01*
X79073148Y-77013148D01*
X79015410Y-76902853D01*
X78974675Y-76600567D01*
X78956141Y-76149187D01*
X78955555Y-76042597D01*
X78955555Y-75072046D01*
X72693342Y-68810653D01*
X66431128Y-62549259D01*
X65343805Y-62549259D01*
X64826858Y-62537231D01*
X64456830Y-62503839D01*
X64271062Y-62453121D01*
X64256481Y-62431667D01*
X64368101Y-62376630D01*
X64679656Y-62336966D01*
X65156193Y-62316258D01*
X65403417Y-62314074D01*
X66550354Y-62314074D01*
X72870547Y-68635080D01*
G36*
X80892504Y-76889388D02*
G01*
X80932344Y-77199585D01*
X80952756Y-77672439D01*
X80954630Y-77895093D01*
X80942901Y-78422026D01*
X80910248Y-78800507D01*
X80860474Y-78994421D01*
X80837037Y-79012222D01*
X80781570Y-78900798D01*
X80741730Y-78590600D01*
X80721318Y-78117746D01*
X80719444Y-77895093D01*
X80731173Y-77368159D01*
X80763826Y-76989678D01*
X80813600Y-76795765D01*
X80837037Y-76777963D01*
X80892504Y-76889388D01*
X80892504Y-76889388D01*
G37*
X80892504Y-76889388D02*
X80932344Y-77199585D01*
X80952756Y-77672439D01*
X80954630Y-77895093D01*
X80942901Y-78422026D01*
X80910248Y-78800507D01*
X80860474Y-78994421D01*
X80837037Y-79012222D01*
X80781570Y-78900798D01*
X80741730Y-78590600D01*
X80721318Y-78117746D01*
X80719444Y-77895093D01*
X80731173Y-77368159D01*
X80763826Y-76989678D01*
X80813600Y-76795765D01*
X80837037Y-76777963D01*
X80892504Y-76889388D01*
G36*
X63257821Y-62423250D02*
G01*
X63299273Y-62717667D01*
X63315698Y-63147658D01*
X63315741Y-63172500D01*
X63335329Y-63659458D01*
X63388944Y-64014104D01*
X63456852Y-64172037D01*
X63658238Y-64262239D01*
X63982719Y-64310572D01*
X64076218Y-64313148D01*
X64269489Y-64322615D01*
X64443983Y-64367657D01*
X64634018Y-64473238D01*
X64873910Y-64664322D01*
X65197977Y-64965874D01*
X65640533Y-65402855D01*
X65816589Y-65579189D01*
X67078704Y-66845229D01*
X67078704Y-70840393D01*
X73134722Y-76895556D01*
X79190741Y-82950718D01*
X79190741Y-83744896D01*
X79174690Y-84155991D01*
X79131908Y-84438787D01*
X79073148Y-84539074D01*
X79011122Y-84431498D01*
X78968857Y-84148385D01*
X78955555Y-83803692D01*
X78955555Y-83068310D01*
X72899537Y-77013148D01*
X66843518Y-70957986D01*
X66843518Y-66962997D01*
X65640295Y-65755665D01*
X65164539Y-65282104D01*
X64816923Y-64951617D01*
X64561686Y-64738610D01*
X64363068Y-64617490D01*
X64185311Y-64562661D01*
X63992654Y-64548530D01*
X63953428Y-64548333D01*
X63569140Y-64510868D01*
X63313204Y-64374715D01*
X63162271Y-64104237D01*
X63092989Y-63663796D01*
X63080555Y-63216157D01*
X63094848Y-62764338D01*
X63133657Y-62448518D01*
X63190876Y-62315530D01*
X63198148Y-62314074D01*
X63257821Y-62423250D01*
X63257821Y-62423250D01*
G37*
X63257821Y-62423250D02*
X63299273Y-62717667D01*
X63315698Y-63147658D01*
X63315741Y-63172500D01*
X63335329Y-63659458D01*
X63388944Y-64014104D01*
X63456852Y-64172037D01*
X63658238Y-64262239D01*
X63982719Y-64310572D01*
X64076218Y-64313148D01*
X64269489Y-64322615D01*
X64443983Y-64367657D01*
X64634018Y-64473238D01*
X64873910Y-64664322D01*
X65197977Y-64965874D01*
X65640533Y-65402855D01*
X65816589Y-65579189D01*
X67078704Y-66845229D01*
X67078704Y-70840393D01*
X73134722Y-76895556D01*
X79190741Y-82950718D01*
X79190741Y-83744896D01*
X79174690Y-84155991D01*
X79131908Y-84438787D01*
X79073148Y-84539074D01*
X79011122Y-84431498D01*
X78968857Y-84148385D01*
X78955555Y-83803692D01*
X78955555Y-83068310D01*
X72899537Y-77013148D01*
X66843518Y-70957986D01*
X66843518Y-66962997D01*
X65640295Y-65755665D01*
X65164539Y-65282104D01*
X64816923Y-64951617D01*
X64561686Y-64738610D01*
X64363068Y-64617490D01*
X64185311Y-64562661D01*
X63992654Y-64548530D01*
X63953428Y-64548333D01*
X63569140Y-64510868D01*
X63313204Y-64374715D01*
X63162271Y-64104237D01*
X63092989Y-63663796D01*
X63080555Y-63216157D01*
X63094848Y-62764338D01*
X63133657Y-62448518D01*
X63190876Y-62315530D01*
X63198148Y-62314074D01*
X63257821Y-62423250D01*
G36*
X80891665Y-84415688D02*
G01*
X80931160Y-84728496D01*
X80952133Y-85208430D01*
X80954630Y-85479815D01*
X80943450Y-86026092D01*
X80912169Y-86421042D01*
X80864175Y-86630780D01*
X80837037Y-86655741D01*
X80782409Y-86543942D01*
X80742914Y-86231134D01*
X80721940Y-85751199D01*
X80719444Y-85479815D01*
X80730624Y-84933537D01*
X80761905Y-84538588D01*
X80809898Y-84328849D01*
X80837037Y-84303889D01*
X80891665Y-84415688D01*
X80891665Y-84415688D01*
G37*
X80891665Y-84415688D02*
X80931160Y-84728496D01*
X80952133Y-85208430D01*
X80954630Y-85479815D01*
X80943450Y-86026092D01*
X80912169Y-86421042D01*
X80864175Y-86630780D01*
X80837037Y-86655741D01*
X80782409Y-86543942D01*
X80742914Y-86231134D01*
X80721940Y-85751199D01*
X80719444Y-85479815D01*
X80730624Y-84933537D01*
X80761905Y-84538588D01*
X80809898Y-84328849D01*
X80837037Y-84303889D01*
X80891665Y-84415688D01*
G36*
X61967825Y-62420736D02*
G01*
X62010470Y-62697367D01*
X62022222Y-62992990D01*
X62022222Y-63671906D01*
X61081481Y-64607130D01*
X60140741Y-65542353D01*
X60144993Y-82363611D01*
X64861955Y-87096713D01*
X69578918Y-91829815D01*
X74384829Y-91829815D01*
X75714825Y-91832671D01*
X76837572Y-91841157D01*
X77748044Y-91855151D01*
X78441214Y-91874530D01*
X78912058Y-91899169D01*
X79155550Y-91928947D01*
X79190741Y-91947407D01*
X79073892Y-91979455D01*
X78726181Y-92005692D01*
X78151861Y-92026031D01*
X77355187Y-92040383D01*
X76340411Y-92048661D01*
X75111787Y-92050776D01*
X74281250Y-92049074D01*
X69371759Y-92033149D01*
X59905555Y-82470225D01*
X59905555Y-65424760D01*
X60846296Y-64489537D01*
X61252934Y-64082015D01*
X61521367Y-63792737D01*
X61680296Y-63574250D01*
X61758422Y-63379105D01*
X61784446Y-63159849D01*
X61787037Y-62934194D01*
X61807152Y-62588401D01*
X61858843Y-62363292D01*
X61904630Y-62314074D01*
X61967825Y-62420736D01*
X61967825Y-62420736D01*
G37*
X61967825Y-62420736D02*
X62010470Y-62697367D01*
X62022222Y-62992990D01*
X62022222Y-63671906D01*
X61081481Y-64607130D01*
X60140741Y-65542353D01*
X60144993Y-82363611D01*
X64861955Y-87096713D01*
X69578918Y-91829815D01*
X74384829Y-91829815D01*
X75714825Y-91832671D01*
X76837572Y-91841157D01*
X77748044Y-91855151D01*
X78441214Y-91874530D01*
X78912058Y-91899169D01*
X79155550Y-91928947D01*
X79190741Y-91947407D01*
X79073892Y-91979455D01*
X78726181Y-92005692D01*
X78151861Y-92026031D01*
X77355187Y-92040383D01*
X76340411Y-92048661D01*
X75111787Y-92050776D01*
X74281250Y-92049074D01*
X69371759Y-92033149D01*
X59905555Y-82470225D01*
X59905555Y-65424760D01*
X60846296Y-64489537D01*
X61252934Y-64082015D01*
X61521367Y-63792737D01*
X61680296Y-63574250D01*
X61758422Y-63379105D01*
X61784446Y-63159849D01*
X61787037Y-62934194D01*
X61807152Y-62588401D01*
X61858843Y-62363292D01*
X61904630Y-62314074D01*
X61967825Y-62420736D01*
G36*
X80892504Y-91941239D02*
G01*
X80932344Y-92251437D01*
X80952756Y-92724291D01*
X80954630Y-92946944D01*
X80942901Y-93473878D01*
X80910248Y-93852359D01*
X80860474Y-94046272D01*
X80837037Y-94064074D01*
X80781570Y-93952649D01*
X80741730Y-93642452D01*
X80721318Y-93169598D01*
X80719444Y-92946944D01*
X80731173Y-92420011D01*
X80763826Y-92041529D01*
X80813600Y-91847616D01*
X80837037Y-91829815D01*
X80892504Y-91941239D01*
X80892504Y-91941239D01*
G37*
X80892504Y-91941239D02*
X80932344Y-92251437D01*
X80952756Y-92724291D01*
X80954630Y-92946944D01*
X80942901Y-93473878D01*
X80910248Y-93852359D01*
X80860474Y-94046272D01*
X80837037Y-94064074D01*
X80781570Y-93952649D01*
X80741730Y-93642452D01*
X80721318Y-93169598D01*
X80719444Y-92946944D01*
X80731173Y-92420011D01*
X80763826Y-92041529D01*
X80813600Y-91847616D01*
X80837037Y-91829815D01*
X80892504Y-91941239D01*
G36*
X57658321Y-60497259D02*
G01*
X57999550Y-60734475D01*
X58455882Y-61158167D01*
X58489765Y-61192223D01*
X59242643Y-61951854D01*
X60061548Y-61985973D01*
X60537206Y-62021171D01*
X60829044Y-62086614D01*
X60987784Y-62195137D01*
X61009764Y-62225880D01*
X61076035Y-62479876D01*
X61009689Y-62637454D01*
X60893284Y-62745655D01*
X60676163Y-62815560D01*
X60309606Y-62857748D01*
X59903308Y-62877706D01*
X58926312Y-62912171D01*
X58024074Y-62031159D01*
X58024074Y-88557718D01*
X60727540Y-91340294D01*
X63431005Y-94122870D01*
X63432169Y-95422268D01*
X63422563Y-96071361D01*
X63385655Y-96519916D01*
X63311354Y-96801946D01*
X63189569Y-96951470D01*
X63010208Y-97002501D01*
X62962963Y-97003889D01*
X62716051Y-96925436D01*
X62633704Y-96862778D01*
X62558379Y-96661784D01*
X62510440Y-96251210D01*
X62492642Y-95655366D01*
X62492593Y-95617808D01*
X62492593Y-94513949D01*
X59789127Y-91731373D01*
X57085661Y-88948796D01*
X57083333Y-61138148D01*
X53296130Y-61138148D01*
X52707569Y-61667315D01*
X52348994Y-61978717D01*
X52116454Y-62142593D01*
X51969199Y-62177232D01*
X51866477Y-62100922D01*
X51837439Y-62057817D01*
X51875071Y-61906481D01*
X52078817Y-61641355D01*
X52423945Y-61293465D01*
X53096151Y-60667778D01*
X55141598Y-60667778D01*
X55902593Y-60661131D01*
X56519319Y-60642151D01*
X56965835Y-60612279D01*
X57216198Y-60572953D01*
X57259722Y-60550185D01*
X57416832Y-60438502D01*
X57658321Y-60497259D01*
X57658321Y-60497259D01*
G37*
X57658321Y-60497259D02*
X57999550Y-60734475D01*
X58455882Y-61158167D01*
X58489765Y-61192223D01*
X59242643Y-61951854D01*
X60061548Y-61985973D01*
X60537206Y-62021171D01*
X60829044Y-62086614D01*
X60987784Y-62195137D01*
X61009764Y-62225880D01*
X61076035Y-62479876D01*
X61009689Y-62637454D01*
X60893284Y-62745655D01*
X60676163Y-62815560D01*
X60309606Y-62857748D01*
X59903308Y-62877706D01*
X58926312Y-62912171D01*
X58024074Y-62031159D01*
X58024074Y-88557718D01*
X60727540Y-91340294D01*
X63431005Y-94122870D01*
X63432169Y-95422268D01*
X63422563Y-96071361D01*
X63385655Y-96519916D01*
X63311354Y-96801946D01*
X63189569Y-96951470D01*
X63010208Y-97002501D01*
X62962963Y-97003889D01*
X62716051Y-96925436D01*
X62633704Y-96862778D01*
X62558379Y-96661784D01*
X62510440Y-96251210D01*
X62492642Y-95655366D01*
X62492593Y-95617808D01*
X62492593Y-94513949D01*
X59789127Y-91731373D01*
X57085661Y-88948796D01*
X57083333Y-61138148D01*
X53296130Y-61138148D01*
X52707569Y-61667315D01*
X52348994Y-61978717D01*
X52116454Y-62142593D01*
X51969199Y-62177232D01*
X51866477Y-62100922D01*
X51837439Y-62057817D01*
X51875071Y-61906481D01*
X52078817Y-61641355D01*
X52423945Y-61293465D01*
X53096151Y-60667778D01*
X55141598Y-60667778D01*
X55902593Y-60661131D01*
X56519319Y-60642151D01*
X56965835Y-60612279D01*
X57216198Y-60572953D01*
X57259722Y-60550185D01*
X57416832Y-60438502D01*
X57658321Y-60497259D01*
D13*
X59390000Y-96310000D02*
X59390000Y-92692000D01*
X61100000Y-96310000D02*
X59390000Y-96310000D01*
X54890000Y-89847300D02*
X54890000Y-74152700D01*
X61100000Y-67690000D02*
X59390000Y-67690000D01*
X59390000Y-71308000D02*
X59390000Y-67690000D01*
X66610000Y-67690000D02*
X66610000Y-71308000D01*
X64900000Y-67690000D02*
X66610000Y-67690000D01*
X71110000Y-74152700D02*
X71110000Y-78140000D01*
X68910000Y-80340000D02*
X71110000Y-78140000D01*
X68910000Y-80340000D02*
X68910000Y-83660000D01*
X68910000Y-83660000D02*
X71110000Y-85860000D01*
X71110000Y-85860000D02*
X71110000Y-89847300D01*
X66610000Y-92692000D02*
X66610000Y-96310000D01*
X64900000Y-96310000D02*
X66610000Y-96310000D01*
X54888211Y-89845370D02*
G75*
G03X59390000Y-92692000I8111789J7845370D01*
G01*
X71111789Y-74154630D02*
G75*
G03X66610000Y-71308000I-8111789J-7845370D01*
G01*
X54888211Y-74154630D02*
G75*
G02X59390000Y-71308000I8111789J-7845370D01*
G01*
X71111789Y-89845370D02*
G75*
G02X66610000Y-92692000I-8111789J7845370D01*
G01*
X59940000Y-60000000D02*
X59940000Y-63450000D01*
X59940000Y-60000000D02*
X59940000Y-58050000D01*
X65060000Y-60000000D02*
X65060000Y-61950000D01*
X65060000Y-60000000D02*
X65060000Y-58050000D01*
X58010000Y-60171267D02*
X58010000Y-59828733D01*
X56990000Y-60171267D02*
X56990000Y-59828733D01*
X80171267Y-83990000D02*
X79828733Y-83990000D01*
X80171267Y-85010000D02*
X79828733Y-85010000D01*
X80171267Y-91490000D02*
X79828733Y-91490000D01*
X80171267Y-92510000D02*
X79828733Y-92510000D01*
X80171267Y-61490000D02*
X79828733Y-61490000D01*
X80171267Y-62510000D02*
X79828733Y-62510000D01*
X80171267Y-68990000D02*
X79828733Y-68990000D01*
X80171267Y-70010000D02*
X79828733Y-70010000D01*
X80171267Y-76490000D02*
X79828733Y-76490000D01*
X80171267Y-77510000D02*
X79828733Y-77510000D01*
X52950000Y-68000000D02*
G75*
G03X52950000Y-68000000I-950000J0D01*
G01*
X52950000Y-62000000D02*
G75*
G03X52950000Y-62000000I-950000J0D01*
G01*
X52950000Y-65000000D02*
G75*
G03X52950000Y-65000000I-950000J0D01*
G01*
X78340000Y-87335000D02*
X80800000Y-87335000D01*
X78340000Y-85865000D02*
X78340000Y-87335000D01*
X80800000Y-85865000D02*
X78340000Y-85865000D01*
X78340000Y-94735000D02*
X80800000Y-94735000D01*
X78340000Y-93265000D02*
X78340000Y-94735000D01*
X80800000Y-93265000D02*
X78340000Y-93265000D01*
X78340000Y-64735000D02*
X80800000Y-64735000D01*
X78340000Y-63265000D02*
X78340000Y-64735000D01*
X80800000Y-63265000D02*
X78340000Y-63265000D01*
X78340000Y-72335000D02*
X80800000Y-72335000D01*
X78340000Y-70865000D02*
X78340000Y-72335000D01*
X80800000Y-70865000D02*
X78340000Y-70865000D01*
X78340000Y-79735000D02*
X80800000Y-79735000D01*
X78340000Y-78265000D02*
X78340000Y-79735000D01*
X80800000Y-78265000D02*
X78340000Y-78265000D01*
M02*
