  0
SECTION
  2
HEADER
  9
$ANGBASE
  50
0.0
  9
$ANGDIR
  70
1
  9
$MEASUREMENT
  70
1
  0
ENDSEC
  0
SECTION
  2
TABLES
  0
TABLE
  2
LTYPE
  70
4
  0
LTYPE
  5
40F
  2
CONTINUOUS
  70
0
  3
Solid line
  72
65
  73
0
  40
0.0
  0
LTYPE
  5
410
  2
DASHDOT
 70
0
  3
Dash Dot ____ _ ____ _
 72
65
 73
4
 40
2.0
 49
1.25
 49
-0.25
 49
0.25
 49
-0.25
  0
LTYPE
  5
411
  2
DASHED
 70
0
  3
Dashed __ __ __ __ __
 72
65
 73
2
 40
0.75
 49
0.5
 49
-0.25
  0
LTYPE
  5
43B
  2
DOTTED
 70
0
  3
Dotted .  .  .  .
 72
65
 73
2
 40
0.2
 49
0.0
 49
-0.2
  0
ENDTAB
  0
TABLE
  2
STYLE
  70
4
  0
STYLE
  2
KICAD
  70
0
  40
0
  41
1
  42
1
  50
0
  71
0
  3
isocp.shx
  0
STYLE
  2
KICADB
  70
0
  40
0
  41
1
  42
1
  50
0
  71
0
  3
isocp.shx
  0
STYLE
  2
KICADI
  70
0
  40
0
  41
1
  42
1
  50
15
  71
0
  3
isocp.shx
  0
STYLE
  2
KICADBI
  70
0
  40
0
  41
1
  42
1
  50
15
  71
0
  3
isocp.shx
  0
ENDTAB
  0
TABLE
  2
LAYER
  70
1
  0
LAYER
  2
BLACK
  70
0
  62
7
  6
CONTINUOUS
  0
ENDTAB
  0
ENDSEC
  0
SECTION
  2
ENTITIES
0
ARC
8
BLACK
10
52
20
-98
40
2
50
180
51
270
0
ARC
8
BLACK
10
52
20
-52
40
2
50
90
51
180
0
ARC
8
BLACK
10
148
20
-52
40
2
50
-0
51
90
0
ARC
8
BLACK
10
148
20
-98
40
2
50
-90
51
-0
0
LINE
8
BLACK
6
CONTINUOUS
10
150
20
-52
11
150
21
-98
0
LINE
8
BLACK
6
CONTINUOUS
10
50
20
-52
11
50
21
-98
0
LINE
8
BLACK
6
CONTINUOUS
10
52
20
-50
11
148
21
-50
0
LINE
8
BLACK
6
CONTINUOUS
10
52
20
-100
11
148
21
-100
0
LINE
8
BLACK
6
CONTINUOUS
10
143.7
20
-91.7
11
146.7
21
-94.7
0
LINE
8
BLACK
6
CONTINUOUS
10
146.7
20
-91.7
11
143.7
21
-94.7
0
LINE
8
BLACK
6
CONTINUOUS
10
146.7
20
-95.2
11
146.7
21
-91.2
0
LINE
8
BLACK
6
CONTINUOUS
10
143.7
20
-95.2
11
143.7
21
-91.2
0
ARC
8
BLACK
10
145.2
20
-91.2
40
1.5
50
360
51
540
0
ARC
8
BLACK
10
145.2
20
-95.2
40
1.5
50
180
51
360
0
LINE
8
BLACK
6
CONTINUOUS
10
88.5
20
-53.3
11
91.5
21
-56.3
0
LINE
8
BLACK
6
CONTINUOUS
10
91.5
20
-53.3
11
88.5
21
-56.3
0
LINE
8
BLACK
6
CONTINUOUS
10
92
20
-53.3
11
88
21
-53.3
0
LINE
8
BLACK
6
CONTINUOUS
10
92
20
-56.3
11
88
21
-56.3
0
ARC
8
BLACK
10
88
20
-54.8
40
1.5
50
450
51
630
0
ARC
8
BLACK
10
92
20
-54.8
40
1.5
50
270
51
450
0
LINE
8
BLACK
6
CONTINUOUS
10
143.7
20
-55.3
11
146.7
21
-58.3
0
LINE
8
BLACK
6
CONTINUOUS
10
146.7
20
-55.3
11
143.7
21
-58.3
0
LINE
8
BLACK
6
CONTINUOUS
10
146.7
20
-58.8
11
146.7
21
-54.8
0
LINE
8
BLACK
6
CONTINUOUS
10
143.7
20
-58.8
11
143.7
21
-54.8
0
ARC
8
BLACK
10
145.2
20
-54.8
40
1.5
50
360
51
540
0
ARC
8
BLACK
10
145.2
20
-58.8
40
1.5
50
180
51
360
0
LINE
8
BLACK
6
CONTINUOUS
10
52.8393
20
-104.682
11
52.8393
21
-101.682
0
LINE
8
BLACK
6
CONTINUOUS
10
52.8393
20
-101.682
11
53.5536
21
-101.682
0
LINE
8
BLACK
6
CONTINUOUS
10
53.5536
20
-101.682
11
53.9821
21
-101.825
0
LINE
8
BLACK
6
CONTINUOUS
10
53.9821
20
-101.825
11
54.2679
21
-102.111
0
LINE
8
BLACK
6
CONTINUOUS
10
54.2679
20
-102.111
11
54.4107
21
-102.396
0
LINE
8
BLACK
6
CONTINUOUS
10
54.4107
20
-102.396
11
54.5536
21
-102.968
0
LINE
8
BLACK
6
CONTINUOUS
10
54.5536
20
-102.968
11
54.5536
21
-103.396
0
LINE
8
BLACK
6
CONTINUOUS
10
54.5536
20
-103.396
11
54.4107
21
-103.968
0
LINE
8
BLACK
6
CONTINUOUS
10
54.4107
20
-103.968
11
54.2679
21
-104.254
0
LINE
8
BLACK
6
CONTINUOUS
10
54.2679
20
-104.254
11
53.9821
21
-104.539
0
LINE
8
BLACK
6
CONTINUOUS
10
53.9821
20
-104.539
11
53.5536
21
-104.682
0
LINE
8
BLACK
6
CONTINUOUS
10
53.5536
20
-104.682
11
52.8393
21
-104.682
0
LINE
8
BLACK
6
CONTINUOUS
10
55.8393
20
-104.682
11
55.8393
21
-102.682
0
LINE
8
BLACK
6
CONTINUOUS
10
55.8393
20
-103.254
11
55.9821
21
-102.968
0
LINE
8
BLACK
6
CONTINUOUS
10
55.9821
20
-102.968
11
56.125
21
-102.825
0
LINE
8
BLACK
6
CONTINUOUS
10
56.125
20
-102.825
11
56.4107
21
-102.682
0
LINE
8
BLACK
6
CONTINUOUS
10
56.4107
20
-102.682
11
56.6964
21
-102.682
0
LINE
8
BLACK
6
CONTINUOUS
10
57.6964
20
-104.682
11
57.6964
21
-102.682
0
LINE
8
BLACK
6
CONTINUOUS
10
57.6964
20
-101.682
11
57.5536
21
-101.825
0
LINE
8
BLACK
6
CONTINUOUS
10
57.5536
20
-101.825
11
57.6964
21
-101.968
0
LINE
8
BLACK
6
CONTINUOUS
10
57.6964
20
-101.968
11
57.8393
21
-101.825
0
LINE
8
BLACK
6
CONTINUOUS
10
57.8393
20
-101.825
11
57.6964
21
-101.682
0
LINE
8
BLACK
6
CONTINUOUS
10
57.6964
20
-101.682
11
57.6964
21
-101.968
0
LINE
8
BLACK
6
CONTINUOUS
10
59.5536
20
-104.682
11
59.2679
21
-104.539
0
LINE
8
BLACK
6
CONTINUOUS
10
59.2679
20
-104.539
11
59.125
21
-104.254
0
LINE
8
BLACK
6
CONTINUOUS
10
59.125
20
-104.254
11
59.125
21
-101.682
0
LINE
8
BLACK
6
CONTINUOUS
10
61.125
20
-104.682
11
60.8393
21
-104.539
0
LINE
8
BLACK
6
CONTINUOUS
10
60.8393
20
-104.539
11
60.6964
21
-104.254
0
LINE
8
BLACK
6
CONTINUOUS
10
60.6964
20
-104.254
11
60.6964
21
-101.682
0
LINE
8
BLACK
6
CONTINUOUS
10
64.5536
20
-104.682
11
64.5536
21
-101.682
0
LINE
8
BLACK
6
CONTINUOUS
10
64.5536
20
-101.682
11
65.5536
21
-103.825
0
LINE
8
BLACK
6
CONTINUOUS
10
65.5536
20
-103.825
11
66.5536
21
-101.682
0
LINE
8
BLACK
6
CONTINUOUS
10
66.5536
20
-101.682
11
66.5536
21
-104.682
0
LINE
8
BLACK
6
CONTINUOUS
10
69.2679
20
-104.682
11
69.2679
21
-103.111
0
LINE
8
BLACK
6
CONTINUOUS
10
69.2679
20
-103.111
11
69.125
21
-102.825
0
LINE
8
BLACK
6
CONTINUOUS
10
69.125
20
-102.825
11
68.8393
21
-102.682
0
LINE
8
BLACK
6
CONTINUOUS
10
68.8393
20
-102.682
11
68.2679
21
-102.682
0
LINE
8
BLACK
6
CONTINUOUS
10
68.2679
20
-102.682
11
67.9821
21
-102.825
0
LINE
8
BLACK
6
CONTINUOUS
10
69.2679
20
-104.539
11
68.9821
21
-104.682
0
LINE
8
BLACK
6
CONTINUOUS
10
68.9821
20
-104.682
11
68.2679
21
-104.682
0
LINE
8
BLACK
6
CONTINUOUS
10
68.2679
20
-104.682
11
67.9821
21
-104.539
0
LINE
8
BLACK
6
CONTINUOUS
10
67.9821
20
-104.539
11
67.8393
21
-104.254
0
LINE
8
BLACK
6
CONTINUOUS
10
67.8393
20
-104.254
11
67.8393
21
-103.968
0
LINE
8
BLACK
6
CONTINUOUS
10
67.8393
20
-103.968
11
67.9821
21
-103.682
0
LINE
8
BLACK
6
CONTINUOUS
10
67.9821
20
-103.682
11
68.2679
21
-103.539
0
LINE
8
BLACK
6
CONTINUOUS
10
68.2679
20
-103.539
11
68.9821
21
-103.539
0
LINE
8
BLACK
6
CONTINUOUS
10
68.9821
20
-103.539
11
69.2679
21
-103.396
0
LINE
8
BLACK
6
CONTINUOUS
10
70.6964
20
-102.682
11
70.6964
21
-105.682
0
LINE
8
BLACK
6
CONTINUOUS
10
70.6964
20
-102.825
11
70.9821
21
-102.682
0
LINE
8
BLACK
6
CONTINUOUS
10
70.9821
20
-102.682
11
71.5536
21
-102.682
0
LINE
8
BLACK
6
CONTINUOUS
10
71.5536
20
-102.682
11
71.8393
21
-102.825
0
LINE
8
BLACK
6
CONTINUOUS
10
71.8393
20
-102.825
11
71.9821
21
-102.968
0
LINE
8
BLACK
6
CONTINUOUS
10
71.9821
20
-102.968
11
72.125
21
-103.254
0
LINE
8
BLACK
6
CONTINUOUS
10
72.125
20
-103.254
11
72.125
21
-104.111
0
LINE
8
BLACK
6
CONTINUOUS
10
72.125
20
-104.111
11
71.9821
21
-104.396
0
LINE
8
BLACK
6
CONTINUOUS
10
71.9821
20
-104.396
11
71.8393
21
-104.539
0
LINE
8
BLACK
6
CONTINUOUS
10
71.8393
20
-104.539
11
71.5536
21
-104.682
0
LINE
8
BLACK
6
CONTINUOUS
10
71.5536
20
-104.682
11
70.9821
21
-104.682
0
LINE
8
BLACK
6
CONTINUOUS
10
70.9821
20
-104.682
11
70.6964
21
-104.539
0
LINE
8
BLACK
6
CONTINUOUS
10
73.4107
20
-104.396
11
73.5536
21
-104.539
0
LINE
8
BLACK
6
CONTINUOUS
10
73.5536
20
-104.539
11
73.4107
21
-104.682
0
LINE
8
BLACK
6
CONTINUOUS
10
73.4107
20
-104.682
11
73.2679
21
-104.539
0
LINE
8
BLACK
6
CONTINUOUS
10
73.2679
20
-104.539
11
73.4107
21
-104.396
0
LINE
8
BLACK
6
CONTINUOUS
10
73.4107
20
-104.396
11
73.4107
21
-104.682
0
LINE
8
BLACK
6
CONTINUOUS
10
73.4107
20
-102.825
11
73.5536
21
-102.968
0
LINE
8
BLACK
6
CONTINUOUS
10
73.5536
20
-102.968
11
73.4107
21
-103.111
0
LINE
8
BLACK
6
CONTINUOUS
10
73.4107
20
-103.111
11
73.2679
21
-102.968
0
LINE
8
BLACK
6
CONTINUOUS
10
73.2679
20
-102.968
11
73.4107
21
-102.825
0
LINE
8
BLACK
6
CONTINUOUS
10
73.4107
20
-102.825
11
73.4107
21
-103.111
0
LINE
8
BLACK
6
CONTINUOUS
10
46.975
20
-108.125
11
49.975
21
-111.125
0
LINE
8
BLACK
6
CONTINUOUS
10
49.975
20
-108.125
11
46.975
21
-111.125
0
LINE
8
BLACK
6
CONTINUOUS
10
52.5536
20
-107.982
11
54.4107
21
-107.982
0
LINE
8
BLACK
6
CONTINUOUS
10
54.4107
20
-107.982
11
53.4107
21
-109.125
0
LINE
8
BLACK
6
CONTINUOUS
10
53.4107
20
-109.125
11
53.8393
21
-109.125
0
LINE
8
BLACK
6
CONTINUOUS
10
53.8393
20
-109.125
11
54.125
21
-109.268
0
LINE
8
BLACK
6
CONTINUOUS
10
54.125
20
-109.268
11
54.2679
21
-109.411
0
LINE
8
BLACK
6
CONTINUOUS
10
54.2679
20
-109.411
11
54.4107
21
-109.696
0
LINE
8
BLACK
6
CONTINUOUS
10
54.4107
20
-109.696
11
54.4107
21
-110.411
0
LINE
8
BLACK
6
CONTINUOUS
10
54.4107
20
-110.411
11
54.2679
21
-110.696
0
LINE
8
BLACK
6
CONTINUOUS
10
54.2679
20
-110.696
11
54.125
21
-110.839
0
LINE
8
BLACK
6
CONTINUOUS
10
54.125
20
-110.839
11
53.8393
21
-110.982
0
LINE
8
BLACK
6
CONTINUOUS
10
53.8393
20
-110.982
11
52.9821
21
-110.982
0
LINE
8
BLACK
6
CONTINUOUS
10
52.9821
20
-110.982
11
52.6964
21
-110.839
0
LINE
8
BLACK
6
CONTINUOUS
10
52.6964
20
-110.839
11
52.5536
21
-110.696
0
LINE
8
BLACK
6
CONTINUOUS
10
55.6964
20
-110.696
11
55.8393
21
-110.839
0
LINE
8
BLACK
6
CONTINUOUS
10
55.8393
20
-110.839
11
55.6964
21
-110.982
0
LINE
8
BLACK
6
CONTINUOUS
10
55.6964
20
-110.982
11
55.5536
21
-110.839
0
LINE
8
BLACK
6
CONTINUOUS
10
55.5536
20
-110.839
11
55.6964
21
-110.696
0
LINE
8
BLACK
6
CONTINUOUS
10
55.6964
20
-110.696
11
55.6964
21
-110.982
0
LINE
8
BLACK
6
CONTINUOUS
10
57.6964
20
-107.982
11
57.9821
21
-107.982
0
LINE
8
BLACK
6
CONTINUOUS
10
57.9821
20
-107.982
11
58.2679
21
-108.125
0
LINE
8
BLACK
6
CONTINUOUS
10
58.2679
20
-108.125
11
58.4107
21
-108.268
0
LINE
8
BLACK
6
CONTINUOUS
10
58.4107
20
-108.268
11
58.5536
21
-108.554
0
LINE
8
BLACK
6
CONTINUOUS
10
58.5536
20
-108.554
11
58.6964
21
-109.125
0
LINE
8
BLACK
6
CONTINUOUS
10
58.6964
20
-109.125
11
58.6964
21
-109.839
0
LINE
8
BLACK
6
CONTINUOUS
10
58.6964
20
-109.839
11
58.5536
21
-110.411
0
LINE
8
BLACK
6
CONTINUOUS
10
58.5536
20
-110.411
11
58.4107
21
-110.696
0
LINE
8
BLACK
6
CONTINUOUS
10
58.4107
20
-110.696
11
58.2679
21
-110.839
0
LINE
8
BLACK
6
CONTINUOUS
10
58.2679
20
-110.839
11
57.9821
21
-110.982
0
LINE
8
BLACK
6
CONTINUOUS
10
57.9821
20
-110.982
11
57.6964
21
-110.982
0
LINE
8
BLACK
6
CONTINUOUS
10
57.6964
20
-110.982
11
57.4107
21
-110.839
0
LINE
8
BLACK
6
CONTINUOUS
10
57.4107
20
-110.839
11
57.2679
21
-110.696
0
LINE
8
BLACK
6
CONTINUOUS
10
57.2679
20
-110.696
11
57.125
21
-110.411
0
LINE
8
BLACK
6
CONTINUOUS
10
57.125
20
-110.411
11
56.9821
21
-109.839
0
LINE
8
BLACK
6
CONTINUOUS
10
56.9821
20
-109.839
11
56.9821
21
-109.125
0
LINE
8
BLACK
6
CONTINUOUS
10
56.9821
20
-109.125
11
57.125
21
-108.554
0
LINE
8
BLACK
6
CONTINUOUS
10
57.125
20
-108.554
11
57.2679
21
-108.268
0
LINE
8
BLACK
6
CONTINUOUS
10
57.2679
20
-108.268
11
57.4107
21
-108.125
0
LINE
8
BLACK
6
CONTINUOUS
10
57.4107
20
-108.125
11
57.6964
21
-107.982
0
LINE
8
BLACK
6
CONTINUOUS
10
60.5536
20
-107.982
11
60.8393
21
-107.982
0
LINE
8
BLACK
6
CONTINUOUS
10
60.8393
20
-107.982
11
61.125
21
-108.125
0
LINE
8
BLACK
6
CONTINUOUS
10
61.125
20
-108.125
11
61.2679
21
-108.268
0
LINE
8
BLACK
6
CONTINUOUS
10
61.2679
20
-108.268
11
61.4107
21
-108.554
0
LINE
8
BLACK
6
CONTINUOUS
10
61.4107
20
-108.554
11
61.5536
21
-109.125
0
LINE
8
BLACK
6
CONTINUOUS
10
61.5536
20
-109.125
11
61.5536
21
-109.839
0
LINE
8
BLACK
6
CONTINUOUS
10
61.5536
20
-109.839
11
61.4107
21
-110.411
0
LINE
8
BLACK
6
CONTINUOUS
10
61.4107
20
-110.411
11
61.2679
21
-110.696
0
LINE
8
BLACK
6
CONTINUOUS
10
61.2679
20
-110.696
11
61.125
21
-110.839
0
LINE
8
BLACK
6
CONTINUOUS
10
61.125
20
-110.839
11
60.8393
21
-110.982
0
LINE
8
BLACK
6
CONTINUOUS
10
60.8393
20
-110.982
11
60.5536
21
-110.982
0
LINE
8
BLACK
6
CONTINUOUS
10
60.5536
20
-110.982
11
60.2679
21
-110.839
0
LINE
8
BLACK
6
CONTINUOUS
10
60.2679
20
-110.839
11
60.125
21
-110.696
0
LINE
8
BLACK
6
CONTINUOUS
10
60.125
20
-110.696
11
59.9821
21
-110.411
0
LINE
8
BLACK
6
CONTINUOUS
10
59.9821
20
-110.411
11
59.8393
21
-109.839
0
LINE
8
BLACK
6
CONTINUOUS
10
59.8393
20
-109.839
11
59.8393
21
-109.125
0
LINE
8
BLACK
6
CONTINUOUS
10
59.8393
20
-109.125
11
59.9821
21
-108.554
0
LINE
8
BLACK
6
CONTINUOUS
10
59.9821
20
-108.554
11
60.125
21
-108.268
0
LINE
8
BLACK
6
CONTINUOUS
10
60.125
20
-108.268
11
60.2679
21
-108.125
0
LINE
8
BLACK
6
CONTINUOUS
10
60.2679
20
-108.125
11
60.5536
21
-107.982
0
LINE
8
BLACK
6
CONTINUOUS
10
62.8393
20
-110.982
11
62.8393
21
-108.982
0
LINE
8
BLACK
6
CONTINUOUS
10
62.8393
20
-109.268
11
62.9821
21
-109.125
0
LINE
8
BLACK
6
CONTINUOUS
10
62.9821
20
-109.125
11
63.2679
21
-108.982
0
LINE
8
BLACK
6
CONTINUOUS
10
63.2679
20
-108.982
11
63.6964
21
-108.982
0
LINE
8
BLACK
6
CONTINUOUS
10
63.6964
20
-108.982
11
63.9821
21
-109.125
0
LINE
8
BLACK
6
CONTINUOUS
10
63.9821
20
-109.125
11
64.125
21
-109.411
0
LINE
8
BLACK
6
CONTINUOUS
10
64.125
20
-109.411
11
64.125
21
-110.982
0
LINE
8
BLACK
6
CONTINUOUS
10
64.125
20
-109.411
11
64.2679
21
-109.125
0
LINE
8
BLACK
6
CONTINUOUS
10
64.2679
20
-109.125
11
64.5536
21
-108.982
0
LINE
8
BLACK
6
CONTINUOUS
10
64.5536
20
-108.982
11
64.9821
21
-108.982
0
LINE
8
BLACK
6
CONTINUOUS
10
64.9821
20
-108.982
11
65.2679
21
-109.125
0
LINE
8
BLACK
6
CONTINUOUS
10
65.2679
20
-109.125
11
65.4107
21
-109.411
0
LINE
8
BLACK
6
CONTINUOUS
10
65.4107
20
-109.411
11
65.4107
21
-110.982
0
LINE
8
BLACK
6
CONTINUOUS
10
66.8393
20
-110.982
11
66.8393
21
-108.982
0
LINE
8
BLACK
6
CONTINUOUS
10
66.8393
20
-109.268
11
66.9821
21
-109.125
0
LINE
8
BLACK
6
CONTINUOUS
10
66.9821
20
-109.125
11
67.2679
21
-108.982
0
LINE
8
BLACK
6
CONTINUOUS
10
67.2679
20
-108.982
11
67.6964
21
-108.982
0
LINE
8
BLACK
6
CONTINUOUS
10
67.6964
20
-108.982
11
67.9821
21
-109.125
0
LINE
8
BLACK
6
CONTINUOUS
10
67.9821
20
-109.125
11
68.125
21
-109.411
0
LINE
8
BLACK
6
CONTINUOUS
10
68.125
20
-109.411
11
68.125
21
-110.982
0
LINE
8
BLACK
6
CONTINUOUS
10
68.125
20
-109.411
11
68.2679
21
-109.125
0
LINE
8
BLACK
6
CONTINUOUS
10
68.2679
20
-109.125
11
68.5536
21
-108.982
0
LINE
8
BLACK
6
CONTINUOUS
10
68.5536
20
-108.982
11
68.9821
21
-108.982
0
LINE
8
BLACK
6
CONTINUOUS
10
68.9821
20
-108.982
11
69.2679
21
-109.125
0
LINE
8
BLACK
6
CONTINUOUS
10
69.2679
20
-109.125
11
69.4107
21
-109.411
0
LINE
8
BLACK
6
CONTINUOUS
10
69.4107
20
-109.411
11
69.4107
21
-110.982
0
LINE
8
BLACK
6
CONTINUOUS
10
75.2679
20
-107.839
11
72.6964
21
-111.696
0
LINE
8
BLACK
6
CONTINUOUS
10
79.125
20
-107.982
11
79.4107
21
-107.982
0
LINE
8
BLACK
6
CONTINUOUS
10
79.4107
20
-107.982
11
79.6964
21
-108.125
0
LINE
8
BLACK
6
CONTINUOUS
10
79.6964
20
-108.125
11
79.8393
21
-108.268
0
LINE
8
BLACK
6
CONTINUOUS
10
79.8393
20
-108.268
11
79.9821
21
-108.554
0
LINE
8
BLACK
6
CONTINUOUS
10
79.9821
20
-108.554
11
80.125
21
-109.125
0
LINE
8
BLACK
6
CONTINUOUS
10
80.125
20
-109.125
11
80.125
21
-109.839
0
LINE
8
BLACK
6
CONTINUOUS
10
80.125
20
-109.839
11
79.9821
21
-110.411
0
LINE
8
BLACK
6
CONTINUOUS
10
79.9821
20
-110.411
11
79.8393
21
-110.696
0
LINE
8
BLACK
6
CONTINUOUS
10
79.8393
20
-110.696
11
79.6964
21
-110.839
0
LINE
8
BLACK
6
CONTINUOUS
10
79.6964
20
-110.839
11
79.4107
21
-110.982
0
LINE
8
BLACK
6
CONTINUOUS
10
79.4107
20
-110.982
11
79.125
21
-110.982
0
LINE
8
BLACK
6
CONTINUOUS
10
79.125
20
-110.982
11
78.8393
21
-110.839
0
LINE
8
BLACK
6
CONTINUOUS
10
78.8393
20
-110.839
11
78.6964
21
-110.696
0
LINE
8
BLACK
6
CONTINUOUS
10
78.6964
20
-110.696
11
78.5536
21
-110.411
0
LINE
8
BLACK
6
CONTINUOUS
10
78.5536
20
-110.411
11
78.4107
21
-109.839
0
LINE
8
BLACK
6
CONTINUOUS
10
78.4107
20
-109.839
11
78.4107
21
-109.125
0
LINE
8
BLACK
6
CONTINUOUS
10
78.4107
20
-109.125
11
78.5536
21
-108.554
0
LINE
8
BLACK
6
CONTINUOUS
10
78.5536
20
-108.554
11
78.6964
21
-108.268
0
LINE
8
BLACK
6
CONTINUOUS
10
78.6964
20
-108.268
11
78.8393
21
-108.125
0
LINE
8
BLACK
6
CONTINUOUS
10
78.8393
20
-108.125
11
79.125
21
-107.982
0
LINE
8
BLACK
6
CONTINUOUS
10
81.4107
20
-110.696
11
81.5536
21
-110.839
0
LINE
8
BLACK
6
CONTINUOUS
10
81.5536
20
-110.839
11
81.4107
21
-110.982
0
LINE
8
BLACK
6
CONTINUOUS
10
81.4107
20
-110.982
11
81.2679
21
-110.839
0
LINE
8
BLACK
6
CONTINUOUS
10
81.2679
20
-110.839
11
81.4107
21
-110.696
0
LINE
8
BLACK
6
CONTINUOUS
10
81.4107
20
-110.696
11
81.4107
21
-110.982
0
LINE
8
BLACK
6
CONTINUOUS
10
84.4107
20
-110.982
11
82.6964
21
-110.982
0
LINE
8
BLACK
6
CONTINUOUS
10
83.5536
20
-110.982
11
83.5536
21
-107.982
0
LINE
8
BLACK
6
CONTINUOUS
10
83.5536
20
-107.982
11
83.2679
21
-108.411
0
LINE
8
BLACK
6
CONTINUOUS
10
83.2679
20
-108.411
11
82.9821
21
-108.696
0
LINE
8
BLACK
6
CONTINUOUS
10
82.9821
20
-108.696
11
82.6964
21
-108.839
0
LINE
8
BLACK
6
CONTINUOUS
10
87.2679
20
-110.982
11
85.5536
21
-110.982
0
LINE
8
BLACK
6
CONTINUOUS
10
86.4107
20
-110.982
11
86.4107
21
-107.982
0
LINE
8
BLACK
6
CONTINUOUS
10
86.4107
20
-107.982
11
86.125
21
-108.411
0
LINE
8
BLACK
6
CONTINUOUS
10
86.125
20
-108.411
11
85.8393
21
-108.696
0
LINE
8
BLACK
6
CONTINUOUS
10
85.8393
20
-108.696
11
85.5536
21
-108.839
0
LINE
8
BLACK
6
CONTINUOUS
10
88.9821
20
-109.268
11
88.6964
21
-109.125
0
LINE
8
BLACK
6
CONTINUOUS
10
88.6964
20
-109.125
11
88.5536
21
-108.982
0
LINE
8
BLACK
6
CONTINUOUS
10
88.5536
20
-108.982
11
88.4107
21
-108.696
0
LINE
8
BLACK
6
CONTINUOUS
10
88.4107
20
-108.696
11
88.4107
21
-108.554
0
LINE
8
BLACK
6
CONTINUOUS
10
88.4107
20
-108.554
11
88.5536
21
-108.268
0
LINE
8
BLACK
6
CONTINUOUS
10
88.5536
20
-108.268
11
88.6964
21
-108.125
0
LINE
8
BLACK
6
CONTINUOUS
10
88.6964
20
-108.125
11
88.9821
21
-107.982
0
LINE
8
BLACK
6
CONTINUOUS
10
88.9821
20
-107.982
11
89.5536
21
-107.982
0
LINE
8
BLACK
6
CONTINUOUS
10
89.5536
20
-107.982
11
89.8393
21
-108.125
0
LINE
8
BLACK
6
CONTINUOUS
10
89.8393
20
-108.125
11
89.9821
21
-108.268
0
LINE
8
BLACK
6
CONTINUOUS
10
89.9821
20
-108.268
11
90.125
21
-108.554
0
LINE
8
BLACK
6
CONTINUOUS
10
90.125
20
-108.554
11
90.125
21
-108.696
0
LINE
8
BLACK
6
CONTINUOUS
10
90.125
20
-108.696
11
89.9821
21
-108.982
0
LINE
8
BLACK
6
CONTINUOUS
10
89.9821
20
-108.982
11
89.8393
21
-109.125
0
LINE
8
BLACK
6
CONTINUOUS
10
89.8393
20
-109.125
11
89.5536
21
-109.268
0
LINE
8
BLACK
6
CONTINUOUS
10
89.5536
20
-109.268
11
88.9821
21
-109.268
0
LINE
8
BLACK
6
CONTINUOUS
10
88.9821
20
-109.268
11
88.6964
21
-109.411
0
LINE
8
BLACK
6
CONTINUOUS
10
88.6964
20
-109.411
11
88.5536
21
-109.554
0
LINE
8
BLACK
6
CONTINUOUS
10
88.5536
20
-109.554
11
88.4107
21
-109.839
0
LINE
8
BLACK
6
CONTINUOUS
10
88.4107
20
-109.839
11
88.4107
21
-110.411
0
LINE
8
BLACK
6
CONTINUOUS
10
88.4107
20
-110.411
11
88.5536
21
-110.696
0
LINE
8
BLACK
6
CONTINUOUS
10
88.5536
20
-110.696
11
88.6964
21
-110.839
0
LINE
8
BLACK
6
CONTINUOUS
10
88.6964
20
-110.839
11
88.9821
21
-110.982
0
LINE
8
BLACK
6
CONTINUOUS
10
88.9821
20
-110.982
11
89.5536
21
-110.982
0
LINE
8
BLACK
6
CONTINUOUS
10
89.5536
20
-110.982
11
89.8393
21
-110.839
0
LINE
8
BLACK
6
CONTINUOUS
10
89.8393
20
-110.839
11
89.9821
21
-110.696
0
LINE
8
BLACK
6
CONTINUOUS
10
89.9821
20
-110.696
11
90.125
21
-110.411
0
LINE
8
BLACK
6
CONTINUOUS
10
90.125
20
-110.411
11
90.125
21
-109.839
0
LINE
8
BLACK
6
CONTINUOUS
10
90.125
20
-109.839
11
89.9821
21
-109.554
0
LINE
8
BLACK
6
CONTINUOUS
10
89.9821
20
-109.554
11
89.8393
21
-109.411
0
LINE
8
BLACK
6
CONTINUOUS
10
89.8393
20
-109.411
11
89.5536
21
-109.268
0
LINE
8
BLACK
6
CONTINUOUS
10
91.2679
20
-107.982
11
91.2679
21
-108.554
0
LINE
8
BLACK
6
CONTINUOUS
10
92.4107
20
-107.982
11
92.4107
21
-108.554
0
LINE
8
BLACK
6
CONTINUOUS
10
96.8393
20
-112.125
11
96.6964
21
-111.982
0
LINE
8
BLACK
6
CONTINUOUS
10
96.6964
20
-111.982
11
96.4107
21
-111.554
0
LINE
8
BLACK
6
CONTINUOUS
10
96.4107
20
-111.554
11
96.2679
21
-111.268
0
LINE
8
BLACK
6
CONTINUOUS
10
96.2679
20
-111.268
11
96.125
21
-110.839
0
LINE
8
BLACK
6
CONTINUOUS
10
96.125
20
-110.839
11
95.9821
21
-110.125
0
LINE
8
BLACK
6
CONTINUOUS
10
95.9821
20
-110.125
11
95.9821
21
-109.554
0
LINE
8
BLACK
6
CONTINUOUS
10
95.9821
20
-109.554
11
96.125
21
-108.839
0
LINE
8
BLACK
6
CONTINUOUS
10
96.125
20
-108.839
11
96.2679
21
-108.411
0
LINE
8
BLACK
6
CONTINUOUS
10
96.2679
20
-108.411
11
96.4107
21
-108.125
0
LINE
8
BLACK
6
CONTINUOUS
10
96.4107
20
-108.125
11
96.6964
21
-107.696
0
LINE
8
BLACK
6
CONTINUOUS
10
96.6964
20
-107.696
11
96.8393
21
-107.554
0
LINE
8
BLACK
6
CONTINUOUS
10
98.5536
20
-107.982
11
98.8393
21
-107.982
0
LINE
8
BLACK
6
CONTINUOUS
10
98.8393
20
-107.982
11
99.125
21
-108.125
0
LINE
8
BLACK
6
CONTINUOUS
10
99.125
20
-108.125
11
99.2679
21
-108.268
0
LINE
8
BLACK
6
CONTINUOUS
10
99.2679
20
-108.268
11
99.4107
21
-108.554
0
LINE
8
BLACK
6
CONTINUOUS
10
99.4107
20
-108.554
11
99.5536
21
-109.125
0
LINE
8
BLACK
6
CONTINUOUS
10
99.5536
20
-109.125
11
99.5536
21
-109.839
0
LINE
8
BLACK
6
CONTINUOUS
10
99.5536
20
-109.839
11
99.4107
21
-110.411
0
LINE
8
BLACK
6
CONTINUOUS
10
99.4107
20
-110.411
11
99.2679
21
-110.696
0
LINE
8
BLACK
6
CONTINUOUS
10
99.2679
20
-110.696
11
99.125
21
-110.839
0
LINE
8
BLACK
6
CONTINUOUS
10
99.125
20
-110.839
11
98.8393
21
-110.982
0
LINE
8
BLACK
6
CONTINUOUS
10
98.8393
20
-110.982
11
98.5536
21
-110.982
0
LINE
8
BLACK
6
CONTINUOUS
10
98.5536
20
-110.982
11
98.2679
21
-110.839
0
LINE
8
BLACK
6
CONTINUOUS
10
98.2679
20
-110.839
11
98.125
21
-110.696
0
LINE
8
BLACK
6
CONTINUOUS
10
98.125
20
-110.696
11
97.9821
21
-110.411
0
LINE
8
BLACK
6
CONTINUOUS
10
97.9821
20
-110.411
11
97.8393
21
-109.839
0
LINE
8
BLACK
6
CONTINUOUS
10
97.8393
20
-109.839
11
97.8393
21
-109.125
0
LINE
8
BLACK
6
CONTINUOUS
10
97.8393
20
-109.125
11
97.9821
21
-108.554
0
LINE
8
BLACK
6
CONTINUOUS
10
97.9821
20
-108.554
11
98.125
21
-108.268
0
LINE
8
BLACK
6
CONTINUOUS
10
98.125
20
-108.268
11
98.2679
21
-108.125
0
LINE
8
BLACK
6
CONTINUOUS
10
98.2679
20
-108.125
11
98.5536
21
-107.982
0
LINE
8
BLACK
6
CONTINUOUS
10
103.125
20
-110.982
11
103.125
21
-107.982
0
LINE
8
BLACK
6
CONTINUOUS
10
104.411
20
-110.982
11
104.411
21
-109.411
0
LINE
8
BLACK
6
CONTINUOUS
10
104.411
20
-109.411
11
104.268
21
-109.125
0
LINE
8
BLACK
6
CONTINUOUS
10
104.268
20
-109.125
11
103.982
21
-108.982
0
LINE
8
BLACK
6
CONTINUOUS
10
103.982
20
-108.982
11
103.554
21
-108.982
0
LINE
8
BLACK
6
CONTINUOUS
10
103.554
20
-108.982
11
103.268
21
-109.125
0
LINE
8
BLACK
6
CONTINUOUS
10
103.268
20
-109.125
11
103.125
21
-109.268
0
LINE
8
BLACK
6
CONTINUOUS
10
106.268
20
-110.982
11
105.982
21
-110.839
0
LINE
8
BLACK
6
CONTINUOUS
10
105.982
20
-110.839
11
105.839
21
-110.696
0
LINE
8
BLACK
6
CONTINUOUS
10
105.839
20
-110.696
11
105.696
21
-110.411
0
LINE
8
BLACK
6
CONTINUOUS
10
105.696
20
-110.411
11
105.696
21
-109.554
0
LINE
8
BLACK
6
CONTINUOUS
10
105.696
20
-109.554
11
105.839
21
-109.268
0
LINE
8
BLACK
6
CONTINUOUS
10
105.839
20
-109.268
11
105.982
21
-109.125
0
LINE
8
BLACK
6
CONTINUOUS
10
105.982
20
-109.125
11
106.268
21
-108.982
0
LINE
8
BLACK
6
CONTINUOUS
10
106.268
20
-108.982
11
106.696
21
-108.982
0
LINE
8
BLACK
6
CONTINUOUS
10
106.696
20
-108.982
11
106.982
21
-109.125
0
LINE
8
BLACK
6
CONTINUOUS
10
106.982
20
-109.125
11
107.125
21
-109.268
0
LINE
8
BLACK
6
CONTINUOUS
10
107.125
20
-109.268
11
107.268
21
-109.554
0
LINE
8
BLACK
6
CONTINUOUS
10
107.268
20
-109.554
11
107.268
21
-110.411
0
LINE
8
BLACK
6
CONTINUOUS
10
107.268
20
-110.411
11
107.125
21
-110.696
0
LINE
8
BLACK
6
CONTINUOUS
10
107.125
20
-110.696
11
106.982
21
-110.839
0
LINE
8
BLACK
6
CONTINUOUS
10
106.982
20
-110.839
11
106.696
21
-110.982
0
LINE
8
BLACK
6
CONTINUOUS
10
106.696
20
-110.982
11
106.268
21
-110.982
0
LINE
8
BLACK
6
CONTINUOUS
10
108.982
20
-110.982
11
108.696
21
-110.839
0
LINE
8
BLACK
6
CONTINUOUS
10
108.696
20
-110.839
11
108.554
21
-110.554
0
LINE
8
BLACK
6
CONTINUOUS
10
108.554
20
-110.554
11
108.554
21
-107.982
0
LINE
8
BLACK
6
CONTINUOUS
10
111.268
20
-110.839
11
110.982
21
-110.982
0
LINE
8
BLACK
6
CONTINUOUS
10
110.982
20
-110.982
11
110.411
21
-110.982
0
LINE
8
BLACK
6
CONTINUOUS
10
110.411
20
-110.982
11
110.125
21
-110.839
0
LINE
8
BLACK
6
CONTINUOUS
10
110.125
20
-110.839
11
109.982
21
-110.554
0
LINE
8
BLACK
6
CONTINUOUS
10
109.982
20
-110.554
11
109.982
21
-109.411
0
LINE
8
BLACK
6
CONTINUOUS
10
109.982
20
-109.411
11
110.125
21
-109.125
0
LINE
8
BLACK
6
CONTINUOUS
10
110.125
20
-109.125
11
110.411
21
-108.982
0
LINE
8
BLACK
6
CONTINUOUS
10
110.411
20
-108.982
11
110.982
21
-108.982
0
LINE
8
BLACK
6
CONTINUOUS
10
110.982
20
-108.982
11
111.268
21
-109.125
0
LINE
8
BLACK
6
CONTINUOUS
10
111.268
20
-109.125
11
111.411
21
-109.411
0
LINE
8
BLACK
6
CONTINUOUS
10
111.411
20
-109.411
11
111.411
21
-109.696
0
LINE
8
BLACK
6
CONTINUOUS
10
111.411
20
-109.696
11
109.982
21
-109.982
0
LINE
8
BLACK
6
CONTINUOUS
10
112.554
20
-110.839
11
112.839
21
-110.982
0
LINE
8
BLACK
6
CONTINUOUS
10
112.839
20
-110.982
11
113.411
21
-110.982
0
LINE
8
BLACK
6
CONTINUOUS
10
113.411
20
-110.982
11
113.696
21
-110.839
0
LINE
8
BLACK
6
CONTINUOUS
10
113.696
20
-110.839
11
113.839
21
-110.554
0
LINE
8
BLACK
6
CONTINUOUS
10
113.839
20
-110.554
11
113.839
21
-110.411
0
LINE
8
BLACK
6
CONTINUOUS
10
113.839
20
-110.411
11
113.696
21
-110.125
0
LINE
8
BLACK
6
CONTINUOUS
10
113.696
20
-110.125
11
113.411
21
-109.982
0
LINE
8
BLACK
6
CONTINUOUS
10
113.411
20
-109.982
11
112.982
21
-109.982
0
LINE
8
BLACK
6
CONTINUOUS
10
112.982
20
-109.982
11
112.696
21
-109.839
0
LINE
8
BLACK
6
CONTINUOUS
10
112.696
20
-109.839
11
112.554
21
-109.554
0
LINE
8
BLACK
6
CONTINUOUS
10
112.554
20
-109.554
11
112.554
21
-109.411
0
LINE
8
BLACK
6
CONTINUOUS
10
112.554
20
-109.411
11
112.696
21
-109.125
0
LINE
8
BLACK
6
CONTINUOUS
10
112.696
20
-109.125
11
112.982
21
-108.982
0
LINE
8
BLACK
6
CONTINUOUS
10
112.982
20
-108.982
11
113.411
21
-108.982
0
LINE
8
BLACK
6
CONTINUOUS
10
113.411
20
-108.982
11
113.696
21
-109.125
0
LINE
8
BLACK
6
CONTINUOUS
10
117.411
20
-109.839
11
119.696
21
-109.839
0
LINE
8
BLACK
6
CONTINUOUS
10
118.554
20
-110.982
11
118.554
21
-108.696
0
LINE
8
BLACK
6
CONTINUOUS
10
123.125
20
-107.982
11
124.982
21
-107.982
0
LINE
8
BLACK
6
CONTINUOUS
10
124.982
20
-107.982
11
123.982
21
-109.125
0
LINE
8
BLACK
6
CONTINUOUS
10
123.982
20
-109.125
11
124.411
21
-109.125
0
LINE
8
BLACK
6
CONTINUOUS
10
124.411
20
-109.125
11
124.696
21
-109.268
0
LINE
8
BLACK
6
CONTINUOUS
10
124.696
20
-109.268
11
124.839
21
-109.411
0
LINE
8
BLACK
6
CONTINUOUS
10
124.839
20
-109.411
11
124.982
21
-109.696
0
LINE
8
BLACK
6
CONTINUOUS
10
124.982
20
-109.696
11
124.982
21
-110.411
0
LINE
8
BLACK
6
CONTINUOUS
10
124.982
20
-110.411
11
124.839
21
-110.696
0
LINE
8
BLACK
6
CONTINUOUS
10
124.839
20
-110.696
11
124.696
21
-110.839
0
LINE
8
BLACK
6
CONTINUOUS
10
124.696
20
-110.839
11
124.411
21
-110.982
0
LINE
8
BLACK
6
CONTINUOUS
10
124.411
20
-110.982
11
123.554
21
-110.982
0
LINE
8
BLACK
6
CONTINUOUS
10
123.554
20
-110.982
11
123.268
21
-110.839
0
LINE
8
BLACK
6
CONTINUOUS
10
123.268
20
-110.839
11
123.125
21
-110.696
0
LINE
8
BLACK
6
CONTINUOUS
10
128.411
20
-110.839
11
128.696
21
-110.982
0
LINE
8
BLACK
6
CONTINUOUS
10
128.696
20
-110.982
11
129.268
21
-110.982
0
LINE
8
BLACK
6
CONTINUOUS
10
129.268
20
-110.982
11
129.554
21
-110.839
0
LINE
8
BLACK
6
CONTINUOUS
10
129.554
20
-110.839
11
129.696
21
-110.554
0
LINE
8
BLACK
6
CONTINUOUS
10
129.696
20
-110.554
11
129.696
21
-110.411
0
LINE
8
BLACK
6
CONTINUOUS
10
129.696
20
-110.411
11
129.554
21
-110.125
0
LINE
8
BLACK
6
CONTINUOUS
10
129.554
20
-110.125
11
129.268
21
-109.982
0
LINE
8
BLACK
6
CONTINUOUS
10
129.268
20
-109.982
11
128.839
21
-109.982
0
LINE
8
BLACK
6
CONTINUOUS
10
128.839
20
-109.982
11
128.554
21
-109.839
0
LINE
8
BLACK
6
CONTINUOUS
10
128.554
20
-109.839
11
128.411
21
-109.554
0
LINE
8
BLACK
6
CONTINUOUS
10
128.411
20
-109.554
11
128.411
21
-109.411
0
LINE
8
BLACK
6
CONTINUOUS
10
128.411
20
-109.411
11
128.554
21
-109.125
0
LINE
8
BLACK
6
CONTINUOUS
10
128.554
20
-109.125
11
128.839
21
-108.982
0
LINE
8
BLACK
6
CONTINUOUS
10
128.839
20
-108.982
11
129.268
21
-108.982
0
LINE
8
BLACK
6
CONTINUOUS
10
129.268
20
-108.982
11
129.554
21
-109.125
0
LINE
8
BLACK
6
CONTINUOUS
10
131.411
20
-110.982
11
131.125
21
-110.839
0
LINE
8
BLACK
6
CONTINUOUS
10
131.125
20
-110.839
11
130.982
21
-110.554
0
LINE
8
BLACK
6
CONTINUOUS
10
130.982
20
-110.554
11
130.982
21
-107.982
0
LINE
8
BLACK
6
CONTINUOUS
10
132.982
20
-110.982
11
132.696
21
-110.839
0
LINE
8
BLACK
6
CONTINUOUS
10
132.696
20
-110.839
11
132.554
21
-110.696
0
LINE
8
BLACK
6
CONTINUOUS
10
132.554
20
-110.696
11
132.411
21
-110.411
0
LINE
8
BLACK
6
CONTINUOUS
10
132.411
20
-110.411
11
132.411
21
-109.554
0
LINE
8
BLACK
6
CONTINUOUS
10
132.411
20
-109.554
11
132.554
21
-109.268
0
LINE
8
BLACK
6
CONTINUOUS
10
132.554
20
-109.268
11
132.696
21
-109.125
0
LINE
8
BLACK
6
CONTINUOUS
10
132.696
20
-109.125
11
132.982
21
-108.982
0
LINE
8
BLACK
6
CONTINUOUS
10
132.982
20
-108.982
11
133.411
21
-108.982
0
LINE
8
BLACK
6
CONTINUOUS
10
133.411
20
-108.982
11
133.696
21
-109.125
0
LINE
8
BLACK
6
CONTINUOUS
10
133.696
20
-109.125
11
133.839
21
-109.268
0
LINE
8
BLACK
6
CONTINUOUS
10
133.839
20
-109.268
11
133.982
21
-109.554
0
LINE
8
BLACK
6
CONTINUOUS
10
133.982
20
-109.554
11
133.982
21
-110.411
0
LINE
8
BLACK
6
CONTINUOUS
10
133.982
20
-110.411
11
133.839
21
-110.696
0
LINE
8
BLACK
6
CONTINUOUS
10
133.839
20
-110.696
11
133.696
21
-110.839
0
LINE
8
BLACK
6
CONTINUOUS
10
133.696
20
-110.839
11
133.411
21
-110.982
0
LINE
8
BLACK
6
CONTINUOUS
10
133.411
20
-110.982
11
132.982
21
-110.982
0
LINE
8
BLACK
6
CONTINUOUS
10
134.839
20
-108.982
11
135.982
21
-108.982
0
LINE
8
BLACK
6
CONTINUOUS
10
135.268
20
-107.982
11
135.268
21
-110.554
0
LINE
8
BLACK
6
CONTINUOUS
10
135.268
20
-110.554
11
135.411
21
-110.839
0
LINE
8
BLACK
6
CONTINUOUS
10
135.411
20
-110.839
11
135.696
21
-110.982
0
LINE
8
BLACK
6
CONTINUOUS
10
135.696
20
-110.982
11
135.982
21
-110.982
0
LINE
8
BLACK
6
CONTINUOUS
10
136.839
20
-110.839
11
137.125
21
-110.982
0
LINE
8
BLACK
6
CONTINUOUS
10
137.125
20
-110.982
11
137.696
21
-110.982
0
LINE
8
BLACK
6
CONTINUOUS
10
137.696
20
-110.982
11
137.982
21
-110.839
0
LINE
8
BLACK
6
CONTINUOUS
10
137.982
20
-110.839
11
138.125
21
-110.554
0
LINE
8
BLACK
6
CONTINUOUS
10
138.125
20
-110.554
11
138.125
21
-110.411
0
LINE
8
BLACK
6
CONTINUOUS
10
138.125
20
-110.411
11
137.982
21
-110.125
0
LINE
8
BLACK
6
CONTINUOUS
10
137.982
20
-110.125
11
137.696
21
-109.982
0
LINE
8
BLACK
6
CONTINUOUS
10
137.696
20
-109.982
11
137.268
21
-109.982
0
LINE
8
BLACK
6
CONTINUOUS
10
137.268
20
-109.982
11
136.982
21
-109.839
0
LINE
8
BLACK
6
CONTINUOUS
10
136.982
20
-109.839
11
136.839
21
-109.554
0
LINE
8
BLACK
6
CONTINUOUS
10
136.839
20
-109.554
11
136.839
21
-109.411
0
LINE
8
BLACK
6
CONTINUOUS
10
136.839
20
-109.411
11
136.982
21
-109.125
0
LINE
8
BLACK
6
CONTINUOUS
10
136.982
20
-109.125
11
137.268
21
-108.982
0
LINE
8
BLACK
6
CONTINUOUS
10
137.268
20
-108.982
11
137.696
21
-108.982
0
LINE
8
BLACK
6
CONTINUOUS
10
137.696
20
-108.982
11
137.982
21
-109.125
0
LINE
8
BLACK
6
CONTINUOUS
10
139.125
20
-112.125
11
139.268
21
-111.982
0
LINE
8
BLACK
6
CONTINUOUS
10
139.268
20
-111.982
11
139.554
21
-111.554
0
LINE
8
BLACK
6
CONTINUOUS
10
139.554
20
-111.554
11
139.696
21
-111.268
0
LINE
8
BLACK
6
CONTINUOUS
10
139.696
20
-111.268
11
139.839
21
-110.839
0
LINE
8
BLACK
6
CONTINUOUS
10
139.839
20
-110.839
11
139.982
21
-110.125
0
LINE
8
BLACK
6
CONTINUOUS
10
139.982
20
-110.125
11
139.982
21
-109.554
0
LINE
8
BLACK
6
CONTINUOUS
10
139.982
20
-109.554
11
139.839
21
-108.839
0
LINE
8
BLACK
6
CONTINUOUS
10
139.839
20
-108.839
11
139.696
21
-108.411
0
LINE
8
BLACK
6
CONTINUOUS
10
139.696
20
-108.411
11
139.554
21
-108.125
0
LINE
8
BLACK
6
CONTINUOUS
10
139.554
20
-108.125
11
139.268
21
-107.696
0
LINE
8
BLACK
6
CONTINUOUS
10
139.268
20
-107.696
11
139.125
21
-107.554
0
LINE
8
BLACK
6
CONTINUOUS
10
144.554
20
-112.125
11
144.411
21
-111.982
0
LINE
8
BLACK
6
CONTINUOUS
10
144.411
20
-111.982
11
144.125
21
-111.554
0
LINE
8
BLACK
6
CONTINUOUS
10
144.125
20
-111.554
11
143.982
21
-111.268
0
LINE
8
BLACK
6
CONTINUOUS
10
143.982
20
-111.268
11
143.839
21
-110.839
0
LINE
8
BLACK
6
CONTINUOUS
10
143.839
20
-110.839
11
143.696
21
-110.125
0
LINE
8
BLACK
6
CONTINUOUS
10
143.696
20
-110.125
11
143.696
21
-109.554
0
LINE
8
BLACK
6
CONTINUOUS
10
143.696
20
-109.554
11
143.839
21
-108.839
0
LINE
8
BLACK
6
CONTINUOUS
10
143.839
20
-108.839
11
143.982
21
-108.411
0
LINE
8
BLACK
6
CONTINUOUS
10
143.982
20
-108.411
11
144.125
21
-108.125
0
LINE
8
BLACK
6
CONTINUOUS
10
144.125
20
-108.125
11
144.411
21
-107.696
0
LINE
8
BLACK
6
CONTINUOUS
10
144.411
20
-107.696
11
144.554
21
-107.554
0
LINE
8
BLACK
6
CONTINUOUS
10
145.696
20
-108.982
11
145.696
21
-110.982
0
LINE
8
BLACK
6
CONTINUOUS
10
145.696
20
-109.268
11
145.839
21
-109.125
0
LINE
8
BLACK
6
CONTINUOUS
10
145.839
20
-109.125
11
146.125
21
-108.982
0
LINE
8
BLACK
6
CONTINUOUS
10
146.125
20
-108.982
11
146.554
21
-108.982
0
LINE
8
BLACK
6
CONTINUOUS
10
146.554
20
-108.982
11
146.839
21
-109.125
0
LINE
8
BLACK
6
CONTINUOUS
10
146.839
20
-109.125
11
146.982
21
-109.411
0
LINE
8
BLACK
6
CONTINUOUS
10
146.982
20
-109.411
11
146.982
21
-110.982
0
LINE
8
BLACK
6
CONTINUOUS
10
148.839
20
-110.982
11
148.554
21
-110.839
0
LINE
8
BLACK
6
CONTINUOUS
10
148.554
20
-110.839
11
148.411
21
-110.696
0
LINE
8
BLACK
6
CONTINUOUS
10
148.411
20
-110.696
11
148.268
21
-110.411
0
LINE
8
BLACK
6
CONTINUOUS
10
148.268
20
-110.411
11
148.268
21
-109.554
0
LINE
8
BLACK
6
CONTINUOUS
10
148.268
20
-109.554
11
148.411
21
-109.268
0
LINE
8
BLACK
6
CONTINUOUS
10
148.411
20
-109.268
11
148.554
21
-109.125
0
LINE
8
BLACK
6
CONTINUOUS
10
148.554
20
-109.125
11
148.839
21
-108.982
0
LINE
8
BLACK
6
CONTINUOUS
10
148.839
20
-108.982
11
149.268
21
-108.982
0
LINE
8
BLACK
6
CONTINUOUS
10
149.268
20
-108.982
11
149.554
21
-109.125
0
LINE
8
BLACK
6
CONTINUOUS
10
149.554
20
-109.125
11
149.696
21
-109.268
0
LINE
8
BLACK
6
CONTINUOUS
10
149.696
20
-109.268
11
149.839
21
-109.554
0
LINE
8
BLACK
6
CONTINUOUS
10
149.839
20
-109.554
11
149.839
21
-110.411
0
LINE
8
BLACK
6
CONTINUOUS
10
149.839
20
-110.411
11
149.696
21
-110.696
0
LINE
8
BLACK
6
CONTINUOUS
10
149.696
20
-110.696
11
149.554
21
-110.839
0
LINE
8
BLACK
6
CONTINUOUS
10
149.554
20
-110.839
11
149.268
21
-110.982
0
LINE
8
BLACK
6
CONTINUOUS
10
149.268
20
-110.982
11
148.839
21
-110.982
0
LINE
8
BLACK
6
CONTINUOUS
10
150.696
20
-108.982
11
151.839
21
-108.982
0
LINE
8
BLACK
6
CONTINUOUS
10
151.125
20
-107.982
11
151.125
21
-110.554
0
LINE
8
BLACK
6
CONTINUOUS
10
151.125
20
-110.554
11
151.268
21
-110.839
0
LINE
8
BLACK
6
CONTINUOUS
10
151.268
20
-110.839
11
151.554
21
-110.982
0
LINE
8
BLACK
6
CONTINUOUS
10
151.554
20
-110.982
11
151.839
21
-110.982
0
LINE
8
BLACK
6
CONTINUOUS
10
155.125
20
-108.982
11
155.125
21
-111.982
0
LINE
8
BLACK
6
CONTINUOUS
10
155.125
20
-109.125
11
155.411
21
-108.982
0
LINE
8
BLACK
6
CONTINUOUS
10
155.411
20
-108.982
11
155.982
21
-108.982
0
LINE
8
BLACK
6
CONTINUOUS
10
155.982
20
-108.982
11
156.268
21
-109.125
0
LINE
8
BLACK
6
CONTINUOUS
10
156.268
20
-109.125
11
156.411
21
-109.268
0
LINE
8
BLACK
6
CONTINUOUS
10
156.411
20
-109.268
11
156.554
21
-109.554
0
LINE
8
BLACK
6
CONTINUOUS
10
156.554
20
-109.554
11
156.554
21
-110.411
0
LINE
8
BLACK
6
CONTINUOUS
10
156.554
20
-110.411
11
156.411
21
-110.696
0
LINE
8
BLACK
6
CONTINUOUS
10
156.411
20
-110.696
11
156.268
21
-110.839
0
LINE
8
BLACK
6
CONTINUOUS
10
156.268
20
-110.839
11
155.982
21
-110.982
0
LINE
8
BLACK
6
CONTINUOUS
10
155.982
20
-110.982
11
155.411
21
-110.982
0
LINE
8
BLACK
6
CONTINUOUS
10
155.411
20
-110.982
11
155.125
21
-110.839
0
LINE
8
BLACK
6
CONTINUOUS
10
158.268
20
-110.982
11
157.982
21
-110.839
0
LINE
8
BLACK
6
CONTINUOUS
10
157.982
20
-110.839
11
157.839
21
-110.554
0
LINE
8
BLACK
6
CONTINUOUS
10
157.839
20
-110.554
11
157.839
21
-107.982
0
LINE
8
BLACK
6
CONTINUOUS
10
160.696
20
-110.982
11
160.696
21
-109.411
0
LINE
8
BLACK
6
CONTINUOUS
10
160.696
20
-109.411
11
160.554
21
-109.125
0
LINE
8
BLACK
6
CONTINUOUS
10
160.554
20
-109.125
11
160.268
21
-108.982
0
LINE
8
BLACK
6
CONTINUOUS
10
160.268
20
-108.982
11
159.696
21
-108.982
0
LINE
8
BLACK
6
CONTINUOUS
10
159.696
20
-108.982
11
159.411
21
-109.125
0
LINE
8
BLACK
6
CONTINUOUS
10
160.696
20
-110.839
11
160.411
21
-110.982
0
LINE
8
BLACK
6
CONTINUOUS
10
160.411
20
-110.982
11
159.696
21
-110.982
0
LINE
8
BLACK
6
CONTINUOUS
10
159.696
20
-110.982
11
159.411
21
-110.839
0
LINE
8
BLACK
6
CONTINUOUS
10
159.411
20
-110.839
11
159.268
21
-110.554
0
LINE
8
BLACK
6
CONTINUOUS
10
159.268
20
-110.554
11
159.268
21
-110.268
0
LINE
8
BLACK
6
CONTINUOUS
10
159.268
20
-110.268
11
159.411
21
-109.982
0
LINE
8
BLACK
6
CONTINUOUS
10
159.411
20
-109.982
11
159.696
21
-109.839
0
LINE
8
BLACK
6
CONTINUOUS
10
159.696
20
-109.839
11
160.411
21
-109.839
0
LINE
8
BLACK
6
CONTINUOUS
10
160.411
20
-109.839
11
160.696
21
-109.696
0
LINE
8
BLACK
6
CONTINUOUS
10
161.696
20
-108.982
11
162.839
21
-108.982
0
LINE
8
BLACK
6
CONTINUOUS
10
162.125
20
-107.982
11
162.125
21
-110.554
0
LINE
8
BLACK
6
CONTINUOUS
10
162.125
20
-110.554
11
162.268
21
-110.839
0
LINE
8
BLACK
6
CONTINUOUS
10
162.268
20
-110.839
11
162.554
21
-110.982
0
LINE
8
BLACK
6
CONTINUOUS
10
162.554
20
-110.982
11
162.839
21
-110.982
0
LINE
8
BLACK
6
CONTINUOUS
10
164.982
20
-110.839
11
164.696
21
-110.982
0
LINE
8
BLACK
6
CONTINUOUS
10
164.696
20
-110.982
11
164.125
21
-110.982
0
LINE
8
BLACK
6
CONTINUOUS
10
164.125
20
-110.982
11
163.839
21
-110.839
0
LINE
8
BLACK
6
CONTINUOUS
10
163.839
20
-110.839
11
163.696
21
-110.554
0
LINE
8
BLACK
6
CONTINUOUS
10
163.696
20
-110.554
11
163.696
21
-109.411
0
LINE
8
BLACK
6
CONTINUOUS
10
163.696
20
-109.411
11
163.839
21
-109.125
0
LINE
8
BLACK
6
CONTINUOUS
10
163.839
20
-109.125
11
164.125
21
-108.982
0
LINE
8
BLACK
6
CONTINUOUS
10
164.125
20
-108.982
11
164.696
21
-108.982
0
LINE
8
BLACK
6
CONTINUOUS
10
164.696
20
-108.982
11
164.982
21
-109.125
0
LINE
8
BLACK
6
CONTINUOUS
10
164.982
20
-109.125
11
165.125
21
-109.411
0
LINE
8
BLACK
6
CONTINUOUS
10
165.125
20
-109.411
11
165.125
21
-109.696
0
LINE
8
BLACK
6
CONTINUOUS
10
165.125
20
-109.696
11
163.696
21
-109.982
0
LINE
8
BLACK
6
CONTINUOUS
10
167.696
20
-110.982
11
167.696
21
-107.982
0
LINE
8
BLACK
6
CONTINUOUS
10
167.696
20
-110.839
11
167.411
21
-110.982
0
LINE
8
BLACK
6
CONTINUOUS
10
167.411
20
-110.982
11
166.839
21
-110.982
0
LINE
8
BLACK
6
CONTINUOUS
10
166.839
20
-110.982
11
166.554
21
-110.839
0
LINE
8
BLACK
6
CONTINUOUS
10
166.554
20
-110.839
11
166.411
21
-110.696
0
LINE
8
BLACK
6
CONTINUOUS
10
166.411
20
-110.696
11
166.268
21
-110.411
0
LINE
8
BLACK
6
CONTINUOUS
10
166.268
20
-110.411
11
166.268
21
-109.554
0
LINE
8
BLACK
6
CONTINUOUS
10
166.268
20
-109.554
11
166.411
21
-109.268
0
LINE
8
BLACK
6
CONTINUOUS
10
166.411
20
-109.268
11
166.554
21
-109.125
0
LINE
8
BLACK
6
CONTINUOUS
10
166.554
20
-109.125
11
166.839
21
-108.982
0
LINE
8
BLACK
6
CONTINUOUS
10
166.839
20
-108.982
11
167.411
21
-108.982
0
LINE
8
BLACK
6
CONTINUOUS
10
167.411
20
-108.982
11
167.696
21
-109.125
0
LINE
8
BLACK
6
CONTINUOUS
10
168.839
20
-112.125
11
168.982
21
-111.982
0
LINE
8
BLACK
6
CONTINUOUS
10
168.982
20
-111.982
11
169.268
21
-111.554
0
LINE
8
BLACK
6
CONTINUOUS
10
169.268
20
-111.554
11
169.411
21
-111.268
0
LINE
8
BLACK
6
CONTINUOUS
10
169.411
20
-111.268
11
169.554
21
-110.839
0
LINE
8
BLACK
6
CONTINUOUS
10
169.554
20
-110.839
11
169.696
21
-110.125
0
LINE
8
BLACK
6
CONTINUOUS
10
169.696
20
-110.125
11
169.696
21
-109.554
0
LINE
8
BLACK
6
CONTINUOUS
10
169.696
20
-109.554
11
169.554
21
-108.839
0
LINE
8
BLACK
6
CONTINUOUS
10
169.554
20
-108.839
11
169.411
21
-108.411
0
LINE
8
BLACK
6
CONTINUOUS
10
169.411
20
-108.411
11
169.268
21
-108.125
0
LINE
8
BLACK
6
CONTINUOUS
10
169.268
20
-108.125
11
168.982
21
-107.696
0
LINE
8
BLACK
6
CONTINUOUS
10
168.982
20
-107.696
11
168.839
21
-107.554
  0
ENDSEC
  0
EOF
